%TF.GenerationSoftware,KiCad,Pcbnew,(6.0.7)*%
%TF.CreationDate,2022-09-12T17:05:53+03:00*%
%TF.ProjectId,io-breakout,696f2d62-7265-4616-9b6f-75742e6b6963,rev?*%
%TF.SameCoordinates,Original*%
%TF.FileFunction,Plated,1,2,PTH,Drill*%
%TF.FilePolarity,Positive*%
%FSLAX46Y46*%
G04 Gerber Fmt 4.6, Leading zero omitted, Abs format (unit mm)*
G04 Created by KiCad (PCBNEW (6.0.7)) date 2022-09-12 17:05:53*
%MOMM*%
%LPD*%
G01*
G04 APERTURE LIST*
%TA.AperFunction,ComponentDrill*%
%ADD10C,0.800000*%
%TD*%
%TA.AperFunction,ComponentDrill*%
%ADD11C,0.900000*%
%TD*%
%TA.AperFunction,ComponentDrill*%
%ADD12C,1.000000*%
%TD*%
%TA.AperFunction,ComponentDrill*%
%ADD13C,1.520000*%
%TD*%
%TA.AperFunction,ComponentDrill*%
%ADD14C,3.200000*%
%TD*%
G04 APERTURE END LIST*
D10*
%TO.C,R2*%
X158115000Y-83185000D03*
X158115000Y-93345000D03*
%TO.C,R1*%
X163195000Y-83185000D03*
X163195000Y-93345000D03*
D11*
%TO.C,D2*%
X160660000Y-108585000D03*
X163200000Y-108585000D03*
%TO.C,D1*%
X167645000Y-108585000D03*
X170185000Y-108585000D03*
D12*
%TO.C,J9*%
X109220000Y-73660000D03*
X110605000Y-70820000D03*
X111990000Y-73660000D03*
X114760000Y-73660000D03*
X117530000Y-73660000D03*
X120300000Y-73660000D03*
X123070000Y-73660000D03*
X125840000Y-73660000D03*
X128610000Y-73660000D03*
X131380000Y-73660000D03*
X134150000Y-73660000D03*
X136920000Y-73660000D03*
X139690000Y-73660000D03*
X142460000Y-73660000D03*
X145230000Y-73660000D03*
X149385000Y-70820000D03*
X153540000Y-73660000D03*
X156310000Y-73660000D03*
X157695000Y-70820000D03*
X159080000Y-73660000D03*
D13*
%TO.C,J10*%
X88900000Y-81280000D03*
X88900000Y-86360000D03*
%TO.C,J11*%
X88900000Y-91440000D03*
X88900000Y-96520000D03*
%TO.C,J1*%
X98425000Y-107950000D03*
X103505000Y-107950000D03*
%TO.C,J2*%
X108585000Y-107950000D03*
X113665000Y-107950000D03*
%TO.C,J3*%
X118745000Y-107950000D03*
X123825000Y-107950000D03*
%TO.C,J4*%
X128905000Y-107950000D03*
X133985000Y-107950000D03*
%TO.C,J5*%
X139065000Y-107950000D03*
X144145000Y-107950000D03*
%TO.C,J6*%
X149225000Y-107950000D03*
X154305000Y-107950000D03*
%TO.C,J8*%
X180340000Y-81280000D03*
X180340000Y-86360000D03*
%TO.C,J7*%
X180340000Y-91440000D03*
X180340000Y-96520000D03*
D14*
%TO.C,J9*%
X102400000Y-72240000D03*
X165900000Y-72240000D03*
M02*
