%TF.GenerationSoftware,KiCad,Pcbnew,(6.0.7)*%
%TF.CreationDate,2022-09-12T17:06:16+03:00*%
%TF.ProjectId,io-breakout,696f2d62-7265-4616-9b6f-75742e6b6963,rev?*%
%TF.SameCoordinates,Original*%
%TF.FileFunction,Legend,Top*%
%TF.FilePolarity,Positive*%
%FSLAX46Y46*%
G04 Gerber Fmt 4.6, Leading zero omitted, Abs format (unit mm)*
G04 Created by KiCad (PCBNEW (6.0.7)) date 2022-09-12 17:06:16*
%MOMM*%
%LPD*%
G01*
G04 APERTURE LIST*
%ADD10C,0.300000*%
%ADD11C,0.200000*%
%ADD12C,0.120000*%
G04 APERTURE END LIST*
D10*
X124503571Y-102072142D02*
X123003571Y-102072142D01*
X123003571Y-101500714D01*
X123075000Y-101357857D01*
X123146428Y-101286428D01*
X123289285Y-101215000D01*
X123503571Y-101215000D01*
X123646428Y-101286428D01*
X123717857Y-101357857D01*
X123789285Y-101500714D01*
X123789285Y-102072142D01*
X123003571Y-100715000D02*
X123003571Y-99786428D01*
X123575000Y-100286428D01*
X123575000Y-100072142D01*
X123646428Y-99929285D01*
X123717857Y-99857857D01*
X123860714Y-99786428D01*
X124217857Y-99786428D01*
X124360714Y-99857857D01*
X124432142Y-99929285D01*
X124503571Y-100072142D01*
X124503571Y-100500714D01*
X124432142Y-100643571D01*
X124360714Y-100715000D01*
X170299285Y-95841428D02*
X170370714Y-95770000D01*
X170513571Y-95698571D01*
X170870714Y-95698571D01*
X171013571Y-95770000D01*
X171085000Y-95841428D01*
X171156428Y-95984285D01*
X171156428Y-96127142D01*
X171085000Y-96341428D01*
X170227857Y-97198571D01*
X171156428Y-97198571D01*
X172442142Y-96198571D02*
X172442142Y-97198571D01*
X172085000Y-95627142D02*
X171727857Y-96698571D01*
X172656428Y-96698571D01*
X173013571Y-95698571D02*
X173513571Y-97198571D01*
X174013571Y-95698571D01*
D11*
X159758333Y-103687619D02*
X159805952Y-103640000D01*
X159901190Y-103592380D01*
X160139285Y-103592380D01*
X160234523Y-103640000D01*
X160282142Y-103687619D01*
X160329761Y-103782857D01*
X160329761Y-103878095D01*
X160282142Y-104020952D01*
X159710714Y-104592380D01*
X160329761Y-104592380D01*
X161186904Y-103925714D02*
X161186904Y-104592380D01*
X160948809Y-103544761D02*
X160710714Y-104259047D01*
X161329761Y-104259047D01*
X161567857Y-103592380D02*
X161901190Y-104592380D01*
X162234523Y-103592380D01*
X163282142Y-103544761D02*
X162425000Y-104830476D01*
X164044047Y-104592380D02*
X164044047Y-104068571D01*
X163996428Y-103973333D01*
X163901190Y-103925714D01*
X163710714Y-103925714D01*
X163615476Y-103973333D01*
X164044047Y-104544761D02*
X163948809Y-104592380D01*
X163710714Y-104592380D01*
X163615476Y-104544761D01*
X163567857Y-104449523D01*
X163567857Y-104354285D01*
X163615476Y-104259047D01*
X163710714Y-104211428D01*
X163948809Y-104211428D01*
X164044047Y-104163809D01*
D10*
X102755000Y-102107857D02*
X102683571Y-102250714D01*
X102683571Y-102465000D01*
X102755000Y-102679285D01*
X102897857Y-102822142D01*
X103040714Y-102893571D01*
X103326428Y-102965000D01*
X103540714Y-102965000D01*
X103826428Y-102893571D01*
X103969285Y-102822142D01*
X104112142Y-102679285D01*
X104183571Y-102465000D01*
X104183571Y-102322142D01*
X104112142Y-102107857D01*
X104040714Y-102036428D01*
X103540714Y-102036428D01*
X103540714Y-102322142D01*
X104183571Y-101393571D02*
X102683571Y-101393571D01*
X104183571Y-100536428D01*
X102683571Y-100536428D01*
X104183571Y-99822142D02*
X102683571Y-99822142D01*
X102683571Y-99465000D01*
X102755000Y-99250714D01*
X102897857Y-99107857D01*
X103040714Y-99036428D01*
X103326428Y-98965000D01*
X103540714Y-98965000D01*
X103826428Y-99036428D01*
X103969285Y-99107857D01*
X104112142Y-99250714D01*
X104183571Y-99465000D01*
X104183571Y-99822142D01*
X97675000Y-102107857D02*
X97603571Y-102250714D01*
X97603571Y-102465000D01*
X97675000Y-102679285D01*
X97817857Y-102822142D01*
X97960714Y-102893571D01*
X98246428Y-102965000D01*
X98460714Y-102965000D01*
X98746428Y-102893571D01*
X98889285Y-102822142D01*
X99032142Y-102679285D01*
X99103571Y-102465000D01*
X99103571Y-102322142D01*
X99032142Y-102107857D01*
X98960714Y-102036428D01*
X98460714Y-102036428D01*
X98460714Y-102322142D01*
X99103571Y-101393571D02*
X97603571Y-101393571D01*
X99103571Y-100536428D01*
X97603571Y-100536428D01*
X99103571Y-99822142D02*
X97603571Y-99822142D01*
X97603571Y-99465000D01*
X97675000Y-99250714D01*
X97817857Y-99107857D01*
X97960714Y-99036428D01*
X98246428Y-98965000D01*
X98460714Y-98965000D01*
X98746428Y-99036428D01*
X98889285Y-99107857D01*
X99032142Y-99250714D01*
X99103571Y-99465000D01*
X99103571Y-99822142D01*
D11*
X167719523Y-103687619D02*
X167767142Y-103640000D01*
X167862380Y-103592380D01*
X168100476Y-103592380D01*
X168195714Y-103640000D01*
X168243333Y-103687619D01*
X168290952Y-103782857D01*
X168290952Y-103878095D01*
X168243333Y-104020952D01*
X167671904Y-104592380D01*
X168290952Y-104592380D01*
X169148095Y-103925714D02*
X169148095Y-104592380D01*
X168910000Y-103544761D02*
X168671904Y-104259047D01*
X169290952Y-104259047D01*
X169529047Y-103592380D02*
X169862380Y-104592380D01*
X170195714Y-103592380D01*
D10*
X94742142Y-95770000D02*
X94599285Y-95698571D01*
X94385000Y-95698571D01*
X94170714Y-95770000D01*
X94027857Y-95912857D01*
X93956428Y-96055714D01*
X93885000Y-96341428D01*
X93885000Y-96555714D01*
X93956428Y-96841428D01*
X94027857Y-96984285D01*
X94170714Y-97127142D01*
X94385000Y-97198571D01*
X94527857Y-97198571D01*
X94742142Y-97127142D01*
X94813571Y-97055714D01*
X94813571Y-96555714D01*
X94527857Y-96555714D01*
X95456428Y-97198571D02*
X95456428Y-95698571D01*
X96313571Y-97198571D01*
X96313571Y-95698571D01*
X97027857Y-97198571D02*
X97027857Y-95698571D01*
X97385000Y-95698571D01*
X97599285Y-95770000D01*
X97742142Y-95912857D01*
X97813571Y-96055714D01*
X97885000Y-96341428D01*
X97885000Y-96555714D01*
X97813571Y-96841428D01*
X97742142Y-96984285D01*
X97599285Y-97127142D01*
X97385000Y-97198571D01*
X97027857Y-97198571D01*
X107835000Y-102107857D02*
X107763571Y-102250714D01*
X107763571Y-102465000D01*
X107835000Y-102679285D01*
X107977857Y-102822142D01*
X108120714Y-102893571D01*
X108406428Y-102965000D01*
X108620714Y-102965000D01*
X108906428Y-102893571D01*
X109049285Y-102822142D01*
X109192142Y-102679285D01*
X109263571Y-102465000D01*
X109263571Y-102322142D01*
X109192142Y-102107857D01*
X109120714Y-102036428D01*
X108620714Y-102036428D01*
X108620714Y-102322142D01*
X109263571Y-101393571D02*
X107763571Y-101393571D01*
X109263571Y-100536428D01*
X107763571Y-100536428D01*
X109263571Y-99822142D02*
X107763571Y-99822142D01*
X107763571Y-99465000D01*
X107835000Y-99250714D01*
X107977857Y-99107857D01*
X108120714Y-99036428D01*
X108406428Y-98965000D01*
X108620714Y-98965000D01*
X108906428Y-99036428D01*
X109049285Y-99107857D01*
X109192142Y-99250714D01*
X109263571Y-99465000D01*
X109263571Y-99822142D01*
X168835000Y-80601428D02*
X168906428Y-80530000D01*
X169049285Y-80458571D01*
X169406428Y-80458571D01*
X169549285Y-80530000D01*
X169620714Y-80601428D01*
X169692142Y-80744285D01*
X169692142Y-80887142D01*
X169620714Y-81101428D01*
X168763571Y-81958571D01*
X169692142Y-81958571D01*
X170977857Y-80958571D02*
X170977857Y-81958571D01*
X170620714Y-80387142D02*
X170263571Y-81458571D01*
X171192142Y-81458571D01*
X171549285Y-80458571D02*
X172049285Y-81958571D01*
X172549285Y-80458571D01*
X174120714Y-80387142D02*
X172835000Y-82315714D01*
X175263571Y-81958571D02*
X175263571Y-81172857D01*
X175192142Y-81030000D01*
X175049285Y-80958571D01*
X174763571Y-80958571D01*
X174620714Y-81030000D01*
X175263571Y-81887142D02*
X175120714Y-81958571D01*
X174763571Y-81958571D01*
X174620714Y-81887142D01*
X174549285Y-81744285D01*
X174549285Y-81601428D01*
X174620714Y-81458571D01*
X174763571Y-81387142D01*
X175120714Y-81387142D01*
X175263571Y-81315714D01*
X170299285Y-90761428D02*
X170370714Y-90690000D01*
X170513571Y-90618571D01*
X170870714Y-90618571D01*
X171013571Y-90690000D01*
X171085000Y-90761428D01*
X171156428Y-90904285D01*
X171156428Y-91047142D01*
X171085000Y-91261428D01*
X170227857Y-92118571D01*
X171156428Y-92118571D01*
X172442142Y-91118571D02*
X172442142Y-92118571D01*
X172085000Y-90547142D02*
X171727857Y-91618571D01*
X172656428Y-91618571D01*
X173013571Y-90618571D02*
X173513571Y-92118571D01*
X174013571Y-90618571D01*
X119423571Y-102072142D02*
X117923571Y-102072142D01*
X117923571Y-101500714D01*
X117995000Y-101357857D01*
X118066428Y-101286428D01*
X118209285Y-101215000D01*
X118423571Y-101215000D01*
X118566428Y-101286428D01*
X118637857Y-101357857D01*
X118709285Y-101500714D01*
X118709285Y-102072142D01*
X118066428Y-100643571D02*
X117995000Y-100572142D01*
X117923571Y-100429285D01*
X117923571Y-100072142D01*
X117995000Y-99929285D01*
X118066428Y-99857857D01*
X118209285Y-99786428D01*
X118352142Y-99786428D01*
X118566428Y-99857857D01*
X119423571Y-100715000D01*
X119423571Y-99786428D01*
X154983571Y-102151428D02*
X153483571Y-102151428D01*
X153483571Y-101580000D01*
X153555000Y-101437142D01*
X153626428Y-101365714D01*
X153769285Y-101294285D01*
X153983571Y-101294285D01*
X154126428Y-101365714D01*
X154197857Y-101437142D01*
X154269285Y-101580000D01*
X154269285Y-102151428D01*
X153483571Y-100794285D02*
X153483571Y-99865714D01*
X154055000Y-100365714D01*
X154055000Y-100151428D01*
X154126428Y-100008571D01*
X154197857Y-99937142D01*
X154340714Y-99865714D01*
X154697857Y-99865714D01*
X154840714Y-99937142D01*
X154912142Y-100008571D01*
X154983571Y-100151428D01*
X154983571Y-100580000D01*
X154912142Y-100722857D01*
X154840714Y-100794285D01*
X153983571Y-98580000D02*
X154983571Y-98580000D01*
X153412142Y-98937142D02*
X154483571Y-99294285D01*
X154483571Y-98365714D01*
X139743571Y-102072142D02*
X138243571Y-102072142D01*
X138243571Y-101500714D01*
X138315000Y-101357857D01*
X138386428Y-101286428D01*
X138529285Y-101215000D01*
X138743571Y-101215000D01*
X138886428Y-101286428D01*
X138957857Y-101357857D01*
X139029285Y-101500714D01*
X139029285Y-102072142D01*
X138243571Y-99929285D02*
X138243571Y-100215000D01*
X138315000Y-100357857D01*
X138386428Y-100429285D01*
X138600714Y-100572142D01*
X138886428Y-100643571D01*
X139457857Y-100643571D01*
X139600714Y-100572142D01*
X139672142Y-100500714D01*
X139743571Y-100357857D01*
X139743571Y-100072142D01*
X139672142Y-99929285D01*
X139600714Y-99857857D01*
X139457857Y-99786428D01*
X139100714Y-99786428D01*
X138957857Y-99857857D01*
X138886428Y-99929285D01*
X138815000Y-100072142D01*
X138815000Y-100357857D01*
X138886428Y-100500714D01*
X138957857Y-100572142D01*
X139100714Y-100643571D01*
X94083571Y-81172857D02*
X94583571Y-81172857D01*
X94797857Y-81958571D02*
X94083571Y-81958571D01*
X94083571Y-80458571D01*
X94797857Y-80458571D01*
X95369285Y-81530000D02*
X96083571Y-81530000D01*
X95226428Y-81958571D02*
X95726428Y-80458571D01*
X96226428Y-81958571D01*
X97583571Y-81958571D02*
X97083571Y-81244285D01*
X96726428Y-81958571D02*
X96726428Y-80458571D01*
X97297857Y-80458571D01*
X97440714Y-80530000D01*
X97512142Y-80601428D01*
X97583571Y-80744285D01*
X97583571Y-80958571D01*
X97512142Y-81101428D01*
X97440714Y-81172857D01*
X97297857Y-81244285D01*
X96726428Y-81244285D01*
X98012142Y-80458571D02*
X98869285Y-80458571D01*
X98440714Y-81958571D02*
X98440714Y-80458571D01*
X99369285Y-81958571D02*
X99369285Y-80458571D01*
X99369285Y-81172857D02*
X100226428Y-81172857D01*
X100226428Y-81958571D02*
X100226428Y-80458571D01*
X144823571Y-102072142D02*
X143323571Y-102072142D01*
X143323571Y-101500714D01*
X143395000Y-101357857D01*
X143466428Y-101286428D01*
X143609285Y-101215000D01*
X143823571Y-101215000D01*
X143966428Y-101286428D01*
X144037857Y-101357857D01*
X144109285Y-101500714D01*
X144109285Y-102072142D01*
X143323571Y-100715000D02*
X143323571Y-99715000D01*
X144823571Y-100357857D01*
X134663571Y-102072142D02*
X133163571Y-102072142D01*
X133163571Y-101500714D01*
X133235000Y-101357857D01*
X133306428Y-101286428D01*
X133449285Y-101215000D01*
X133663571Y-101215000D01*
X133806428Y-101286428D01*
X133877857Y-101357857D01*
X133949285Y-101500714D01*
X133949285Y-102072142D01*
X133163571Y-99857857D02*
X133163571Y-100572142D01*
X133877857Y-100643571D01*
X133806428Y-100572142D01*
X133735000Y-100429285D01*
X133735000Y-100072142D01*
X133806428Y-99929285D01*
X133877857Y-99857857D01*
X134020714Y-99786428D01*
X134377857Y-99786428D01*
X134520714Y-99857857D01*
X134592142Y-99929285D01*
X134663571Y-100072142D01*
X134663571Y-100429285D01*
X134592142Y-100572142D01*
X134520714Y-100643571D01*
X114343571Y-102072142D02*
X112843571Y-102072142D01*
X112843571Y-101500714D01*
X112915000Y-101357857D01*
X112986428Y-101286428D01*
X113129285Y-101215000D01*
X113343571Y-101215000D01*
X113486428Y-101286428D01*
X113557857Y-101357857D01*
X113629285Y-101500714D01*
X113629285Y-102072142D01*
X114343571Y-99786428D02*
X114343571Y-100643571D01*
X114343571Y-100215000D02*
X112843571Y-100215000D01*
X113057857Y-100357857D01*
X113200714Y-100500714D01*
X113272142Y-100643571D01*
X129583571Y-102072142D02*
X128083571Y-102072142D01*
X128083571Y-101500714D01*
X128155000Y-101357857D01*
X128226428Y-101286428D01*
X128369285Y-101215000D01*
X128583571Y-101215000D01*
X128726428Y-101286428D01*
X128797857Y-101357857D01*
X128869285Y-101500714D01*
X128869285Y-102072142D01*
X128583571Y-99929285D02*
X129583571Y-99929285D01*
X128012142Y-100286428D02*
X129083571Y-100643571D01*
X129083571Y-99715000D01*
X94742142Y-85610000D02*
X94599285Y-85538571D01*
X94385000Y-85538571D01*
X94170714Y-85610000D01*
X94027857Y-85752857D01*
X93956428Y-85895714D01*
X93885000Y-86181428D01*
X93885000Y-86395714D01*
X93956428Y-86681428D01*
X94027857Y-86824285D01*
X94170714Y-86967142D01*
X94385000Y-87038571D01*
X94527857Y-87038571D01*
X94742142Y-86967142D01*
X94813571Y-86895714D01*
X94813571Y-86395714D01*
X94527857Y-86395714D01*
X95456428Y-87038571D02*
X95456428Y-85538571D01*
X96313571Y-87038571D01*
X96313571Y-85538571D01*
X97027857Y-87038571D02*
X97027857Y-85538571D01*
X97385000Y-85538571D01*
X97599285Y-85610000D01*
X97742142Y-85752857D01*
X97813571Y-85895714D01*
X97885000Y-86181428D01*
X97885000Y-86395714D01*
X97813571Y-86681428D01*
X97742142Y-86824285D01*
X97599285Y-86967142D01*
X97385000Y-87038571D01*
X97027857Y-87038571D01*
X168200000Y-85681428D02*
X168271428Y-85610000D01*
X168414285Y-85538571D01*
X168771428Y-85538571D01*
X168914285Y-85610000D01*
X168985714Y-85681428D01*
X169057142Y-85824285D01*
X169057142Y-85967142D01*
X168985714Y-86181428D01*
X168128571Y-87038571D01*
X169057142Y-87038571D01*
X170342857Y-86038571D02*
X170342857Y-87038571D01*
X169985714Y-85467142D02*
X169628571Y-86538571D01*
X170557142Y-86538571D01*
X170914285Y-85538571D02*
X171414285Y-87038571D01*
X171914285Y-85538571D01*
X173485714Y-85467142D02*
X172200000Y-87395714D01*
X174628571Y-87038571D02*
X174628571Y-86252857D01*
X174557142Y-86110000D01*
X174414285Y-86038571D01*
X174128571Y-86038571D01*
X173985714Y-86110000D01*
X174628571Y-86967142D02*
X174485714Y-87038571D01*
X174128571Y-87038571D01*
X173985714Y-86967142D01*
X173914285Y-86824285D01*
X173914285Y-86681428D01*
X173985714Y-86538571D01*
X174128571Y-86467142D01*
X174485714Y-86467142D01*
X174628571Y-86395714D01*
X149903571Y-102072142D02*
X148403571Y-102072142D01*
X148403571Y-101500714D01*
X148475000Y-101357857D01*
X148546428Y-101286428D01*
X148689285Y-101215000D01*
X148903571Y-101215000D01*
X149046428Y-101286428D01*
X149117857Y-101357857D01*
X149189285Y-101500714D01*
X149189285Y-102072142D01*
X149046428Y-100357857D02*
X148975000Y-100500714D01*
X148903571Y-100572142D01*
X148760714Y-100643571D01*
X148689285Y-100643571D01*
X148546428Y-100572142D01*
X148475000Y-100500714D01*
X148403571Y-100357857D01*
X148403571Y-100072142D01*
X148475000Y-99929285D01*
X148546428Y-99857857D01*
X148689285Y-99786428D01*
X148760714Y-99786428D01*
X148903571Y-99857857D01*
X148975000Y-99929285D01*
X149046428Y-100072142D01*
X149046428Y-100357857D01*
X149117857Y-100500714D01*
X149189285Y-100572142D01*
X149332142Y-100643571D01*
X149617857Y-100643571D01*
X149760714Y-100572142D01*
X149832142Y-100500714D01*
X149903571Y-100357857D01*
X149903571Y-100072142D01*
X149832142Y-99929285D01*
X149760714Y-99857857D01*
X149617857Y-99786428D01*
X149332142Y-99786428D01*
X149189285Y-99857857D01*
X149117857Y-99929285D01*
X149046428Y-100072142D01*
X94742142Y-90690000D02*
X94599285Y-90618571D01*
X94385000Y-90618571D01*
X94170714Y-90690000D01*
X94027857Y-90832857D01*
X93956428Y-90975714D01*
X93885000Y-91261428D01*
X93885000Y-91475714D01*
X93956428Y-91761428D01*
X94027857Y-91904285D01*
X94170714Y-92047142D01*
X94385000Y-92118571D01*
X94527857Y-92118571D01*
X94742142Y-92047142D01*
X94813571Y-91975714D01*
X94813571Y-91475714D01*
X94527857Y-91475714D01*
X95456428Y-92118571D02*
X95456428Y-90618571D01*
X96313571Y-92118571D01*
X96313571Y-90618571D01*
X97027857Y-92118571D02*
X97027857Y-90618571D01*
X97385000Y-90618571D01*
X97599285Y-90690000D01*
X97742142Y-90832857D01*
X97813571Y-90975714D01*
X97885000Y-91261428D01*
X97885000Y-91475714D01*
X97813571Y-91761428D01*
X97742142Y-91904285D01*
X97599285Y-92047142D01*
X97385000Y-92118571D01*
X97027857Y-92118571D01*
D12*
%TO.C,J3*%
X126365000Y-111760000D02*
X126365000Y-104140000D01*
X126365000Y-110490000D02*
X116205000Y-110490000D01*
X116205000Y-111760000D02*
X126365000Y-111760000D01*
X126365000Y-104140000D02*
X116205000Y-104140000D01*
X116205000Y-104140000D02*
X116205000Y-111760000D01*
%TO.C,J10*%
X86360000Y-88900000D02*
X86360000Y-78740000D01*
X92710000Y-88900000D02*
X92710000Y-78740000D01*
X85090000Y-78740000D02*
X85090000Y-88900000D01*
X85090000Y-88900000D02*
X92710000Y-88900000D01*
X92710000Y-78740000D02*
X85090000Y-78740000D01*
%TO.C,J2*%
X116205000Y-110490000D02*
X106045000Y-110490000D01*
X116205000Y-104140000D02*
X106045000Y-104140000D01*
X106045000Y-104140000D02*
X106045000Y-111760000D01*
X116205000Y-111760000D02*
X116205000Y-104140000D01*
X106045000Y-111760000D02*
X116205000Y-111760000D01*
%TO.C,J9*%
X108970000Y-76414338D02*
X109220000Y-75981325D01*
X99390000Y-75520000D02*
X99390000Y-63180000D01*
X168910000Y-63180000D02*
X168910000Y-75520000D01*
X109470000Y-76414338D02*
X108970000Y-76414338D01*
X109220000Y-75981325D02*
X109470000Y-76414338D01*
X168910000Y-75520000D02*
X99390000Y-75520000D01*
%TO.C,J5*%
X146685000Y-111760000D02*
X146685000Y-104140000D01*
X136525000Y-104140000D02*
X136525000Y-111760000D01*
X136525000Y-111760000D02*
X146685000Y-111760000D01*
X146685000Y-110490000D02*
X136525000Y-110490000D01*
X146685000Y-104140000D02*
X136525000Y-104140000D01*
%TO.C,J1*%
X95885000Y-111760000D02*
X106045000Y-111760000D01*
X106045000Y-104140000D02*
X95885000Y-104140000D01*
X106045000Y-111760000D02*
X106045000Y-104140000D01*
X95885000Y-104140000D02*
X95885000Y-111760000D01*
X106045000Y-110490000D02*
X95885000Y-110490000D01*
%TO.C,J11*%
X92710000Y-99060000D02*
X92710000Y-88900000D01*
X86360000Y-99060000D02*
X86360000Y-88900000D01*
X85090000Y-99060000D02*
X92710000Y-99060000D01*
X92710000Y-88900000D02*
X85090000Y-88900000D01*
X85090000Y-88900000D02*
X85090000Y-99060000D01*
%TO.C,J8*%
X182880000Y-78740000D02*
X182880000Y-88900000D01*
X184150000Y-78740000D02*
X176530000Y-78740000D01*
X176530000Y-88900000D02*
X184150000Y-88900000D01*
X184150000Y-88900000D02*
X184150000Y-78740000D01*
X176530000Y-78740000D02*
X176530000Y-88900000D01*
%TO.C,J7*%
X182880000Y-88900000D02*
X182880000Y-99060000D01*
X184150000Y-88900000D02*
X176530000Y-88900000D01*
X176530000Y-88900000D02*
X176530000Y-99060000D01*
X176530000Y-99060000D02*
X184150000Y-99060000D01*
X184150000Y-99060000D02*
X184150000Y-88900000D01*
%TO.C,R1*%
X163195000Y-84225000D02*
X163195000Y-84995000D01*
X164565000Y-91535000D02*
X164565000Y-84995000D01*
X161825000Y-91535000D02*
X164565000Y-91535000D01*
X161825000Y-84995000D02*
X161825000Y-91535000D01*
X163195000Y-92305000D02*
X163195000Y-91535000D01*
X164565000Y-84995000D02*
X161825000Y-84995000D01*
%TO.C,R2*%
X159485000Y-84995000D02*
X156745000Y-84995000D01*
X156745000Y-91535000D02*
X159485000Y-91535000D01*
X159485000Y-91535000D02*
X159485000Y-84995000D01*
X156745000Y-84995000D02*
X156745000Y-91535000D01*
X158115000Y-84225000D02*
X158115000Y-84995000D01*
X158115000Y-92305000D02*
X158115000Y-91535000D01*
%TO.C,D1*%
X171475000Y-110130000D02*
X171475000Y-107040000D01*
X171475000Y-107040170D02*
G75*
G03*
X165925000Y-108585462I-2560000J-1544830D01*
G01*
X165925000Y-108584538D02*
G75*
G03*
X171475000Y-110129830I2990000J-462D01*
G01*
X171415000Y-108585000D02*
G75*
G03*
X171415000Y-108585000I-2500000J0D01*
G01*
%TO.C,J6*%
X156845000Y-111760000D02*
X156845000Y-104140000D01*
X146685000Y-111760000D02*
X156845000Y-111760000D01*
X146685000Y-104140000D02*
X146685000Y-111760000D01*
X156845000Y-104140000D02*
X146685000Y-104140000D01*
X156845000Y-110490000D02*
X146685000Y-110490000D01*
%TO.C,D2*%
X164490000Y-110130000D02*
X164490000Y-107040000D01*
X164490000Y-107040170D02*
G75*
G03*
X158940000Y-108585462I-2560000J-1544830D01*
G01*
X158940000Y-108584538D02*
G75*
G03*
X164490000Y-110129830I2990000J-462D01*
G01*
X164430000Y-108585000D02*
G75*
G03*
X164430000Y-108585000I-2500000J0D01*
G01*
%TO.C,J4*%
X126365000Y-104140000D02*
X126365000Y-111760000D01*
X136525000Y-110490000D02*
X126365000Y-110490000D01*
X136525000Y-104140000D02*
X126365000Y-104140000D01*
X136525000Y-111760000D02*
X136525000Y-104140000D01*
X126365000Y-111760000D02*
X136525000Y-111760000D01*
%TD*%
M02*
