M48
; DRILL file {KiCad 7.0.1} date Sun Apr 16 18:01:41 2023
; FORMAT={-:-/ absolute / metric / decimal}
; #@! TF.CreationDate,2023-04-16T18:01:41+03:00
; #@! TF.GenerationSoftware,Kicad,Pcbnew,7.0.1
; #@! TF.FileFunction,MixedPlating,1,2
FMAT,2
METRIC
; #@! TA.AperFunction,Plated,PTH,ViaDrill
T1C0.400
; #@! TA.AperFunction,Plated,PTH,ViaDrill
T2C0.600
; #@! TA.AperFunction,Plated,PTH,ComponentDrill
T3C0.900
; #@! TA.AperFunction,Plated,PTH,ComponentDrill
T4C0.950
; #@! TA.AperFunction,Plated,PTH,ComponentDrill
T5C1.000
; #@! TA.AperFunction,Plated,PTH,ComponentDrill
T6C1.500
; #@! TA.AperFunction,Plated,PTH,ComponentDrill
T7C3.200
; #@! TA.AperFunction,Plated,PTH,ComponentDrill
T8C4.500
; #@! TA.AperFunction,NonPlated,NPTH,ComponentDrill
T9C1.000
; #@! TA.AperFunction,NonPlated,NPTH,ComponentDrill
T10C3.250
; #@! TA.AperFunction,NonPlated,NPTH,ComponentDrill
T11C4.500
%
G90
G05
T1
X40.432Y67.306
T2
X13.337Y78.615
X17.145Y78.867
X21.209Y67.564
X47.036Y13.204
X49.83Y67.306
X62.992Y54.61
T3
X148.59Y17.125
X151.13Y17.125
X155.575Y17.125
X158.115Y17.125
X185.42Y15.24
X185.42Y12.7
T4
X165.1Y76.835
X165.1Y74.295
X165.1Y71.755
X165.1Y69.215
X167.64Y75.565
X167.64Y73.025
X167.64Y70.485
X167.64Y67.945
T5
X6.05Y81.385
X6.05Y78.615
X6.05Y75.845
X6.05Y73.075
X6.05Y70.305
X6.05Y67.535
X6.05Y64.765
X6.05Y61.995
X6.05Y34.295
X6.05Y31.525
X8.89Y41.22
X25.4Y81.485
X25.4Y78.715
X25.4Y75.945
X25.4Y73.175
X25.4Y70.405
X25.4Y67.635
X25.4Y64.865
X25.4Y34.395
X25.4Y31.625
X28.24Y41.32
X137.16Y22.86
X137.16Y20.32
X137.16Y17.78
X139.7Y22.86
X139.7Y20.32
X139.7Y17.78
X165.085Y15.22
X165.085Y12.68
X167.625Y15.22
X167.625Y12.68
X169.81Y42.55
X169.81Y39.78
X169.81Y37.01
X169.81Y34.24
X169.81Y31.47
X170.165Y15.22
X170.165Y12.68
X172.65Y32.855
T6
X15.24Y105.41
X20.32Y105.41
X24.13Y5.33
X25.4Y105.41
X29.21Y5.33
X30.48Y105.41
X34.29Y5.33
X35.56Y105.41
X39.37Y5.33
X40.64Y105.41
X43.18Y85.09
X43.18Y80.01
X43.18Y74.93
X43.18Y69.85
X43.18Y64.77
X43.18Y59.69
X43.18Y54.61
X43.18Y49.53
X43.18Y44.45
X43.18Y39.37
X43.18Y34.29
X43.18Y29.21
X44.45Y5.33
X49.53Y5.33
X54.61Y5.33
X59.69Y5.33
X64.77Y5.33
X69.85Y85.09
X69.85Y80.01
X69.85Y74.93
X69.85Y69.85
X69.85Y64.77
X69.85Y59.69
X69.85Y54.61
X69.85Y49.53
X69.85Y44.45
X69.85Y39.37
X69.85Y34.29
X69.85Y29.21
X69.85Y5.33
X74.93Y5.33
X80.01Y5.33
X85.09Y5.33
X94.615Y85.09
X94.615Y80.01
X94.615Y74.93
X94.615Y69.85
X94.615Y64.77
X94.615Y59.69
X94.615Y54.61
X94.615Y49.53
X94.615Y44.45
X94.615Y39.37
X94.615Y34.29
X94.615Y29.21
X104.14Y5.33
X106.68Y105.41
X109.22Y5.33
X111.76Y105.41
X114.3Y5.33
X116.84Y105.41
X119.38Y5.33
X120.015Y85.09
X120.015Y80.01
X120.015Y74.93
X120.015Y69.85
X120.015Y64.77
X120.015Y59.69
X120.015Y54.61
X120.015Y49.53
X120.015Y44.45
X120.015Y39.37
X120.015Y34.29
X120.015Y29.21
X121.92Y105.41
X124.46Y5.33
X127.0Y105.41
X129.54Y5.33
X132.08Y105.41
X134.62Y5.33
X137.16Y105.41
X139.7Y5.33
X142.24Y105.41
X144.78Y5.33
X146.05Y85.09
X146.05Y80.01
X146.05Y74.93
X146.05Y69.85
X146.05Y64.77
X146.05Y59.69
X146.05Y54.61
X146.05Y49.53
X146.05Y44.45
X146.05Y39.37
X146.05Y34.29
X146.05Y29.21
X149.86Y5.33
X154.94Y5.33
X160.02Y5.33
X165.1Y5.33
X170.18Y5.33
X175.26Y5.33
X185.42Y90.17
X185.42Y85.09
X185.42Y80.01
X185.42Y74.93
X185.42Y69.85
X185.42Y64.77
X185.42Y59.69
X185.42Y54.61
X185.42Y49.53
X185.42Y44.45
X185.42Y39.37
X185.42Y34.29
X185.42Y29.21
X185.42Y24.13
T7
X7.47Y88.205
X7.47Y24.705
X26.82Y88.305
X26.82Y24.805
X171.23Y49.51
X171.23Y24.51
T8
X156.0Y105.0
T9
X6.05Y59.225
X6.05Y56.455
X6.05Y53.685
X6.05Y50.915
X6.05Y48.145
X6.05Y45.375
X6.05Y42.605
X6.05Y39.835
X6.05Y37.065
X8.89Y80.0
X8.89Y77.23
X8.89Y74.46
X8.89Y71.69
X8.89Y68.92
X8.89Y66.15
X8.89Y63.38
X8.89Y60.61
X8.89Y57.84
X8.89Y55.07
X8.89Y52.3
X8.89Y49.53
X8.89Y46.76
X8.89Y43.99
X8.89Y38.45
X8.89Y35.68
X8.89Y32.91
X25.4Y62.095
X25.4Y59.325
X25.4Y56.555
X25.4Y53.785
X25.4Y51.015
X25.4Y48.245
X25.4Y45.475
X25.4Y42.705
X25.4Y39.935
X25.4Y37.165
X28.24Y80.1
X28.24Y77.33
X28.24Y74.56
X28.24Y71.79
X28.24Y69.02
X28.24Y66.25
X28.24Y63.48
X28.24Y60.71
X28.24Y57.94
X28.24Y55.17
X28.24Y52.4
X28.24Y49.63
X28.24Y46.86
X28.24Y44.09
X28.24Y38.55
X28.24Y35.78
X28.24Y33.01
X172.65Y41.165
X172.65Y38.395
X172.65Y35.625
T10
X173.99Y78.105
X173.99Y66.675
T11
X5.0Y105.0
X5.0Y5.0
X95.0Y105.0
X95.0Y5.0
X185.0Y105.0
X185.0Y5.0
T0
M30
