%TF.GenerationSoftware,KiCad,Pcbnew,7.0.1*%
%TF.CreationDate,2023-04-16T18:01:42+03:00*%
%TF.ProjectId,maho-io,6d61686f-2d69-46f2-9e6b-696361645f70,rev?*%
%TF.SameCoordinates,PX44c0190PY8a4fb70*%
%TF.FileFunction,Drillmap*%
%TF.FilePolarity,Positive*%
%FSLAX45Y45*%
G04 Gerber Fmt 4.5, Leading zero omitted, Abs format (unit mm)*
G04 Created by KiCad (PCBNEW 7.0.1) date 2023-04-16 18:01:42*
%MOMM*%
%LPD*%
G01*
G04 APERTURE LIST*
%ADD10C,0.100000*%
%ADD11C,0.200000*%
%ADD12C,0.040000*%
%ADD13C,0.060000*%
%ADD14C,0.090000*%
%ADD15C,0.095000*%
%ADD16C,0.150000*%
%ADD17C,0.320000*%
%ADD18C,0.450000*%
%ADD19C,0.325000*%
G04 APERTURE END LIST*
D10*
X0Y11000000D02*
X19000000Y11000000D01*
X19000000Y0D01*
X0Y0D01*
X0Y11000000D01*
D11*
D12*
X4023200Y6750600D02*
X4063200Y6710600D01*
X4063200Y6750600D02*
X4023200Y6710600D01*
D13*
X1363700Y7861500D02*
G75*
G03*
X1363700Y7861500I-30000J0D01*
G01*
X1744500Y7886700D02*
G75*
G03*
X1744500Y7886700I-30000J0D01*
G01*
X2150900Y6756400D02*
G75*
G03*
X2150900Y6756400I-30000J0D01*
G01*
X4733600Y1320400D02*
G75*
G03*
X4733600Y1320400I-30000J0D01*
G01*
X5013000Y6730600D02*
G75*
G03*
X5013000Y6730600I-30000J0D01*
G01*
X6329200Y5461000D02*
G75*
G03*
X6329200Y5461000I-30000J0D01*
G01*
D14*
X14859000Y1757500D02*
X14859000Y1667500D01*
X14814000Y1712500D02*
X14904000Y1712500D01*
X15113000Y1757500D02*
X15113000Y1667500D01*
X15068000Y1712500D02*
X15158000Y1712500D01*
X15557500Y1757500D02*
X15557500Y1667500D01*
X15512500Y1712500D02*
X15602500Y1712500D01*
X15811500Y1757500D02*
X15811500Y1667500D01*
X15766500Y1712500D02*
X15856500Y1712500D01*
X18542000Y1569000D02*
X18542000Y1479000D01*
X18497000Y1524000D02*
X18587000Y1524000D01*
X18542000Y1315000D02*
X18542000Y1225000D01*
X18497000Y1270000D02*
X18587000Y1270000D01*
D15*
X16543588Y7649912D02*
X16543588Y7717088D01*
X16476412Y7717088D01*
X16476412Y7649912D01*
X16543588Y7649912D01*
X16543588Y7395912D02*
X16543588Y7463088D01*
X16476412Y7463088D01*
X16476412Y7395912D01*
X16543588Y7395912D01*
X16543588Y7141912D02*
X16543588Y7209088D01*
X16476412Y7209088D01*
X16476412Y7141912D01*
X16543588Y7141912D01*
X16543588Y6887912D02*
X16543588Y6955088D01*
X16476412Y6955088D01*
X16476412Y6887912D01*
X16543588Y6887912D01*
X16797588Y7522912D02*
X16797588Y7590088D01*
X16730412Y7590088D01*
X16730412Y7522912D01*
X16797588Y7522912D01*
X16797588Y7268912D02*
X16797588Y7336088D01*
X16730412Y7336088D01*
X16730412Y7268912D01*
X16797588Y7268912D01*
X16797588Y7014912D02*
X16797588Y7082088D01*
X16730412Y7082088D01*
X16730412Y7014912D01*
X16797588Y7014912D01*
X16797588Y6760912D02*
X16797588Y6828088D01*
X16730412Y6828088D01*
X16730412Y6760912D01*
X16797588Y6760912D01*
D10*
X605000Y8088500D02*
X655000Y8138500D01*
X605000Y8188500D01*
X555000Y8138500D01*
X605000Y8088500D01*
X605000Y7811500D02*
X655000Y7861500D01*
X605000Y7911500D01*
X555000Y7861500D01*
X605000Y7811500D01*
X605000Y7534500D02*
X655000Y7584500D01*
X605000Y7634500D01*
X555000Y7584500D01*
X605000Y7534500D01*
X605000Y7257500D02*
X655000Y7307500D01*
X605000Y7357500D01*
X555000Y7307500D01*
X605000Y7257500D01*
X605000Y6980500D02*
X655000Y7030500D01*
X605000Y7080500D01*
X555000Y7030500D01*
X605000Y6980500D01*
X605000Y6703500D02*
X655000Y6753500D01*
X605000Y6803500D01*
X555000Y6753500D01*
X605000Y6703500D01*
X605000Y6426500D02*
X655000Y6476500D01*
X605000Y6526500D01*
X555000Y6476500D01*
X605000Y6426500D01*
X605000Y6149500D02*
X655000Y6199500D01*
X605000Y6249500D01*
X555000Y6199500D01*
X605000Y6149500D01*
X605000Y3379500D02*
X655000Y3429500D01*
X605000Y3479500D01*
X555000Y3429500D01*
X605000Y3379500D01*
X605000Y3102500D02*
X655000Y3152500D01*
X605000Y3202500D01*
X555000Y3152500D01*
X605000Y3102500D01*
X889000Y4072000D02*
X939000Y4122000D01*
X889000Y4172000D01*
X839000Y4122000D01*
X889000Y4072000D01*
X2540000Y8098500D02*
X2590000Y8148500D01*
X2540000Y8198500D01*
X2490000Y8148500D01*
X2540000Y8098500D01*
X2540000Y7821500D02*
X2590000Y7871500D01*
X2540000Y7921500D01*
X2490000Y7871500D01*
X2540000Y7821500D01*
X2540000Y7544500D02*
X2590000Y7594500D01*
X2540000Y7644500D01*
X2490000Y7594500D01*
X2540000Y7544500D01*
X2540000Y7267500D02*
X2590000Y7317500D01*
X2540000Y7367500D01*
X2490000Y7317500D01*
X2540000Y7267500D01*
X2540000Y6990500D02*
X2590000Y7040500D01*
X2540000Y7090500D01*
X2490000Y7040500D01*
X2540000Y6990500D01*
X2540000Y6713500D02*
X2590000Y6763500D01*
X2540000Y6813500D01*
X2490000Y6763500D01*
X2540000Y6713500D01*
X2540000Y6436500D02*
X2590000Y6486500D01*
X2540000Y6536500D01*
X2490000Y6486500D01*
X2540000Y6436500D01*
X2540000Y3389500D02*
X2590000Y3439500D01*
X2540000Y3489500D01*
X2490000Y3439500D01*
X2540000Y3389500D01*
X2540000Y3112500D02*
X2590000Y3162500D01*
X2540000Y3212500D01*
X2490000Y3162500D01*
X2540000Y3112500D01*
X2824000Y4082000D02*
X2874000Y4132000D01*
X2824000Y4182000D01*
X2774000Y4132000D01*
X2824000Y4082000D01*
X13716000Y2236000D02*
X13766000Y2286000D01*
X13716000Y2336000D01*
X13666000Y2286000D01*
X13716000Y2236000D01*
X13716000Y1982000D02*
X13766000Y2032000D01*
X13716000Y2082000D01*
X13666000Y2032000D01*
X13716000Y1982000D01*
X13716000Y1728000D02*
X13766000Y1778000D01*
X13716000Y1828000D01*
X13666000Y1778000D01*
X13716000Y1728000D01*
X13970000Y2236000D02*
X14020000Y2286000D01*
X13970000Y2336000D01*
X13920000Y2286000D01*
X13970000Y2236000D01*
X13970000Y1982000D02*
X14020000Y2032000D01*
X13970000Y2082000D01*
X13920000Y2032000D01*
X13970000Y1982000D01*
X13970000Y1728000D02*
X14020000Y1778000D01*
X13970000Y1828000D01*
X13920000Y1778000D01*
X13970000Y1728000D01*
X16508500Y1472000D02*
X16558500Y1522000D01*
X16508500Y1572000D01*
X16458500Y1522000D01*
X16508500Y1472000D01*
X16508500Y1218000D02*
X16558500Y1268000D01*
X16508500Y1318000D01*
X16458500Y1268000D01*
X16508500Y1218000D01*
X16762500Y1472000D02*
X16812500Y1522000D01*
X16762500Y1572000D01*
X16712500Y1522000D01*
X16762500Y1472000D01*
X16762500Y1218000D02*
X16812500Y1268000D01*
X16762500Y1318000D01*
X16712500Y1268000D01*
X16762500Y1218000D01*
X16980967Y4205000D02*
X17030967Y4255000D01*
X16980967Y4305000D01*
X16930967Y4255000D01*
X16980967Y4205000D01*
X16980967Y3928000D02*
X17030967Y3978000D01*
X16980967Y4028000D01*
X16930967Y3978000D01*
X16980967Y3928000D01*
X16980967Y3651000D02*
X17030967Y3701000D01*
X16980967Y3751000D01*
X16930967Y3701000D01*
X16980967Y3651000D01*
X16980967Y3374000D02*
X17030967Y3424000D01*
X16980967Y3474000D01*
X16930967Y3424000D01*
X16980967Y3374000D01*
X16980967Y3097000D02*
X17030967Y3147000D01*
X16980967Y3197000D01*
X16930967Y3147000D01*
X16980967Y3097000D01*
X17016500Y1472000D02*
X17066500Y1522000D01*
X17016500Y1572000D01*
X16966500Y1522000D01*
X17016500Y1472000D01*
X17016500Y1218000D02*
X17066500Y1268000D01*
X17016500Y1318000D01*
X16966500Y1268000D01*
X17016500Y1218000D01*
X17264967Y3235500D02*
X17314967Y3285500D01*
X17264967Y3335500D01*
X17214967Y3285500D01*
X17264967Y3235500D01*
D16*
X1449000Y10616000D02*
X1599000Y10466000D01*
X1599000Y10616000D02*
X1449000Y10466000D01*
X1599000Y10541000D02*
G75*
G03*
X1599000Y10541000I-75000J0D01*
G01*
X1957000Y10616000D02*
X2107000Y10466000D01*
X2107000Y10616000D02*
X1957000Y10466000D01*
X2107000Y10541000D02*
G75*
G03*
X2107000Y10541000I-75000J0D01*
G01*
X2338000Y608000D02*
X2488000Y458000D01*
X2488000Y608000D02*
X2338000Y458000D01*
X2488000Y533000D02*
G75*
G03*
X2488000Y533000I-75000J0D01*
G01*
X2465000Y10616000D02*
X2615000Y10466000D01*
X2615000Y10616000D02*
X2465000Y10466000D01*
X2615000Y10541000D02*
G75*
G03*
X2615000Y10541000I-75000J0D01*
G01*
X2846000Y608000D02*
X2996000Y458000D01*
X2996000Y608000D02*
X2846000Y458000D01*
X2996000Y533000D02*
G75*
G03*
X2996000Y533000I-75000J0D01*
G01*
X2973000Y10616000D02*
X3123000Y10466000D01*
X3123000Y10616000D02*
X2973000Y10466000D01*
X3123000Y10541000D02*
G75*
G03*
X3123000Y10541000I-75000J0D01*
G01*
X3354000Y608000D02*
X3504000Y458000D01*
X3504000Y608000D02*
X3354000Y458000D01*
X3504000Y533000D02*
G75*
G03*
X3504000Y533000I-75000J0D01*
G01*
X3481000Y10616000D02*
X3631000Y10466000D01*
X3631000Y10616000D02*
X3481000Y10466000D01*
X3631000Y10541000D02*
G75*
G03*
X3631000Y10541000I-75000J0D01*
G01*
X3862000Y608000D02*
X4012000Y458000D01*
X4012000Y608000D02*
X3862000Y458000D01*
X4012000Y533000D02*
G75*
G03*
X4012000Y533000I-75000J0D01*
G01*
X3989000Y10616000D02*
X4139000Y10466000D01*
X4139000Y10616000D02*
X3989000Y10466000D01*
X4139000Y10541000D02*
G75*
G03*
X4139000Y10541000I-75000J0D01*
G01*
X4243000Y8584000D02*
X4393000Y8434000D01*
X4393000Y8584000D02*
X4243000Y8434000D01*
X4393000Y8509000D02*
G75*
G03*
X4393000Y8509000I-75000J0D01*
G01*
X4243000Y8076000D02*
X4393000Y7926000D01*
X4393000Y8076000D02*
X4243000Y7926000D01*
X4393000Y8001000D02*
G75*
G03*
X4393000Y8001000I-75000J0D01*
G01*
X4243000Y7568000D02*
X4393000Y7418000D01*
X4393000Y7568000D02*
X4243000Y7418000D01*
X4393000Y7493000D02*
G75*
G03*
X4393000Y7493000I-75000J0D01*
G01*
X4243000Y7060000D02*
X4393000Y6910000D01*
X4393000Y7060000D02*
X4243000Y6910000D01*
X4393000Y6985000D02*
G75*
G03*
X4393000Y6985000I-75000J0D01*
G01*
X4243000Y6552000D02*
X4393000Y6402000D01*
X4393000Y6552000D02*
X4243000Y6402000D01*
X4393000Y6477000D02*
G75*
G03*
X4393000Y6477000I-75000J0D01*
G01*
X4243000Y6044000D02*
X4393000Y5894000D01*
X4393000Y6044000D02*
X4243000Y5894000D01*
X4393000Y5969000D02*
G75*
G03*
X4393000Y5969000I-75000J0D01*
G01*
X4243000Y5536000D02*
X4393000Y5386000D01*
X4393000Y5536000D02*
X4243000Y5386000D01*
X4393000Y5461000D02*
G75*
G03*
X4393000Y5461000I-75000J0D01*
G01*
X4243000Y5028000D02*
X4393000Y4878000D01*
X4393000Y5028000D02*
X4243000Y4878000D01*
X4393000Y4953000D02*
G75*
G03*
X4393000Y4953000I-75000J0D01*
G01*
X4243000Y4520000D02*
X4393000Y4370000D01*
X4393000Y4520000D02*
X4243000Y4370000D01*
X4393000Y4445000D02*
G75*
G03*
X4393000Y4445000I-75000J0D01*
G01*
X4243000Y4012000D02*
X4393000Y3862000D01*
X4393000Y4012000D02*
X4243000Y3862000D01*
X4393000Y3937000D02*
G75*
G03*
X4393000Y3937000I-75000J0D01*
G01*
X4243000Y3504000D02*
X4393000Y3354000D01*
X4393000Y3504000D02*
X4243000Y3354000D01*
X4393000Y3429000D02*
G75*
G03*
X4393000Y3429000I-75000J0D01*
G01*
X4243000Y2996000D02*
X4393000Y2846000D01*
X4393000Y2996000D02*
X4243000Y2846000D01*
X4393000Y2921000D02*
G75*
G03*
X4393000Y2921000I-75000J0D01*
G01*
X4370000Y608000D02*
X4520000Y458000D01*
X4520000Y608000D02*
X4370000Y458000D01*
X4520000Y533000D02*
G75*
G03*
X4520000Y533000I-75000J0D01*
G01*
X4878000Y608000D02*
X5028000Y458000D01*
X5028000Y608000D02*
X4878000Y458000D01*
X5028000Y533000D02*
G75*
G03*
X5028000Y533000I-75000J0D01*
G01*
X5386000Y608000D02*
X5536000Y458000D01*
X5536000Y608000D02*
X5386000Y458000D01*
X5536000Y533000D02*
G75*
G03*
X5536000Y533000I-75000J0D01*
G01*
X5894000Y608000D02*
X6044000Y458000D01*
X6044000Y608000D02*
X5894000Y458000D01*
X6044000Y533000D02*
G75*
G03*
X6044000Y533000I-75000J0D01*
G01*
X6402000Y608000D02*
X6552000Y458000D01*
X6552000Y608000D02*
X6402000Y458000D01*
X6552000Y533000D02*
G75*
G03*
X6552000Y533000I-75000J0D01*
G01*
X6910000Y8584000D02*
X7060000Y8434000D01*
X7060000Y8584000D02*
X6910000Y8434000D01*
X7060000Y8509000D02*
G75*
G03*
X7060000Y8509000I-75000J0D01*
G01*
X6910000Y8076000D02*
X7060000Y7926000D01*
X7060000Y8076000D02*
X6910000Y7926000D01*
X7060000Y8001000D02*
G75*
G03*
X7060000Y8001000I-75000J0D01*
G01*
X6910000Y7568000D02*
X7060000Y7418000D01*
X7060000Y7568000D02*
X6910000Y7418000D01*
X7060000Y7493000D02*
G75*
G03*
X7060000Y7493000I-75000J0D01*
G01*
X6910000Y7060000D02*
X7060000Y6910000D01*
X7060000Y7060000D02*
X6910000Y6910000D01*
X7060000Y6985000D02*
G75*
G03*
X7060000Y6985000I-75000J0D01*
G01*
X6910000Y6552000D02*
X7060000Y6402000D01*
X7060000Y6552000D02*
X6910000Y6402000D01*
X7060000Y6477000D02*
G75*
G03*
X7060000Y6477000I-75000J0D01*
G01*
X6910000Y6044000D02*
X7060000Y5894000D01*
X7060000Y6044000D02*
X6910000Y5894000D01*
X7060000Y5969000D02*
G75*
G03*
X7060000Y5969000I-75000J0D01*
G01*
X6910000Y5536000D02*
X7060000Y5386000D01*
X7060000Y5536000D02*
X6910000Y5386000D01*
X7060000Y5461000D02*
G75*
G03*
X7060000Y5461000I-75000J0D01*
G01*
X6910000Y5028000D02*
X7060000Y4878000D01*
X7060000Y5028000D02*
X6910000Y4878000D01*
X7060000Y4953000D02*
G75*
G03*
X7060000Y4953000I-75000J0D01*
G01*
X6910000Y4520000D02*
X7060000Y4370000D01*
X7060000Y4520000D02*
X6910000Y4370000D01*
X7060000Y4445000D02*
G75*
G03*
X7060000Y4445000I-75000J0D01*
G01*
X6910000Y4012000D02*
X7060000Y3862000D01*
X7060000Y4012000D02*
X6910000Y3862000D01*
X7060000Y3937000D02*
G75*
G03*
X7060000Y3937000I-75000J0D01*
G01*
X6910000Y3504000D02*
X7060000Y3354000D01*
X7060000Y3504000D02*
X6910000Y3354000D01*
X7060000Y3429000D02*
G75*
G03*
X7060000Y3429000I-75000J0D01*
G01*
X6910000Y2996000D02*
X7060000Y2846000D01*
X7060000Y2996000D02*
X6910000Y2846000D01*
X7060000Y2921000D02*
G75*
G03*
X7060000Y2921000I-75000J0D01*
G01*
X6910000Y608000D02*
X7060000Y458000D01*
X7060000Y608000D02*
X6910000Y458000D01*
X7060000Y533000D02*
G75*
G03*
X7060000Y533000I-75000J0D01*
G01*
X7418000Y608000D02*
X7568000Y458000D01*
X7568000Y608000D02*
X7418000Y458000D01*
X7568000Y533000D02*
G75*
G03*
X7568000Y533000I-75000J0D01*
G01*
X7926000Y608000D02*
X8076000Y458000D01*
X8076000Y608000D02*
X7926000Y458000D01*
X8076000Y533000D02*
G75*
G03*
X8076000Y533000I-75000J0D01*
G01*
X8434000Y608000D02*
X8584000Y458000D01*
X8584000Y608000D02*
X8434000Y458000D01*
X8584000Y533000D02*
G75*
G03*
X8584000Y533000I-75000J0D01*
G01*
X9386500Y8584000D02*
X9536500Y8434000D01*
X9536500Y8584000D02*
X9386500Y8434000D01*
X9536500Y8509000D02*
G75*
G03*
X9536500Y8509000I-75000J0D01*
G01*
X9386500Y8076000D02*
X9536500Y7926000D01*
X9536500Y8076000D02*
X9386500Y7926000D01*
X9536500Y8001000D02*
G75*
G03*
X9536500Y8001000I-75000J0D01*
G01*
X9386500Y7568000D02*
X9536500Y7418000D01*
X9536500Y7568000D02*
X9386500Y7418000D01*
X9536500Y7493000D02*
G75*
G03*
X9536500Y7493000I-75000J0D01*
G01*
X9386500Y7060000D02*
X9536500Y6910000D01*
X9536500Y7060000D02*
X9386500Y6910000D01*
X9536500Y6985000D02*
G75*
G03*
X9536500Y6985000I-75000J0D01*
G01*
X9386500Y6552000D02*
X9536500Y6402000D01*
X9536500Y6552000D02*
X9386500Y6402000D01*
X9536500Y6477000D02*
G75*
G03*
X9536500Y6477000I-75000J0D01*
G01*
X9386500Y6044000D02*
X9536500Y5894000D01*
X9536500Y6044000D02*
X9386500Y5894000D01*
X9536500Y5969000D02*
G75*
G03*
X9536500Y5969000I-75000J0D01*
G01*
X9386500Y5536000D02*
X9536500Y5386000D01*
X9536500Y5536000D02*
X9386500Y5386000D01*
X9536500Y5461000D02*
G75*
G03*
X9536500Y5461000I-75000J0D01*
G01*
X9386500Y5028000D02*
X9536500Y4878000D01*
X9536500Y5028000D02*
X9386500Y4878000D01*
X9536500Y4953000D02*
G75*
G03*
X9536500Y4953000I-75000J0D01*
G01*
X9386500Y4520000D02*
X9536500Y4370000D01*
X9536500Y4520000D02*
X9386500Y4370000D01*
X9536500Y4445000D02*
G75*
G03*
X9536500Y4445000I-75000J0D01*
G01*
X9386500Y4012000D02*
X9536500Y3862000D01*
X9536500Y4012000D02*
X9386500Y3862000D01*
X9536500Y3937000D02*
G75*
G03*
X9536500Y3937000I-75000J0D01*
G01*
X9386500Y3504000D02*
X9536500Y3354000D01*
X9536500Y3504000D02*
X9386500Y3354000D01*
X9536500Y3429000D02*
G75*
G03*
X9536500Y3429000I-75000J0D01*
G01*
X9386500Y2996000D02*
X9536500Y2846000D01*
X9536500Y2996000D02*
X9386500Y2846000D01*
X9536500Y2921000D02*
G75*
G03*
X9536500Y2921000I-75000J0D01*
G01*
X10339000Y608000D02*
X10489000Y458000D01*
X10489000Y608000D02*
X10339000Y458000D01*
X10489000Y533000D02*
G75*
G03*
X10489000Y533000I-75000J0D01*
G01*
X10593000Y10616000D02*
X10743000Y10466000D01*
X10743000Y10616000D02*
X10593000Y10466000D01*
X10743000Y10541000D02*
G75*
G03*
X10743000Y10541000I-75000J0D01*
G01*
X10847000Y608000D02*
X10997000Y458000D01*
X10997000Y608000D02*
X10847000Y458000D01*
X10997000Y533000D02*
G75*
G03*
X10997000Y533000I-75000J0D01*
G01*
X11101000Y10616000D02*
X11251000Y10466000D01*
X11251000Y10616000D02*
X11101000Y10466000D01*
X11251000Y10541000D02*
G75*
G03*
X11251000Y10541000I-75000J0D01*
G01*
X11355000Y608000D02*
X11505000Y458000D01*
X11505000Y608000D02*
X11355000Y458000D01*
X11505000Y533000D02*
G75*
G03*
X11505000Y533000I-75000J0D01*
G01*
X11609000Y10616000D02*
X11759000Y10466000D01*
X11759000Y10616000D02*
X11609000Y10466000D01*
X11759000Y10541000D02*
G75*
G03*
X11759000Y10541000I-75000J0D01*
G01*
X11863000Y608000D02*
X12013000Y458000D01*
X12013000Y608000D02*
X11863000Y458000D01*
X12013000Y533000D02*
G75*
G03*
X12013000Y533000I-75000J0D01*
G01*
X11926500Y8584000D02*
X12076500Y8434000D01*
X12076500Y8584000D02*
X11926500Y8434000D01*
X12076500Y8509000D02*
G75*
G03*
X12076500Y8509000I-75000J0D01*
G01*
X11926500Y8076000D02*
X12076500Y7926000D01*
X12076500Y8076000D02*
X11926500Y7926000D01*
X12076500Y8001000D02*
G75*
G03*
X12076500Y8001000I-75000J0D01*
G01*
X11926500Y7568000D02*
X12076500Y7418000D01*
X12076500Y7568000D02*
X11926500Y7418000D01*
X12076500Y7493000D02*
G75*
G03*
X12076500Y7493000I-75000J0D01*
G01*
X11926500Y7060000D02*
X12076500Y6910000D01*
X12076500Y7060000D02*
X11926500Y6910000D01*
X12076500Y6985000D02*
G75*
G03*
X12076500Y6985000I-75000J0D01*
G01*
X11926500Y6552000D02*
X12076500Y6402000D01*
X12076500Y6552000D02*
X11926500Y6402000D01*
X12076500Y6477000D02*
G75*
G03*
X12076500Y6477000I-75000J0D01*
G01*
X11926500Y6044000D02*
X12076500Y5894000D01*
X12076500Y6044000D02*
X11926500Y5894000D01*
X12076500Y5969000D02*
G75*
G03*
X12076500Y5969000I-75000J0D01*
G01*
X11926500Y5536000D02*
X12076500Y5386000D01*
X12076500Y5536000D02*
X11926500Y5386000D01*
X12076500Y5461000D02*
G75*
G03*
X12076500Y5461000I-75000J0D01*
G01*
X11926500Y5028000D02*
X12076500Y4878000D01*
X12076500Y5028000D02*
X11926500Y4878000D01*
X12076500Y4953000D02*
G75*
G03*
X12076500Y4953000I-75000J0D01*
G01*
X11926500Y4520000D02*
X12076500Y4370000D01*
X12076500Y4520000D02*
X11926500Y4370000D01*
X12076500Y4445000D02*
G75*
G03*
X12076500Y4445000I-75000J0D01*
G01*
X11926500Y4012000D02*
X12076500Y3862000D01*
X12076500Y4012000D02*
X11926500Y3862000D01*
X12076500Y3937000D02*
G75*
G03*
X12076500Y3937000I-75000J0D01*
G01*
X11926500Y3504000D02*
X12076500Y3354000D01*
X12076500Y3504000D02*
X11926500Y3354000D01*
X12076500Y3429000D02*
G75*
G03*
X12076500Y3429000I-75000J0D01*
G01*
X11926500Y2996000D02*
X12076500Y2846000D01*
X12076500Y2996000D02*
X11926500Y2846000D01*
X12076500Y2921000D02*
G75*
G03*
X12076500Y2921000I-75000J0D01*
G01*
X12117000Y10616000D02*
X12267000Y10466000D01*
X12267000Y10616000D02*
X12117000Y10466000D01*
X12267000Y10541000D02*
G75*
G03*
X12267000Y10541000I-75000J0D01*
G01*
X12371000Y608000D02*
X12521000Y458000D01*
X12521000Y608000D02*
X12371000Y458000D01*
X12521000Y533000D02*
G75*
G03*
X12521000Y533000I-75000J0D01*
G01*
X12625000Y10616000D02*
X12775000Y10466000D01*
X12775000Y10616000D02*
X12625000Y10466000D01*
X12775000Y10541000D02*
G75*
G03*
X12775000Y10541000I-75000J0D01*
G01*
X12879000Y608000D02*
X13029000Y458000D01*
X13029000Y608000D02*
X12879000Y458000D01*
X13029000Y533000D02*
G75*
G03*
X13029000Y533000I-75000J0D01*
G01*
X13133000Y10616000D02*
X13283000Y10466000D01*
X13283000Y10616000D02*
X13133000Y10466000D01*
X13283000Y10541000D02*
G75*
G03*
X13283000Y10541000I-75000J0D01*
G01*
X13387000Y608000D02*
X13537000Y458000D01*
X13537000Y608000D02*
X13387000Y458000D01*
X13537000Y533000D02*
G75*
G03*
X13537000Y533000I-75000J0D01*
G01*
X13641000Y10616000D02*
X13791000Y10466000D01*
X13791000Y10616000D02*
X13641000Y10466000D01*
X13791000Y10541000D02*
G75*
G03*
X13791000Y10541000I-75000J0D01*
G01*
X13895000Y608000D02*
X14045000Y458000D01*
X14045000Y608000D02*
X13895000Y458000D01*
X14045000Y533000D02*
G75*
G03*
X14045000Y533000I-75000J0D01*
G01*
X14149000Y10616000D02*
X14299000Y10466000D01*
X14299000Y10616000D02*
X14149000Y10466000D01*
X14299000Y10541000D02*
G75*
G03*
X14299000Y10541000I-75000J0D01*
G01*
X14403000Y608000D02*
X14553000Y458000D01*
X14553000Y608000D02*
X14403000Y458000D01*
X14553000Y533000D02*
G75*
G03*
X14553000Y533000I-75000J0D01*
G01*
X14530000Y8584000D02*
X14680000Y8434000D01*
X14680000Y8584000D02*
X14530000Y8434000D01*
X14680000Y8509000D02*
G75*
G03*
X14680000Y8509000I-75000J0D01*
G01*
X14530000Y8076000D02*
X14680000Y7926000D01*
X14680000Y8076000D02*
X14530000Y7926000D01*
X14680000Y8001000D02*
G75*
G03*
X14680000Y8001000I-75000J0D01*
G01*
X14530000Y7568000D02*
X14680000Y7418000D01*
X14680000Y7568000D02*
X14530000Y7418000D01*
X14680000Y7493000D02*
G75*
G03*
X14680000Y7493000I-75000J0D01*
G01*
X14530000Y7060000D02*
X14680000Y6910000D01*
X14680000Y7060000D02*
X14530000Y6910000D01*
X14680000Y6985000D02*
G75*
G03*
X14680000Y6985000I-75000J0D01*
G01*
X14530000Y6552000D02*
X14680000Y6402000D01*
X14680000Y6552000D02*
X14530000Y6402000D01*
X14680000Y6477000D02*
G75*
G03*
X14680000Y6477000I-75000J0D01*
G01*
X14530000Y6044000D02*
X14680000Y5894000D01*
X14680000Y6044000D02*
X14530000Y5894000D01*
X14680000Y5969000D02*
G75*
G03*
X14680000Y5969000I-75000J0D01*
G01*
X14530000Y5536000D02*
X14680000Y5386000D01*
X14680000Y5536000D02*
X14530000Y5386000D01*
X14680000Y5461000D02*
G75*
G03*
X14680000Y5461000I-75000J0D01*
G01*
X14530000Y5028000D02*
X14680000Y4878000D01*
X14680000Y5028000D02*
X14530000Y4878000D01*
X14680000Y4953000D02*
G75*
G03*
X14680000Y4953000I-75000J0D01*
G01*
X14530000Y4520000D02*
X14680000Y4370000D01*
X14680000Y4520000D02*
X14530000Y4370000D01*
X14680000Y4445000D02*
G75*
G03*
X14680000Y4445000I-75000J0D01*
G01*
X14530000Y4012000D02*
X14680000Y3862000D01*
X14680000Y4012000D02*
X14530000Y3862000D01*
X14680000Y3937000D02*
G75*
G03*
X14680000Y3937000I-75000J0D01*
G01*
X14530000Y3504000D02*
X14680000Y3354000D01*
X14680000Y3504000D02*
X14530000Y3354000D01*
X14680000Y3429000D02*
G75*
G03*
X14680000Y3429000I-75000J0D01*
G01*
X14530000Y2996000D02*
X14680000Y2846000D01*
X14680000Y2996000D02*
X14530000Y2846000D01*
X14680000Y2921000D02*
G75*
G03*
X14680000Y2921000I-75000J0D01*
G01*
X14911000Y608000D02*
X15061000Y458000D01*
X15061000Y608000D02*
X14911000Y458000D01*
X15061000Y533000D02*
G75*
G03*
X15061000Y533000I-75000J0D01*
G01*
X15419000Y608000D02*
X15569000Y458000D01*
X15569000Y608000D02*
X15419000Y458000D01*
X15569000Y533000D02*
G75*
G03*
X15569000Y533000I-75000J0D01*
G01*
X15927000Y608000D02*
X16077000Y458000D01*
X16077000Y608000D02*
X15927000Y458000D01*
X16077000Y533000D02*
G75*
G03*
X16077000Y533000I-75000J0D01*
G01*
X16435000Y608000D02*
X16585000Y458000D01*
X16585000Y608000D02*
X16435000Y458000D01*
X16585000Y533000D02*
G75*
G03*
X16585000Y533000I-75000J0D01*
G01*
X16943000Y608000D02*
X17093000Y458000D01*
X17093000Y608000D02*
X16943000Y458000D01*
X17093000Y533000D02*
G75*
G03*
X17093000Y533000I-75000J0D01*
G01*
X17451000Y608000D02*
X17601000Y458000D01*
X17601000Y608000D02*
X17451000Y458000D01*
X17601000Y533000D02*
G75*
G03*
X17601000Y533000I-75000J0D01*
G01*
X18467000Y9092000D02*
X18617000Y8942000D01*
X18617000Y9092000D02*
X18467000Y8942000D01*
X18617000Y9017000D02*
G75*
G03*
X18617000Y9017000I-75000J0D01*
G01*
X18467000Y8584000D02*
X18617000Y8434000D01*
X18617000Y8584000D02*
X18467000Y8434000D01*
X18617000Y8509000D02*
G75*
G03*
X18617000Y8509000I-75000J0D01*
G01*
X18467000Y8076000D02*
X18617000Y7926000D01*
X18617000Y8076000D02*
X18467000Y7926000D01*
X18617000Y8001000D02*
G75*
G03*
X18617000Y8001000I-75000J0D01*
G01*
X18467000Y7568000D02*
X18617000Y7418000D01*
X18617000Y7568000D02*
X18467000Y7418000D01*
X18617000Y7493000D02*
G75*
G03*
X18617000Y7493000I-75000J0D01*
G01*
X18467000Y7060000D02*
X18617000Y6910000D01*
X18617000Y7060000D02*
X18467000Y6910000D01*
X18617000Y6985000D02*
G75*
G03*
X18617000Y6985000I-75000J0D01*
G01*
X18467000Y6552000D02*
X18617000Y6402000D01*
X18617000Y6552000D02*
X18467000Y6402000D01*
X18617000Y6477000D02*
G75*
G03*
X18617000Y6477000I-75000J0D01*
G01*
X18467000Y6044000D02*
X18617000Y5894000D01*
X18617000Y6044000D02*
X18467000Y5894000D01*
X18617000Y5969000D02*
G75*
G03*
X18617000Y5969000I-75000J0D01*
G01*
X18467000Y5536000D02*
X18617000Y5386000D01*
X18617000Y5536000D02*
X18467000Y5386000D01*
X18617000Y5461000D02*
G75*
G03*
X18617000Y5461000I-75000J0D01*
G01*
X18467000Y5028000D02*
X18617000Y4878000D01*
X18617000Y5028000D02*
X18467000Y4878000D01*
X18617000Y4953000D02*
G75*
G03*
X18617000Y4953000I-75000J0D01*
G01*
X18467000Y4520000D02*
X18617000Y4370000D01*
X18617000Y4520000D02*
X18467000Y4370000D01*
X18617000Y4445000D02*
G75*
G03*
X18617000Y4445000I-75000J0D01*
G01*
X18467000Y4012000D02*
X18617000Y3862000D01*
X18617000Y4012000D02*
X18467000Y3862000D01*
X18617000Y3937000D02*
G75*
G03*
X18617000Y3937000I-75000J0D01*
G01*
X18467000Y3504000D02*
X18617000Y3354000D01*
X18617000Y3504000D02*
X18467000Y3354000D01*
X18617000Y3429000D02*
G75*
G03*
X18617000Y3429000I-75000J0D01*
G01*
X18467000Y2996000D02*
X18617000Y2846000D01*
X18617000Y2996000D02*
X18467000Y2846000D01*
X18617000Y2921000D02*
G75*
G03*
X18617000Y2921000I-75000J0D01*
G01*
X18467000Y2488000D02*
X18617000Y2338000D01*
X18617000Y2488000D02*
X18467000Y2338000D01*
X18617000Y2413000D02*
G75*
G03*
X18617000Y2413000I-75000J0D01*
G01*
D17*
X587000Y8980500D02*
X907000Y8660500D01*
X907000Y8980500D02*
X587000Y8660500D01*
X747000Y8980500D02*
X747000Y8660500D01*
X587000Y8820500D02*
X907000Y8820500D01*
X587000Y2630500D02*
X907000Y2310500D01*
X907000Y2630500D02*
X587000Y2310500D01*
X747000Y2630500D02*
X747000Y2310500D01*
X587000Y2470500D02*
X907000Y2470500D01*
X2522000Y8990500D02*
X2842000Y8670500D01*
X2842000Y8990500D02*
X2522000Y8670500D01*
X2682000Y8990500D02*
X2682000Y8670500D01*
X2522000Y8830500D02*
X2842000Y8830500D01*
X2522000Y2640500D02*
X2842000Y2320500D01*
X2842000Y2640500D02*
X2522000Y2320500D01*
X2682000Y2640500D02*
X2682000Y2320500D01*
X2522000Y2480500D02*
X2842000Y2480500D01*
X16962967Y5111000D02*
X17282967Y4791000D01*
X17282967Y5111000D02*
X16962967Y4791000D01*
X17122967Y5111000D02*
X17122967Y4791000D01*
X16962967Y4951000D02*
X17282967Y4951000D01*
X16962967Y2611000D02*
X17282967Y2291000D01*
X17282967Y2611000D02*
X16962967Y2291000D01*
X17122967Y2611000D02*
X17122967Y2291000D01*
X16962967Y2451000D02*
X17282967Y2451000D01*
D18*
X15375000Y10725000D02*
X15825000Y10275000D01*
X15825000Y10725000D02*
X15375000Y10275000D01*
X15759101Y10340899D02*
X15759101Y10659101D01*
X15440899Y10659101D01*
X15440899Y10340899D01*
X15759101Y10340899D01*
D10*
X555000Y5972500D02*
X655000Y5872500D01*
X655000Y5972500D02*
X555000Y5872500D01*
X605000Y5872500D02*
X655000Y5922500D01*
X605000Y5972500D01*
X555000Y5922500D01*
X605000Y5872500D01*
X555000Y5695500D02*
X655000Y5595500D01*
X655000Y5695500D02*
X555000Y5595500D01*
X605000Y5595500D02*
X655000Y5645500D01*
X605000Y5695500D01*
X555000Y5645500D01*
X605000Y5595500D01*
X555000Y5418500D02*
X655000Y5318500D01*
X655000Y5418500D02*
X555000Y5318500D01*
X605000Y5318500D02*
X655000Y5368500D01*
X605000Y5418500D01*
X555000Y5368500D01*
X605000Y5318500D01*
X555000Y5141500D02*
X655000Y5041500D01*
X655000Y5141500D02*
X555000Y5041500D01*
X605000Y5041500D02*
X655000Y5091500D01*
X605000Y5141500D01*
X555000Y5091500D01*
X605000Y5041500D01*
X555000Y4864500D02*
X655000Y4764500D01*
X655000Y4864500D02*
X555000Y4764500D01*
X605000Y4764500D02*
X655000Y4814500D01*
X605000Y4864500D01*
X555000Y4814500D01*
X605000Y4764500D01*
X555000Y4587500D02*
X655000Y4487500D01*
X655000Y4587500D02*
X555000Y4487500D01*
X605000Y4487500D02*
X655000Y4537500D01*
X605000Y4587500D01*
X555000Y4537500D01*
X605000Y4487500D01*
X555000Y4310500D02*
X655000Y4210500D01*
X655000Y4310500D02*
X555000Y4210500D01*
X605000Y4210500D02*
X655000Y4260500D01*
X605000Y4310500D01*
X555000Y4260500D01*
X605000Y4210500D01*
X555000Y4033500D02*
X655000Y3933500D01*
X655000Y4033500D02*
X555000Y3933500D01*
X605000Y3933500D02*
X655000Y3983500D01*
X605000Y4033500D01*
X555000Y3983500D01*
X605000Y3933500D01*
X555000Y3756500D02*
X655000Y3656500D01*
X655000Y3756500D02*
X555000Y3656500D01*
X605000Y3656500D02*
X655000Y3706500D01*
X605000Y3756500D01*
X555000Y3706500D01*
X605000Y3656500D01*
X839000Y8050000D02*
X939000Y7950000D01*
X939000Y8050000D02*
X839000Y7950000D01*
X889000Y7950000D02*
X939000Y8000000D01*
X889000Y8050000D01*
X839000Y8000000D01*
X889000Y7950000D01*
X839000Y7773000D02*
X939000Y7673000D01*
X939000Y7773000D02*
X839000Y7673000D01*
X889000Y7673000D02*
X939000Y7723000D01*
X889000Y7773000D01*
X839000Y7723000D01*
X889000Y7673000D01*
X839000Y7496000D02*
X939000Y7396000D01*
X939000Y7496000D02*
X839000Y7396000D01*
X889000Y7396000D02*
X939000Y7446000D01*
X889000Y7496000D01*
X839000Y7446000D01*
X889000Y7396000D01*
X839000Y7219000D02*
X939000Y7119000D01*
X939000Y7219000D02*
X839000Y7119000D01*
X889000Y7119000D02*
X939000Y7169000D01*
X889000Y7219000D01*
X839000Y7169000D01*
X889000Y7119000D01*
X839000Y6942000D02*
X939000Y6842000D01*
X939000Y6942000D02*
X839000Y6842000D01*
X889000Y6842000D02*
X939000Y6892000D01*
X889000Y6942000D01*
X839000Y6892000D01*
X889000Y6842000D01*
X839000Y6665000D02*
X939000Y6565000D01*
X939000Y6665000D02*
X839000Y6565000D01*
X889000Y6565000D02*
X939000Y6615000D01*
X889000Y6665000D01*
X839000Y6615000D01*
X889000Y6565000D01*
X839000Y6388000D02*
X939000Y6288000D01*
X939000Y6388000D02*
X839000Y6288000D01*
X889000Y6288000D02*
X939000Y6338000D01*
X889000Y6388000D01*
X839000Y6338000D01*
X889000Y6288000D01*
X839000Y6111000D02*
X939000Y6011000D01*
X939000Y6111000D02*
X839000Y6011000D01*
X889000Y6011000D02*
X939000Y6061000D01*
X889000Y6111000D01*
X839000Y6061000D01*
X889000Y6011000D01*
X839000Y5834000D02*
X939000Y5734000D01*
X939000Y5834000D02*
X839000Y5734000D01*
X889000Y5734000D02*
X939000Y5784000D01*
X889000Y5834000D01*
X839000Y5784000D01*
X889000Y5734000D01*
X839000Y5557000D02*
X939000Y5457000D01*
X939000Y5557000D02*
X839000Y5457000D01*
X889000Y5457000D02*
X939000Y5507000D01*
X889000Y5557000D01*
X839000Y5507000D01*
X889000Y5457000D01*
X839000Y5280000D02*
X939000Y5180000D01*
X939000Y5280000D02*
X839000Y5180000D01*
X889000Y5180000D02*
X939000Y5230000D01*
X889000Y5280000D01*
X839000Y5230000D01*
X889000Y5180000D01*
X839000Y5003000D02*
X939000Y4903000D01*
X939000Y5003000D02*
X839000Y4903000D01*
X889000Y4903000D02*
X939000Y4953000D01*
X889000Y5003000D01*
X839000Y4953000D01*
X889000Y4903000D01*
X839000Y4726000D02*
X939000Y4626000D01*
X939000Y4726000D02*
X839000Y4626000D01*
X889000Y4626000D02*
X939000Y4676000D01*
X889000Y4726000D01*
X839000Y4676000D01*
X889000Y4626000D01*
X839000Y4449000D02*
X939000Y4349000D01*
X939000Y4449000D02*
X839000Y4349000D01*
X889000Y4349000D02*
X939000Y4399000D01*
X889000Y4449000D01*
X839000Y4399000D01*
X889000Y4349000D01*
X839000Y3895000D02*
X939000Y3795000D01*
X939000Y3895000D02*
X839000Y3795000D01*
X889000Y3795000D02*
X939000Y3845000D01*
X889000Y3895000D01*
X839000Y3845000D01*
X889000Y3795000D01*
X839000Y3618000D02*
X939000Y3518000D01*
X939000Y3618000D02*
X839000Y3518000D01*
X889000Y3518000D02*
X939000Y3568000D01*
X889000Y3618000D01*
X839000Y3568000D01*
X889000Y3518000D01*
X839000Y3341000D02*
X939000Y3241000D01*
X939000Y3341000D02*
X839000Y3241000D01*
X889000Y3241000D02*
X939000Y3291000D01*
X889000Y3341000D01*
X839000Y3291000D01*
X889000Y3241000D01*
X2490000Y6259500D02*
X2590000Y6159500D01*
X2590000Y6259500D02*
X2490000Y6159500D01*
X2540000Y6159500D02*
X2590000Y6209500D01*
X2540000Y6259500D01*
X2490000Y6209500D01*
X2540000Y6159500D01*
X2490000Y5982500D02*
X2590000Y5882500D01*
X2590000Y5982500D02*
X2490000Y5882500D01*
X2540000Y5882500D02*
X2590000Y5932500D01*
X2540000Y5982500D01*
X2490000Y5932500D01*
X2540000Y5882500D01*
X2490000Y5705500D02*
X2590000Y5605500D01*
X2590000Y5705500D02*
X2490000Y5605500D01*
X2540000Y5605500D02*
X2590000Y5655500D01*
X2540000Y5705500D01*
X2490000Y5655500D01*
X2540000Y5605500D01*
X2490000Y5428500D02*
X2590000Y5328500D01*
X2590000Y5428500D02*
X2490000Y5328500D01*
X2540000Y5328500D02*
X2590000Y5378500D01*
X2540000Y5428500D01*
X2490000Y5378500D01*
X2540000Y5328500D01*
X2490000Y5151500D02*
X2590000Y5051500D01*
X2590000Y5151500D02*
X2490000Y5051500D01*
X2540000Y5051500D02*
X2590000Y5101500D01*
X2540000Y5151500D01*
X2490000Y5101500D01*
X2540000Y5051500D01*
X2490000Y4874500D02*
X2590000Y4774500D01*
X2590000Y4874500D02*
X2490000Y4774500D01*
X2540000Y4774500D02*
X2590000Y4824500D01*
X2540000Y4874500D01*
X2490000Y4824500D01*
X2540000Y4774500D01*
X2490000Y4597500D02*
X2590000Y4497500D01*
X2590000Y4597500D02*
X2490000Y4497500D01*
X2540000Y4497500D02*
X2590000Y4547500D01*
X2540000Y4597500D01*
X2490000Y4547500D01*
X2540000Y4497500D01*
X2490000Y4320500D02*
X2590000Y4220500D01*
X2590000Y4320500D02*
X2490000Y4220500D01*
X2540000Y4220500D02*
X2590000Y4270500D01*
X2540000Y4320500D01*
X2490000Y4270500D01*
X2540000Y4220500D01*
X2490000Y4043500D02*
X2590000Y3943500D01*
X2590000Y4043500D02*
X2490000Y3943500D01*
X2540000Y3943500D02*
X2590000Y3993500D01*
X2540000Y4043500D01*
X2490000Y3993500D01*
X2540000Y3943500D01*
X2490000Y3766500D02*
X2590000Y3666500D01*
X2590000Y3766500D02*
X2490000Y3666500D01*
X2540000Y3666500D02*
X2590000Y3716500D01*
X2540000Y3766500D01*
X2490000Y3716500D01*
X2540000Y3666500D01*
X2774000Y8060000D02*
X2874000Y7960000D01*
X2874000Y8060000D02*
X2774000Y7960000D01*
X2824000Y7960000D02*
X2874000Y8010000D01*
X2824000Y8060000D01*
X2774000Y8010000D01*
X2824000Y7960000D01*
X2774000Y7783000D02*
X2874000Y7683000D01*
X2874000Y7783000D02*
X2774000Y7683000D01*
X2824000Y7683000D02*
X2874000Y7733000D01*
X2824000Y7783000D01*
X2774000Y7733000D01*
X2824000Y7683000D01*
X2774000Y7506000D02*
X2874000Y7406000D01*
X2874000Y7506000D02*
X2774000Y7406000D01*
X2824000Y7406000D02*
X2874000Y7456000D01*
X2824000Y7506000D01*
X2774000Y7456000D01*
X2824000Y7406000D01*
X2774000Y7229000D02*
X2874000Y7129000D01*
X2874000Y7229000D02*
X2774000Y7129000D01*
X2824000Y7129000D02*
X2874000Y7179000D01*
X2824000Y7229000D01*
X2774000Y7179000D01*
X2824000Y7129000D01*
X2774000Y6952000D02*
X2874000Y6852000D01*
X2874000Y6952000D02*
X2774000Y6852000D01*
X2824000Y6852000D02*
X2874000Y6902000D01*
X2824000Y6952000D01*
X2774000Y6902000D01*
X2824000Y6852000D01*
X2774000Y6675000D02*
X2874000Y6575000D01*
X2874000Y6675000D02*
X2774000Y6575000D01*
X2824000Y6575000D02*
X2874000Y6625000D01*
X2824000Y6675000D01*
X2774000Y6625000D01*
X2824000Y6575000D01*
X2774000Y6398000D02*
X2874000Y6298000D01*
X2874000Y6398000D02*
X2774000Y6298000D01*
X2824000Y6298000D02*
X2874000Y6348000D01*
X2824000Y6398000D01*
X2774000Y6348000D01*
X2824000Y6298000D01*
X2774000Y6121000D02*
X2874000Y6021000D01*
X2874000Y6121000D02*
X2774000Y6021000D01*
X2824000Y6021000D02*
X2874000Y6071000D01*
X2824000Y6121000D01*
X2774000Y6071000D01*
X2824000Y6021000D01*
X2774000Y5844000D02*
X2874000Y5744000D01*
X2874000Y5844000D02*
X2774000Y5744000D01*
X2824000Y5744000D02*
X2874000Y5794000D01*
X2824000Y5844000D01*
X2774000Y5794000D01*
X2824000Y5744000D01*
X2774000Y5567000D02*
X2874000Y5467000D01*
X2874000Y5567000D02*
X2774000Y5467000D01*
X2824000Y5467000D02*
X2874000Y5517000D01*
X2824000Y5567000D01*
X2774000Y5517000D01*
X2824000Y5467000D01*
X2774000Y5290000D02*
X2874000Y5190000D01*
X2874000Y5290000D02*
X2774000Y5190000D01*
X2824000Y5190000D02*
X2874000Y5240000D01*
X2824000Y5290000D01*
X2774000Y5240000D01*
X2824000Y5190000D01*
X2774000Y5013000D02*
X2874000Y4913000D01*
X2874000Y5013000D02*
X2774000Y4913000D01*
X2824000Y4913000D02*
X2874000Y4963000D01*
X2824000Y5013000D01*
X2774000Y4963000D01*
X2824000Y4913000D01*
X2774000Y4736000D02*
X2874000Y4636000D01*
X2874000Y4736000D02*
X2774000Y4636000D01*
X2824000Y4636000D02*
X2874000Y4686000D01*
X2824000Y4736000D01*
X2774000Y4686000D01*
X2824000Y4636000D01*
X2774000Y4459000D02*
X2874000Y4359000D01*
X2874000Y4459000D02*
X2774000Y4359000D01*
X2824000Y4359000D02*
X2874000Y4409000D01*
X2824000Y4459000D01*
X2774000Y4409000D01*
X2824000Y4359000D01*
X2774000Y3905000D02*
X2874000Y3805000D01*
X2874000Y3905000D02*
X2774000Y3805000D01*
X2824000Y3805000D02*
X2874000Y3855000D01*
X2824000Y3905000D01*
X2774000Y3855000D01*
X2824000Y3805000D01*
X2774000Y3628000D02*
X2874000Y3528000D01*
X2874000Y3628000D02*
X2774000Y3528000D01*
X2824000Y3528000D02*
X2874000Y3578000D01*
X2824000Y3628000D01*
X2774000Y3578000D01*
X2824000Y3528000D01*
X2774000Y3351000D02*
X2874000Y3251000D01*
X2874000Y3351000D02*
X2774000Y3251000D01*
X2824000Y3251000D02*
X2874000Y3301000D01*
X2824000Y3351000D01*
X2774000Y3301000D01*
X2824000Y3251000D01*
X17214967Y4166500D02*
X17314967Y4066500D01*
X17314967Y4166500D02*
X17214967Y4066500D01*
X17264967Y4066500D02*
X17314967Y4116500D01*
X17264967Y4166500D01*
X17214967Y4116500D01*
X17264967Y4066500D01*
X17214967Y3889500D02*
X17314967Y3789500D01*
X17314967Y3889500D02*
X17214967Y3789500D01*
X17264967Y3789500D02*
X17314967Y3839500D01*
X17264967Y3889500D01*
X17214967Y3839500D01*
X17264967Y3789500D01*
X17214967Y3612500D02*
X17314967Y3512500D01*
X17314967Y3612500D02*
X17214967Y3512500D01*
X17264967Y3512500D02*
X17314967Y3562500D01*
X17264967Y3612500D01*
X17214967Y3562500D01*
X17264967Y3512500D01*
D19*
X17399000Y7973000D02*
X17399000Y7648000D01*
X17236500Y7810500D02*
X17561500Y7810500D01*
X17561500Y7810500D02*
G75*
G03*
X17561500Y7810500I-162500J0D01*
G01*
X17399000Y6830000D02*
X17399000Y6505000D01*
X17236500Y6667500D02*
X17561500Y6667500D01*
X17561500Y6667500D02*
G75*
G03*
X17561500Y6667500I-162500J0D01*
G01*
D18*
X659101Y10340899D02*
X659101Y10659101D01*
X340899Y10659101D01*
X340899Y10340899D01*
X659101Y10340899D01*
X725000Y10500000D02*
G75*
G03*
X725000Y10500000I-225000J0D01*
G01*
X659101Y340899D02*
X659101Y659101D01*
X340899Y659101D01*
X340899Y340899D01*
X659101Y340899D01*
X725000Y500000D02*
G75*
G03*
X725000Y500000I-225000J0D01*
G01*
X9659101Y10340899D02*
X9659101Y10659101D01*
X9340899Y10659101D01*
X9340899Y10340899D01*
X9659101Y10340899D01*
X9725000Y10500000D02*
G75*
G03*
X9725000Y10500000I-225000J0D01*
G01*
X9659101Y340899D02*
X9659101Y659101D01*
X9340899Y659101D01*
X9340899Y340899D01*
X9659101Y340899D01*
X9725000Y500000D02*
G75*
G03*
X9725000Y500000I-225000J0D01*
G01*
X18659101Y10340899D02*
X18659101Y10659101D01*
X18340899Y10659101D01*
X18340899Y10340899D01*
X18659101Y10340899D01*
X18725000Y10500000D02*
G75*
G03*
X18725000Y10500000I-225000J0D01*
G01*
X18659101Y340899D02*
X18659101Y659101D01*
X18340899Y659101D01*
X18340899Y340899D01*
X18659101Y340899D01*
X18725000Y500000D02*
G75*
G03*
X18725000Y500000I-225000J0D01*
G01*
D11*
X242619Y-317524D02*
X242619Y-117524D01*
X242619Y-117524D02*
X290238Y-117524D01*
X290238Y-117524D02*
X318810Y-127048D01*
X318810Y-127048D02*
X337857Y-146095D01*
X337857Y-146095D02*
X347381Y-165143D01*
X347381Y-165143D02*
X356905Y-203238D01*
X356905Y-203238D02*
X356905Y-231809D01*
X356905Y-231809D02*
X347381Y-269905D01*
X347381Y-269905D02*
X337857Y-288952D01*
X337857Y-288952D02*
X318810Y-308000D01*
X318810Y-308000D02*
X290238Y-317524D01*
X290238Y-317524D02*
X242619Y-317524D01*
X442619Y-317524D02*
X442619Y-184190D01*
X442619Y-222286D02*
X452143Y-203238D01*
X452143Y-203238D02*
X461667Y-193714D01*
X461667Y-193714D02*
X480714Y-184190D01*
X480714Y-184190D02*
X499762Y-184190D01*
X566429Y-317524D02*
X566429Y-184190D01*
X566429Y-117524D02*
X556905Y-127048D01*
X556905Y-127048D02*
X566429Y-136571D01*
X566429Y-136571D02*
X575952Y-127048D01*
X575952Y-127048D02*
X566429Y-117524D01*
X566429Y-117524D02*
X566429Y-136571D01*
X690238Y-317524D02*
X671190Y-308000D01*
X671190Y-308000D02*
X661667Y-288952D01*
X661667Y-288952D02*
X661667Y-117524D01*
X795000Y-317524D02*
X775952Y-308000D01*
X775952Y-308000D02*
X766428Y-288952D01*
X766428Y-288952D02*
X766428Y-117524D01*
X1023571Y-317524D02*
X1023571Y-117524D01*
X1023571Y-117524D02*
X1090238Y-260381D01*
X1090238Y-260381D02*
X1156905Y-117524D01*
X1156905Y-117524D02*
X1156905Y-317524D01*
X1337857Y-317524D02*
X1337857Y-212762D01*
X1337857Y-212762D02*
X1328333Y-193714D01*
X1328333Y-193714D02*
X1309286Y-184190D01*
X1309286Y-184190D02*
X1271190Y-184190D01*
X1271190Y-184190D02*
X1252143Y-193714D01*
X1337857Y-308000D02*
X1318810Y-317524D01*
X1318810Y-317524D02*
X1271190Y-317524D01*
X1271190Y-317524D02*
X1252143Y-308000D01*
X1252143Y-308000D02*
X1242619Y-288952D01*
X1242619Y-288952D02*
X1242619Y-269905D01*
X1242619Y-269905D02*
X1252143Y-250857D01*
X1252143Y-250857D02*
X1271190Y-241333D01*
X1271190Y-241333D02*
X1318810Y-241333D01*
X1318810Y-241333D02*
X1337857Y-231809D01*
X1433095Y-184190D02*
X1433095Y-384190D01*
X1433095Y-193714D02*
X1452143Y-184190D01*
X1452143Y-184190D02*
X1490238Y-184190D01*
X1490238Y-184190D02*
X1509286Y-193714D01*
X1509286Y-193714D02*
X1518809Y-203238D01*
X1518809Y-203238D02*
X1528333Y-222286D01*
X1528333Y-222286D02*
X1528333Y-279429D01*
X1528333Y-279429D02*
X1518809Y-298476D01*
X1518809Y-298476D02*
X1509286Y-308000D01*
X1509286Y-308000D02*
X1490238Y-317524D01*
X1490238Y-317524D02*
X1452143Y-317524D01*
X1452143Y-317524D02*
X1433095Y-308000D01*
X1614048Y-298476D02*
X1623571Y-308000D01*
X1623571Y-308000D02*
X1614048Y-317524D01*
X1614048Y-317524D02*
X1604524Y-308000D01*
X1604524Y-308000D02*
X1614048Y-298476D01*
X1614048Y-298476D02*
X1614048Y-317524D01*
X1614048Y-193714D02*
X1623571Y-203238D01*
X1623571Y-203238D02*
X1614048Y-212762D01*
X1614048Y-212762D02*
X1604524Y-203238D01*
X1604524Y-203238D02*
X1614048Y-193714D01*
X1614048Y-193714D02*
X1614048Y-212762D01*
D12*
X-45000Y-625000D02*
X-5000Y-665000D01*
X-5000Y-625000D02*
X-45000Y-665000D01*
D11*
X280714Y-537524D02*
X299762Y-537524D01*
X299762Y-537524D02*
X318810Y-547048D01*
X318810Y-547048D02*
X328333Y-556571D01*
X328333Y-556571D02*
X337857Y-575619D01*
X337857Y-575619D02*
X347381Y-613714D01*
X347381Y-613714D02*
X347381Y-661333D01*
X347381Y-661333D02*
X337857Y-699428D01*
X337857Y-699428D02*
X328333Y-718476D01*
X328333Y-718476D02*
X318810Y-728000D01*
X318810Y-728000D02*
X299762Y-737524D01*
X299762Y-737524D02*
X280714Y-737524D01*
X280714Y-737524D02*
X261667Y-728000D01*
X261667Y-728000D02*
X252143Y-718476D01*
X252143Y-718476D02*
X242619Y-699428D01*
X242619Y-699428D02*
X233095Y-661333D01*
X233095Y-661333D02*
X233095Y-613714D01*
X233095Y-613714D02*
X242619Y-575619D01*
X242619Y-575619D02*
X252143Y-556571D01*
X252143Y-556571D02*
X261667Y-547048D01*
X261667Y-547048D02*
X280714Y-537524D01*
X433095Y-718476D02*
X442619Y-728000D01*
X442619Y-728000D02*
X433095Y-737524D01*
X433095Y-737524D02*
X423571Y-728000D01*
X423571Y-728000D02*
X433095Y-718476D01*
X433095Y-718476D02*
X433095Y-737524D01*
X614048Y-604190D02*
X614048Y-737524D01*
X566429Y-528000D02*
X518809Y-670857D01*
X518809Y-670857D02*
X642619Y-670857D01*
X756905Y-537524D02*
X775952Y-537524D01*
X775952Y-537524D02*
X795000Y-547048D01*
X795000Y-547048D02*
X804524Y-556571D01*
X804524Y-556571D02*
X814048Y-575619D01*
X814048Y-575619D02*
X823571Y-613714D01*
X823571Y-613714D02*
X823571Y-661333D01*
X823571Y-661333D02*
X814048Y-699428D01*
X814048Y-699428D02*
X804524Y-718476D01*
X804524Y-718476D02*
X795000Y-728000D01*
X795000Y-728000D02*
X775952Y-737524D01*
X775952Y-737524D02*
X756905Y-737524D01*
X756905Y-737524D02*
X737857Y-728000D01*
X737857Y-728000D02*
X728333Y-718476D01*
X728333Y-718476D02*
X718809Y-699428D01*
X718809Y-699428D02*
X709286Y-661333D01*
X709286Y-661333D02*
X709286Y-613714D01*
X709286Y-613714D02*
X718809Y-575619D01*
X718809Y-575619D02*
X728333Y-556571D01*
X728333Y-556571D02*
X737857Y-547048D01*
X737857Y-547048D02*
X756905Y-537524D01*
X947381Y-537524D02*
X966429Y-537524D01*
X966429Y-537524D02*
X985476Y-547048D01*
X985476Y-547048D02*
X995000Y-556571D01*
X995000Y-556571D02*
X1004524Y-575619D01*
X1004524Y-575619D02*
X1014048Y-613714D01*
X1014048Y-613714D02*
X1014048Y-661333D01*
X1014048Y-661333D02*
X1004524Y-699428D01*
X1004524Y-699428D02*
X995000Y-718476D01*
X995000Y-718476D02*
X985476Y-728000D01*
X985476Y-728000D02*
X966429Y-737524D01*
X966429Y-737524D02*
X947381Y-737524D01*
X947381Y-737524D02*
X928333Y-728000D01*
X928333Y-728000D02*
X918809Y-718476D01*
X918809Y-718476D02*
X909286Y-699428D01*
X909286Y-699428D02*
X899762Y-661333D01*
X899762Y-661333D02*
X899762Y-613714D01*
X899762Y-613714D02*
X909286Y-575619D01*
X909286Y-575619D02*
X918809Y-556571D01*
X918809Y-556571D02*
X928333Y-547048D01*
X928333Y-547048D02*
X947381Y-537524D01*
X1099762Y-737524D02*
X1099762Y-604190D01*
X1099762Y-623238D02*
X1109286Y-613714D01*
X1109286Y-613714D02*
X1128333Y-604190D01*
X1128333Y-604190D02*
X1156905Y-604190D01*
X1156905Y-604190D02*
X1175952Y-613714D01*
X1175952Y-613714D02*
X1185476Y-632762D01*
X1185476Y-632762D02*
X1185476Y-737524D01*
X1185476Y-632762D02*
X1195000Y-613714D01*
X1195000Y-613714D02*
X1214048Y-604190D01*
X1214048Y-604190D02*
X1242619Y-604190D01*
X1242619Y-604190D02*
X1261667Y-613714D01*
X1261667Y-613714D02*
X1271191Y-632762D01*
X1271191Y-632762D02*
X1271191Y-737524D01*
X1366429Y-737524D02*
X1366429Y-604190D01*
X1366429Y-623238D02*
X1375952Y-613714D01*
X1375952Y-613714D02*
X1395000Y-604190D01*
X1395000Y-604190D02*
X1423571Y-604190D01*
X1423571Y-604190D02*
X1442619Y-613714D01*
X1442619Y-613714D02*
X1452143Y-632762D01*
X1452143Y-632762D02*
X1452143Y-737524D01*
X1452143Y-632762D02*
X1461667Y-613714D01*
X1461667Y-613714D02*
X1480714Y-604190D01*
X1480714Y-604190D02*
X1509286Y-604190D01*
X1509286Y-604190D02*
X1528333Y-613714D01*
X1528333Y-613714D02*
X1537857Y-632762D01*
X1537857Y-632762D02*
X1537857Y-737524D01*
X1928333Y-528000D02*
X1756905Y-785143D01*
X2185476Y-537524D02*
X2204524Y-537524D01*
X2204524Y-537524D02*
X2223572Y-547048D01*
X2223572Y-547048D02*
X2233095Y-556571D01*
X2233095Y-556571D02*
X2242619Y-575619D01*
X2242619Y-575619D02*
X2252143Y-613714D01*
X2252143Y-613714D02*
X2252143Y-661333D01*
X2252143Y-661333D02*
X2242619Y-699428D01*
X2242619Y-699428D02*
X2233095Y-718476D01*
X2233095Y-718476D02*
X2223572Y-728000D01*
X2223572Y-728000D02*
X2204524Y-737524D01*
X2204524Y-737524D02*
X2185476Y-737524D01*
X2185476Y-737524D02*
X2166429Y-728000D01*
X2166429Y-728000D02*
X2156905Y-718476D01*
X2156905Y-718476D02*
X2147381Y-699428D01*
X2147381Y-699428D02*
X2137857Y-661333D01*
X2137857Y-661333D02*
X2137857Y-613714D01*
X2137857Y-613714D02*
X2147381Y-575619D01*
X2147381Y-575619D02*
X2156905Y-556571D01*
X2156905Y-556571D02*
X2166429Y-547048D01*
X2166429Y-547048D02*
X2185476Y-537524D01*
X2337857Y-718476D02*
X2347381Y-728000D01*
X2347381Y-728000D02*
X2337857Y-737524D01*
X2337857Y-737524D02*
X2328334Y-728000D01*
X2328334Y-728000D02*
X2337857Y-718476D01*
X2337857Y-718476D02*
X2337857Y-737524D01*
X2471191Y-537524D02*
X2490238Y-537524D01*
X2490238Y-537524D02*
X2509286Y-547048D01*
X2509286Y-547048D02*
X2518810Y-556571D01*
X2518810Y-556571D02*
X2528334Y-575619D01*
X2528334Y-575619D02*
X2537857Y-613714D01*
X2537857Y-613714D02*
X2537857Y-661333D01*
X2537857Y-661333D02*
X2528334Y-699428D01*
X2528334Y-699428D02*
X2518810Y-718476D01*
X2518810Y-718476D02*
X2509286Y-728000D01*
X2509286Y-728000D02*
X2490238Y-737524D01*
X2490238Y-737524D02*
X2471191Y-737524D01*
X2471191Y-737524D02*
X2452143Y-728000D01*
X2452143Y-728000D02*
X2442619Y-718476D01*
X2442619Y-718476D02*
X2433095Y-699428D01*
X2433095Y-699428D02*
X2423572Y-661333D01*
X2423572Y-661333D02*
X2423572Y-613714D01*
X2423572Y-613714D02*
X2433095Y-575619D01*
X2433095Y-575619D02*
X2442619Y-556571D01*
X2442619Y-556571D02*
X2452143Y-547048D01*
X2452143Y-547048D02*
X2471191Y-537524D01*
X2728334Y-737524D02*
X2614048Y-737524D01*
X2671191Y-737524D02*
X2671191Y-537524D01*
X2671191Y-537524D02*
X2652143Y-566095D01*
X2652143Y-566095D02*
X2633095Y-585143D01*
X2633095Y-585143D02*
X2614048Y-594667D01*
X2909286Y-537524D02*
X2814048Y-537524D01*
X2814048Y-537524D02*
X2804524Y-632762D01*
X2804524Y-632762D02*
X2814048Y-623238D01*
X2814048Y-623238D02*
X2833095Y-613714D01*
X2833095Y-613714D02*
X2880714Y-613714D01*
X2880714Y-613714D02*
X2899762Y-623238D01*
X2899762Y-623238D02*
X2909286Y-632762D01*
X2909286Y-632762D02*
X2918810Y-651810D01*
X2918810Y-651810D02*
X2918810Y-699428D01*
X2918810Y-699428D02*
X2909286Y-718476D01*
X2909286Y-718476D02*
X2899762Y-728000D01*
X2899762Y-728000D02*
X2880714Y-737524D01*
X2880714Y-737524D02*
X2833095Y-737524D01*
X2833095Y-737524D02*
X2814048Y-728000D01*
X2814048Y-728000D02*
X2804524Y-718476D01*
X2985476Y-537524D02*
X3118810Y-537524D01*
X3118810Y-537524D02*
X3033095Y-737524D01*
X3185476Y-537524D02*
X3185476Y-575619D01*
X3261667Y-537524D02*
X3261667Y-575619D01*
X3556905Y-813714D02*
X3547381Y-804190D01*
X3547381Y-804190D02*
X3528334Y-775619D01*
X3528334Y-775619D02*
X3518810Y-756571D01*
X3518810Y-756571D02*
X3509286Y-728000D01*
X3509286Y-728000D02*
X3499762Y-680381D01*
X3499762Y-680381D02*
X3499762Y-642286D01*
X3499762Y-642286D02*
X3509286Y-594667D01*
X3509286Y-594667D02*
X3518810Y-566095D01*
X3518810Y-566095D02*
X3528334Y-547048D01*
X3528334Y-547048D02*
X3547381Y-518476D01*
X3547381Y-518476D02*
X3556905Y-508952D01*
X3737857Y-737524D02*
X3623572Y-737524D01*
X3680714Y-737524D02*
X3680714Y-537524D01*
X3680714Y-537524D02*
X3661667Y-566095D01*
X3661667Y-566095D02*
X3642619Y-585143D01*
X3642619Y-585143D02*
X3623572Y-594667D01*
X3975953Y-737524D02*
X3975953Y-537524D01*
X4061667Y-737524D02*
X4061667Y-632762D01*
X4061667Y-632762D02*
X4052143Y-613714D01*
X4052143Y-613714D02*
X4033096Y-604190D01*
X4033096Y-604190D02*
X4004524Y-604190D01*
X4004524Y-604190D02*
X3985476Y-613714D01*
X3985476Y-613714D02*
X3975953Y-623238D01*
X4185476Y-737524D02*
X4166429Y-728000D01*
X4166429Y-728000D02*
X4156905Y-718476D01*
X4156905Y-718476D02*
X4147381Y-699428D01*
X4147381Y-699428D02*
X4147381Y-642286D01*
X4147381Y-642286D02*
X4156905Y-623238D01*
X4156905Y-623238D02*
X4166429Y-613714D01*
X4166429Y-613714D02*
X4185476Y-604190D01*
X4185476Y-604190D02*
X4214048Y-604190D01*
X4214048Y-604190D02*
X4233096Y-613714D01*
X4233096Y-613714D02*
X4242619Y-623238D01*
X4242619Y-623238D02*
X4252143Y-642286D01*
X4252143Y-642286D02*
X4252143Y-699428D01*
X4252143Y-699428D02*
X4242619Y-718476D01*
X4242619Y-718476D02*
X4233096Y-728000D01*
X4233096Y-728000D02*
X4214048Y-737524D01*
X4214048Y-737524D02*
X4185476Y-737524D01*
X4366429Y-737524D02*
X4347381Y-728000D01*
X4347381Y-728000D02*
X4337858Y-708952D01*
X4337858Y-708952D02*
X4337858Y-537524D01*
X4518810Y-728000D02*
X4499762Y-737524D01*
X4499762Y-737524D02*
X4461667Y-737524D01*
X4461667Y-737524D02*
X4442619Y-728000D01*
X4442619Y-728000D02*
X4433096Y-708952D01*
X4433096Y-708952D02*
X4433096Y-632762D01*
X4433096Y-632762D02*
X4442619Y-613714D01*
X4442619Y-613714D02*
X4461667Y-604190D01*
X4461667Y-604190D02*
X4499762Y-604190D01*
X4499762Y-604190D02*
X4518810Y-613714D01*
X4518810Y-613714D02*
X4528334Y-632762D01*
X4528334Y-632762D02*
X4528334Y-651810D01*
X4528334Y-651810D02*
X4433096Y-670857D01*
X4595000Y-813714D02*
X4604524Y-804190D01*
X4604524Y-804190D02*
X4623572Y-775619D01*
X4623572Y-775619D02*
X4633096Y-756571D01*
X4633096Y-756571D02*
X4642619Y-728000D01*
X4642619Y-728000D02*
X4652143Y-680381D01*
X4652143Y-680381D02*
X4652143Y-642286D01*
X4652143Y-642286D02*
X4642619Y-594667D01*
X4642619Y-594667D02*
X4633096Y-566095D01*
X4633096Y-566095D02*
X4623572Y-547048D01*
X4623572Y-547048D02*
X4604524Y-518476D01*
X4604524Y-518476D02*
X4595000Y-508952D01*
D13*
X-5000Y-909000D02*
G75*
G03*
X-5000Y-909000I-30000J0D01*
G01*
D11*
X280714Y-801524D02*
X299762Y-801524D01*
X299762Y-801524D02*
X318810Y-811048D01*
X318810Y-811048D02*
X328333Y-820571D01*
X328333Y-820571D02*
X337857Y-839619D01*
X337857Y-839619D02*
X347381Y-877714D01*
X347381Y-877714D02*
X347381Y-925333D01*
X347381Y-925333D02*
X337857Y-963428D01*
X337857Y-963428D02*
X328333Y-982476D01*
X328333Y-982476D02*
X318810Y-992000D01*
X318810Y-992000D02*
X299762Y-1001524D01*
X299762Y-1001524D02*
X280714Y-1001524D01*
X280714Y-1001524D02*
X261667Y-992000D01*
X261667Y-992000D02*
X252143Y-982476D01*
X252143Y-982476D02*
X242619Y-963428D01*
X242619Y-963428D02*
X233095Y-925333D01*
X233095Y-925333D02*
X233095Y-877714D01*
X233095Y-877714D02*
X242619Y-839619D01*
X242619Y-839619D02*
X252143Y-820571D01*
X252143Y-820571D02*
X261667Y-811048D01*
X261667Y-811048D02*
X280714Y-801524D01*
X433095Y-982476D02*
X442619Y-992000D01*
X442619Y-992000D02*
X433095Y-1001524D01*
X433095Y-1001524D02*
X423571Y-992000D01*
X423571Y-992000D02*
X433095Y-982476D01*
X433095Y-982476D02*
X433095Y-1001524D01*
X614048Y-801524D02*
X575952Y-801524D01*
X575952Y-801524D02*
X556905Y-811048D01*
X556905Y-811048D02*
X547381Y-820571D01*
X547381Y-820571D02*
X528333Y-849143D01*
X528333Y-849143D02*
X518809Y-887238D01*
X518809Y-887238D02*
X518809Y-963428D01*
X518809Y-963428D02*
X528333Y-982476D01*
X528333Y-982476D02*
X537857Y-992000D01*
X537857Y-992000D02*
X556905Y-1001524D01*
X556905Y-1001524D02*
X595000Y-1001524D01*
X595000Y-1001524D02*
X614048Y-992000D01*
X614048Y-992000D02*
X623571Y-982476D01*
X623571Y-982476D02*
X633095Y-963428D01*
X633095Y-963428D02*
X633095Y-915809D01*
X633095Y-915809D02*
X623571Y-896762D01*
X623571Y-896762D02*
X614048Y-887238D01*
X614048Y-887238D02*
X595000Y-877714D01*
X595000Y-877714D02*
X556905Y-877714D01*
X556905Y-877714D02*
X537857Y-887238D01*
X537857Y-887238D02*
X528333Y-896762D01*
X528333Y-896762D02*
X518809Y-915809D01*
X756905Y-801524D02*
X775952Y-801524D01*
X775952Y-801524D02*
X795000Y-811048D01*
X795000Y-811048D02*
X804524Y-820571D01*
X804524Y-820571D02*
X814048Y-839619D01*
X814048Y-839619D02*
X823571Y-877714D01*
X823571Y-877714D02*
X823571Y-925333D01*
X823571Y-925333D02*
X814048Y-963428D01*
X814048Y-963428D02*
X804524Y-982476D01*
X804524Y-982476D02*
X795000Y-992000D01*
X795000Y-992000D02*
X775952Y-1001524D01*
X775952Y-1001524D02*
X756905Y-1001524D01*
X756905Y-1001524D02*
X737857Y-992000D01*
X737857Y-992000D02*
X728333Y-982476D01*
X728333Y-982476D02*
X718809Y-963428D01*
X718809Y-963428D02*
X709286Y-925333D01*
X709286Y-925333D02*
X709286Y-877714D01*
X709286Y-877714D02*
X718809Y-839619D01*
X718809Y-839619D02*
X728333Y-820571D01*
X728333Y-820571D02*
X737857Y-811048D01*
X737857Y-811048D02*
X756905Y-801524D01*
X947381Y-801524D02*
X966429Y-801524D01*
X966429Y-801524D02*
X985476Y-811048D01*
X985476Y-811048D02*
X995000Y-820571D01*
X995000Y-820571D02*
X1004524Y-839619D01*
X1004524Y-839619D02*
X1014048Y-877714D01*
X1014048Y-877714D02*
X1014048Y-925333D01*
X1014048Y-925333D02*
X1004524Y-963428D01*
X1004524Y-963428D02*
X995000Y-982476D01*
X995000Y-982476D02*
X985476Y-992000D01*
X985476Y-992000D02*
X966429Y-1001524D01*
X966429Y-1001524D02*
X947381Y-1001524D01*
X947381Y-1001524D02*
X928333Y-992000D01*
X928333Y-992000D02*
X918809Y-982476D01*
X918809Y-982476D02*
X909286Y-963428D01*
X909286Y-963428D02*
X899762Y-925333D01*
X899762Y-925333D02*
X899762Y-877714D01*
X899762Y-877714D02*
X909286Y-839619D01*
X909286Y-839619D02*
X918809Y-820571D01*
X918809Y-820571D02*
X928333Y-811048D01*
X928333Y-811048D02*
X947381Y-801524D01*
X1099762Y-1001524D02*
X1099762Y-868190D01*
X1099762Y-887238D02*
X1109286Y-877714D01*
X1109286Y-877714D02*
X1128333Y-868190D01*
X1128333Y-868190D02*
X1156905Y-868190D01*
X1156905Y-868190D02*
X1175952Y-877714D01*
X1175952Y-877714D02*
X1185476Y-896762D01*
X1185476Y-896762D02*
X1185476Y-1001524D01*
X1185476Y-896762D02*
X1195000Y-877714D01*
X1195000Y-877714D02*
X1214048Y-868190D01*
X1214048Y-868190D02*
X1242619Y-868190D01*
X1242619Y-868190D02*
X1261667Y-877714D01*
X1261667Y-877714D02*
X1271191Y-896762D01*
X1271191Y-896762D02*
X1271191Y-1001524D01*
X1366429Y-1001524D02*
X1366429Y-868190D01*
X1366429Y-887238D02*
X1375952Y-877714D01*
X1375952Y-877714D02*
X1395000Y-868190D01*
X1395000Y-868190D02*
X1423571Y-868190D01*
X1423571Y-868190D02*
X1442619Y-877714D01*
X1442619Y-877714D02*
X1452143Y-896762D01*
X1452143Y-896762D02*
X1452143Y-1001524D01*
X1452143Y-896762D02*
X1461667Y-877714D01*
X1461667Y-877714D02*
X1480714Y-868190D01*
X1480714Y-868190D02*
X1509286Y-868190D01*
X1509286Y-868190D02*
X1528333Y-877714D01*
X1528333Y-877714D02*
X1537857Y-896762D01*
X1537857Y-896762D02*
X1537857Y-1001524D01*
X1928333Y-792000D02*
X1756905Y-1049143D01*
X2185476Y-801524D02*
X2204524Y-801524D01*
X2204524Y-801524D02*
X2223572Y-811048D01*
X2223572Y-811048D02*
X2233095Y-820571D01*
X2233095Y-820571D02*
X2242619Y-839619D01*
X2242619Y-839619D02*
X2252143Y-877714D01*
X2252143Y-877714D02*
X2252143Y-925333D01*
X2252143Y-925333D02*
X2242619Y-963428D01*
X2242619Y-963428D02*
X2233095Y-982476D01*
X2233095Y-982476D02*
X2223572Y-992000D01*
X2223572Y-992000D02*
X2204524Y-1001524D01*
X2204524Y-1001524D02*
X2185476Y-1001524D01*
X2185476Y-1001524D02*
X2166429Y-992000D01*
X2166429Y-992000D02*
X2156905Y-982476D01*
X2156905Y-982476D02*
X2147381Y-963428D01*
X2147381Y-963428D02*
X2137857Y-925333D01*
X2137857Y-925333D02*
X2137857Y-877714D01*
X2137857Y-877714D02*
X2147381Y-839619D01*
X2147381Y-839619D02*
X2156905Y-820571D01*
X2156905Y-820571D02*
X2166429Y-811048D01*
X2166429Y-811048D02*
X2185476Y-801524D01*
X2337857Y-982476D02*
X2347381Y-992000D01*
X2347381Y-992000D02*
X2337857Y-1001524D01*
X2337857Y-1001524D02*
X2328334Y-992000D01*
X2328334Y-992000D02*
X2337857Y-982476D01*
X2337857Y-982476D02*
X2337857Y-1001524D01*
X2471191Y-801524D02*
X2490238Y-801524D01*
X2490238Y-801524D02*
X2509286Y-811048D01*
X2509286Y-811048D02*
X2518810Y-820571D01*
X2518810Y-820571D02*
X2528334Y-839619D01*
X2528334Y-839619D02*
X2537857Y-877714D01*
X2537857Y-877714D02*
X2537857Y-925333D01*
X2537857Y-925333D02*
X2528334Y-963428D01*
X2528334Y-963428D02*
X2518810Y-982476D01*
X2518810Y-982476D02*
X2509286Y-992000D01*
X2509286Y-992000D02*
X2490238Y-1001524D01*
X2490238Y-1001524D02*
X2471191Y-1001524D01*
X2471191Y-1001524D02*
X2452143Y-992000D01*
X2452143Y-992000D02*
X2442619Y-982476D01*
X2442619Y-982476D02*
X2433095Y-963428D01*
X2433095Y-963428D02*
X2423572Y-925333D01*
X2423572Y-925333D02*
X2423572Y-877714D01*
X2423572Y-877714D02*
X2433095Y-839619D01*
X2433095Y-839619D02*
X2442619Y-820571D01*
X2442619Y-820571D02*
X2452143Y-811048D01*
X2452143Y-811048D02*
X2471191Y-801524D01*
X2614048Y-820571D02*
X2623572Y-811048D01*
X2623572Y-811048D02*
X2642619Y-801524D01*
X2642619Y-801524D02*
X2690238Y-801524D01*
X2690238Y-801524D02*
X2709286Y-811048D01*
X2709286Y-811048D02*
X2718810Y-820571D01*
X2718810Y-820571D02*
X2728334Y-839619D01*
X2728334Y-839619D02*
X2728334Y-858667D01*
X2728334Y-858667D02*
X2718810Y-887238D01*
X2718810Y-887238D02*
X2604524Y-1001524D01*
X2604524Y-1001524D02*
X2728334Y-1001524D01*
X2795000Y-801524D02*
X2918810Y-801524D01*
X2918810Y-801524D02*
X2852143Y-877714D01*
X2852143Y-877714D02*
X2880714Y-877714D01*
X2880714Y-877714D02*
X2899762Y-887238D01*
X2899762Y-887238D02*
X2909286Y-896762D01*
X2909286Y-896762D02*
X2918810Y-915809D01*
X2918810Y-915809D02*
X2918810Y-963428D01*
X2918810Y-963428D02*
X2909286Y-982476D01*
X2909286Y-982476D02*
X2899762Y-992000D01*
X2899762Y-992000D02*
X2880714Y-1001524D01*
X2880714Y-1001524D02*
X2823572Y-1001524D01*
X2823572Y-1001524D02*
X2804524Y-992000D01*
X2804524Y-992000D02*
X2795000Y-982476D01*
X3090238Y-801524D02*
X3052143Y-801524D01*
X3052143Y-801524D02*
X3033095Y-811048D01*
X3033095Y-811048D02*
X3023572Y-820571D01*
X3023572Y-820571D02*
X3004524Y-849143D01*
X3004524Y-849143D02*
X2995000Y-887238D01*
X2995000Y-887238D02*
X2995000Y-963428D01*
X2995000Y-963428D02*
X3004524Y-982476D01*
X3004524Y-982476D02*
X3014048Y-992000D01*
X3014048Y-992000D02*
X3033095Y-1001524D01*
X3033095Y-1001524D02*
X3071191Y-1001524D01*
X3071191Y-1001524D02*
X3090238Y-992000D01*
X3090238Y-992000D02*
X3099762Y-982476D01*
X3099762Y-982476D02*
X3109286Y-963428D01*
X3109286Y-963428D02*
X3109286Y-915809D01*
X3109286Y-915809D02*
X3099762Y-896762D01*
X3099762Y-896762D02*
X3090238Y-887238D01*
X3090238Y-887238D02*
X3071191Y-877714D01*
X3071191Y-877714D02*
X3033095Y-877714D01*
X3033095Y-877714D02*
X3014048Y-887238D01*
X3014048Y-887238D02*
X3004524Y-896762D01*
X3004524Y-896762D02*
X2995000Y-915809D01*
X3185476Y-801524D02*
X3185476Y-839619D01*
X3261667Y-801524D02*
X3261667Y-839619D01*
X3556905Y-1077714D02*
X3547381Y-1068190D01*
X3547381Y-1068190D02*
X3528334Y-1039619D01*
X3528334Y-1039619D02*
X3518810Y-1020571D01*
X3518810Y-1020571D02*
X3509286Y-992000D01*
X3509286Y-992000D02*
X3499762Y-944381D01*
X3499762Y-944381D02*
X3499762Y-906286D01*
X3499762Y-906286D02*
X3509286Y-858667D01*
X3509286Y-858667D02*
X3518810Y-830095D01*
X3518810Y-830095D02*
X3528334Y-811048D01*
X3528334Y-811048D02*
X3547381Y-782476D01*
X3547381Y-782476D02*
X3556905Y-772952D01*
X3718810Y-801524D02*
X3680714Y-801524D01*
X3680714Y-801524D02*
X3661667Y-811048D01*
X3661667Y-811048D02*
X3652143Y-820571D01*
X3652143Y-820571D02*
X3633095Y-849143D01*
X3633095Y-849143D02*
X3623572Y-887238D01*
X3623572Y-887238D02*
X3623572Y-963428D01*
X3623572Y-963428D02*
X3633095Y-982476D01*
X3633095Y-982476D02*
X3642619Y-992000D01*
X3642619Y-992000D02*
X3661667Y-1001524D01*
X3661667Y-1001524D02*
X3699762Y-1001524D01*
X3699762Y-1001524D02*
X3718810Y-992000D01*
X3718810Y-992000D02*
X3728334Y-982476D01*
X3728334Y-982476D02*
X3737857Y-963428D01*
X3737857Y-963428D02*
X3737857Y-915809D01*
X3737857Y-915809D02*
X3728334Y-896762D01*
X3728334Y-896762D02*
X3718810Y-887238D01*
X3718810Y-887238D02*
X3699762Y-877714D01*
X3699762Y-877714D02*
X3661667Y-877714D01*
X3661667Y-877714D02*
X3642619Y-887238D01*
X3642619Y-887238D02*
X3633095Y-896762D01*
X3633095Y-896762D02*
X3623572Y-915809D01*
X3975953Y-1001524D02*
X3975953Y-801524D01*
X4061667Y-1001524D02*
X4061667Y-896762D01*
X4061667Y-896762D02*
X4052143Y-877714D01*
X4052143Y-877714D02*
X4033096Y-868190D01*
X4033096Y-868190D02*
X4004524Y-868190D01*
X4004524Y-868190D02*
X3985476Y-877714D01*
X3985476Y-877714D02*
X3975953Y-887238D01*
X4185476Y-1001524D02*
X4166429Y-992000D01*
X4166429Y-992000D02*
X4156905Y-982476D01*
X4156905Y-982476D02*
X4147381Y-963428D01*
X4147381Y-963428D02*
X4147381Y-906286D01*
X4147381Y-906286D02*
X4156905Y-887238D01*
X4156905Y-887238D02*
X4166429Y-877714D01*
X4166429Y-877714D02*
X4185476Y-868190D01*
X4185476Y-868190D02*
X4214048Y-868190D01*
X4214048Y-868190D02*
X4233096Y-877714D01*
X4233096Y-877714D02*
X4242619Y-887238D01*
X4242619Y-887238D02*
X4252143Y-906286D01*
X4252143Y-906286D02*
X4252143Y-963428D01*
X4252143Y-963428D02*
X4242619Y-982476D01*
X4242619Y-982476D02*
X4233096Y-992000D01*
X4233096Y-992000D02*
X4214048Y-1001524D01*
X4214048Y-1001524D02*
X4185476Y-1001524D01*
X4366429Y-1001524D02*
X4347381Y-992000D01*
X4347381Y-992000D02*
X4337858Y-972952D01*
X4337858Y-972952D02*
X4337858Y-801524D01*
X4518810Y-992000D02*
X4499762Y-1001524D01*
X4499762Y-1001524D02*
X4461667Y-1001524D01*
X4461667Y-1001524D02*
X4442619Y-992000D01*
X4442619Y-992000D02*
X4433096Y-972952D01*
X4433096Y-972952D02*
X4433096Y-896762D01*
X4433096Y-896762D02*
X4442619Y-877714D01*
X4442619Y-877714D02*
X4461667Y-868190D01*
X4461667Y-868190D02*
X4499762Y-868190D01*
X4499762Y-868190D02*
X4518810Y-877714D01*
X4518810Y-877714D02*
X4528334Y-896762D01*
X4528334Y-896762D02*
X4528334Y-915809D01*
X4528334Y-915809D02*
X4433096Y-934857D01*
X4604524Y-992000D02*
X4623572Y-1001524D01*
X4623572Y-1001524D02*
X4661667Y-1001524D01*
X4661667Y-1001524D02*
X4680715Y-992000D01*
X4680715Y-992000D02*
X4690239Y-972952D01*
X4690239Y-972952D02*
X4690239Y-963428D01*
X4690239Y-963428D02*
X4680715Y-944381D01*
X4680715Y-944381D02*
X4661667Y-934857D01*
X4661667Y-934857D02*
X4633096Y-934857D01*
X4633096Y-934857D02*
X4614048Y-925333D01*
X4614048Y-925333D02*
X4604524Y-906286D01*
X4604524Y-906286D02*
X4604524Y-896762D01*
X4604524Y-896762D02*
X4614048Y-877714D01*
X4614048Y-877714D02*
X4633096Y-868190D01*
X4633096Y-868190D02*
X4661667Y-868190D01*
X4661667Y-868190D02*
X4680715Y-877714D01*
X4756905Y-1077714D02*
X4766429Y-1068190D01*
X4766429Y-1068190D02*
X4785477Y-1039619D01*
X4785477Y-1039619D02*
X4795000Y-1020571D01*
X4795000Y-1020571D02*
X4804524Y-992000D01*
X4804524Y-992000D02*
X4814048Y-944381D01*
X4814048Y-944381D02*
X4814048Y-906286D01*
X4814048Y-906286D02*
X4804524Y-858667D01*
X4804524Y-858667D02*
X4795000Y-830095D01*
X4795000Y-830095D02*
X4785477Y-811048D01*
X4785477Y-811048D02*
X4766429Y-782476D01*
X4766429Y-782476D02*
X4756905Y-772952D01*
D14*
X-50000Y-1128000D02*
X-50000Y-1218000D01*
X-95000Y-1173000D02*
X-5000Y-1173000D01*
D11*
X280714Y-1065524D02*
X299762Y-1065524D01*
X299762Y-1065524D02*
X318810Y-1075048D01*
X318810Y-1075048D02*
X328333Y-1084571D01*
X328333Y-1084571D02*
X337857Y-1103619D01*
X337857Y-1103619D02*
X347381Y-1141714D01*
X347381Y-1141714D02*
X347381Y-1189333D01*
X347381Y-1189333D02*
X337857Y-1227429D01*
X337857Y-1227429D02*
X328333Y-1246476D01*
X328333Y-1246476D02*
X318810Y-1256000D01*
X318810Y-1256000D02*
X299762Y-1265524D01*
X299762Y-1265524D02*
X280714Y-1265524D01*
X280714Y-1265524D02*
X261667Y-1256000D01*
X261667Y-1256000D02*
X252143Y-1246476D01*
X252143Y-1246476D02*
X242619Y-1227429D01*
X242619Y-1227429D02*
X233095Y-1189333D01*
X233095Y-1189333D02*
X233095Y-1141714D01*
X233095Y-1141714D02*
X242619Y-1103619D01*
X242619Y-1103619D02*
X252143Y-1084571D01*
X252143Y-1084571D02*
X261667Y-1075048D01*
X261667Y-1075048D02*
X280714Y-1065524D01*
X433095Y-1246476D02*
X442619Y-1256000D01*
X442619Y-1256000D02*
X433095Y-1265524D01*
X433095Y-1265524D02*
X423571Y-1256000D01*
X423571Y-1256000D02*
X433095Y-1246476D01*
X433095Y-1246476D02*
X433095Y-1265524D01*
X537857Y-1265524D02*
X575952Y-1265524D01*
X575952Y-1265524D02*
X595000Y-1256000D01*
X595000Y-1256000D02*
X604524Y-1246476D01*
X604524Y-1246476D02*
X623571Y-1217905D01*
X623571Y-1217905D02*
X633095Y-1179810D01*
X633095Y-1179810D02*
X633095Y-1103619D01*
X633095Y-1103619D02*
X623571Y-1084571D01*
X623571Y-1084571D02*
X614048Y-1075048D01*
X614048Y-1075048D02*
X595000Y-1065524D01*
X595000Y-1065524D02*
X556905Y-1065524D01*
X556905Y-1065524D02*
X537857Y-1075048D01*
X537857Y-1075048D02*
X528333Y-1084571D01*
X528333Y-1084571D02*
X518809Y-1103619D01*
X518809Y-1103619D02*
X518809Y-1151238D01*
X518809Y-1151238D02*
X528333Y-1170286D01*
X528333Y-1170286D02*
X537857Y-1179810D01*
X537857Y-1179810D02*
X556905Y-1189333D01*
X556905Y-1189333D02*
X595000Y-1189333D01*
X595000Y-1189333D02*
X614048Y-1179810D01*
X614048Y-1179810D02*
X623571Y-1170286D01*
X623571Y-1170286D02*
X633095Y-1151238D01*
X756905Y-1065524D02*
X775952Y-1065524D01*
X775952Y-1065524D02*
X795000Y-1075048D01*
X795000Y-1075048D02*
X804524Y-1084571D01*
X804524Y-1084571D02*
X814048Y-1103619D01*
X814048Y-1103619D02*
X823571Y-1141714D01*
X823571Y-1141714D02*
X823571Y-1189333D01*
X823571Y-1189333D02*
X814048Y-1227429D01*
X814048Y-1227429D02*
X804524Y-1246476D01*
X804524Y-1246476D02*
X795000Y-1256000D01*
X795000Y-1256000D02*
X775952Y-1265524D01*
X775952Y-1265524D02*
X756905Y-1265524D01*
X756905Y-1265524D02*
X737857Y-1256000D01*
X737857Y-1256000D02*
X728333Y-1246476D01*
X728333Y-1246476D02*
X718809Y-1227429D01*
X718809Y-1227429D02*
X709286Y-1189333D01*
X709286Y-1189333D02*
X709286Y-1141714D01*
X709286Y-1141714D02*
X718809Y-1103619D01*
X718809Y-1103619D02*
X728333Y-1084571D01*
X728333Y-1084571D02*
X737857Y-1075048D01*
X737857Y-1075048D02*
X756905Y-1065524D01*
X947381Y-1065524D02*
X966429Y-1065524D01*
X966429Y-1065524D02*
X985476Y-1075048D01*
X985476Y-1075048D02*
X995000Y-1084571D01*
X995000Y-1084571D02*
X1004524Y-1103619D01*
X1004524Y-1103619D02*
X1014048Y-1141714D01*
X1014048Y-1141714D02*
X1014048Y-1189333D01*
X1014048Y-1189333D02*
X1004524Y-1227429D01*
X1004524Y-1227429D02*
X995000Y-1246476D01*
X995000Y-1246476D02*
X985476Y-1256000D01*
X985476Y-1256000D02*
X966429Y-1265524D01*
X966429Y-1265524D02*
X947381Y-1265524D01*
X947381Y-1265524D02*
X928333Y-1256000D01*
X928333Y-1256000D02*
X918809Y-1246476D01*
X918809Y-1246476D02*
X909286Y-1227429D01*
X909286Y-1227429D02*
X899762Y-1189333D01*
X899762Y-1189333D02*
X899762Y-1141714D01*
X899762Y-1141714D02*
X909286Y-1103619D01*
X909286Y-1103619D02*
X918809Y-1084571D01*
X918809Y-1084571D02*
X928333Y-1075048D01*
X928333Y-1075048D02*
X947381Y-1065524D01*
X1099762Y-1265524D02*
X1099762Y-1132190D01*
X1099762Y-1151238D02*
X1109286Y-1141714D01*
X1109286Y-1141714D02*
X1128333Y-1132190D01*
X1128333Y-1132190D02*
X1156905Y-1132190D01*
X1156905Y-1132190D02*
X1175952Y-1141714D01*
X1175952Y-1141714D02*
X1185476Y-1160762D01*
X1185476Y-1160762D02*
X1185476Y-1265524D01*
X1185476Y-1160762D02*
X1195000Y-1141714D01*
X1195000Y-1141714D02*
X1214048Y-1132190D01*
X1214048Y-1132190D02*
X1242619Y-1132190D01*
X1242619Y-1132190D02*
X1261667Y-1141714D01*
X1261667Y-1141714D02*
X1271191Y-1160762D01*
X1271191Y-1160762D02*
X1271191Y-1265524D01*
X1366429Y-1265524D02*
X1366429Y-1132190D01*
X1366429Y-1151238D02*
X1375952Y-1141714D01*
X1375952Y-1141714D02*
X1395000Y-1132190D01*
X1395000Y-1132190D02*
X1423571Y-1132190D01*
X1423571Y-1132190D02*
X1442619Y-1141714D01*
X1442619Y-1141714D02*
X1452143Y-1160762D01*
X1452143Y-1160762D02*
X1452143Y-1265524D01*
X1452143Y-1160762D02*
X1461667Y-1141714D01*
X1461667Y-1141714D02*
X1480714Y-1132190D01*
X1480714Y-1132190D02*
X1509286Y-1132190D01*
X1509286Y-1132190D02*
X1528333Y-1141714D01*
X1528333Y-1141714D02*
X1537857Y-1160762D01*
X1537857Y-1160762D02*
X1537857Y-1265524D01*
X1928333Y-1056000D02*
X1756905Y-1313143D01*
X2185476Y-1065524D02*
X2204524Y-1065524D01*
X2204524Y-1065524D02*
X2223572Y-1075048D01*
X2223572Y-1075048D02*
X2233095Y-1084571D01*
X2233095Y-1084571D02*
X2242619Y-1103619D01*
X2242619Y-1103619D02*
X2252143Y-1141714D01*
X2252143Y-1141714D02*
X2252143Y-1189333D01*
X2252143Y-1189333D02*
X2242619Y-1227429D01*
X2242619Y-1227429D02*
X2233095Y-1246476D01*
X2233095Y-1246476D02*
X2223572Y-1256000D01*
X2223572Y-1256000D02*
X2204524Y-1265524D01*
X2204524Y-1265524D02*
X2185476Y-1265524D01*
X2185476Y-1265524D02*
X2166429Y-1256000D01*
X2166429Y-1256000D02*
X2156905Y-1246476D01*
X2156905Y-1246476D02*
X2147381Y-1227429D01*
X2147381Y-1227429D02*
X2137857Y-1189333D01*
X2137857Y-1189333D02*
X2137857Y-1141714D01*
X2137857Y-1141714D02*
X2147381Y-1103619D01*
X2147381Y-1103619D02*
X2156905Y-1084571D01*
X2156905Y-1084571D02*
X2166429Y-1075048D01*
X2166429Y-1075048D02*
X2185476Y-1065524D01*
X2337857Y-1246476D02*
X2347381Y-1256000D01*
X2347381Y-1256000D02*
X2337857Y-1265524D01*
X2337857Y-1265524D02*
X2328334Y-1256000D01*
X2328334Y-1256000D02*
X2337857Y-1246476D01*
X2337857Y-1246476D02*
X2337857Y-1265524D01*
X2471191Y-1065524D02*
X2490238Y-1065524D01*
X2490238Y-1065524D02*
X2509286Y-1075048D01*
X2509286Y-1075048D02*
X2518810Y-1084571D01*
X2518810Y-1084571D02*
X2528334Y-1103619D01*
X2528334Y-1103619D02*
X2537857Y-1141714D01*
X2537857Y-1141714D02*
X2537857Y-1189333D01*
X2537857Y-1189333D02*
X2528334Y-1227429D01*
X2528334Y-1227429D02*
X2518810Y-1246476D01*
X2518810Y-1246476D02*
X2509286Y-1256000D01*
X2509286Y-1256000D02*
X2490238Y-1265524D01*
X2490238Y-1265524D02*
X2471191Y-1265524D01*
X2471191Y-1265524D02*
X2452143Y-1256000D01*
X2452143Y-1256000D02*
X2442619Y-1246476D01*
X2442619Y-1246476D02*
X2433095Y-1227429D01*
X2433095Y-1227429D02*
X2423572Y-1189333D01*
X2423572Y-1189333D02*
X2423572Y-1141714D01*
X2423572Y-1141714D02*
X2433095Y-1103619D01*
X2433095Y-1103619D02*
X2442619Y-1084571D01*
X2442619Y-1084571D02*
X2452143Y-1075048D01*
X2452143Y-1075048D02*
X2471191Y-1065524D01*
X2604524Y-1065524D02*
X2728334Y-1065524D01*
X2728334Y-1065524D02*
X2661667Y-1141714D01*
X2661667Y-1141714D02*
X2690238Y-1141714D01*
X2690238Y-1141714D02*
X2709286Y-1151238D01*
X2709286Y-1151238D02*
X2718810Y-1160762D01*
X2718810Y-1160762D02*
X2728334Y-1179810D01*
X2728334Y-1179810D02*
X2728334Y-1227429D01*
X2728334Y-1227429D02*
X2718810Y-1246476D01*
X2718810Y-1246476D02*
X2709286Y-1256000D01*
X2709286Y-1256000D02*
X2690238Y-1265524D01*
X2690238Y-1265524D02*
X2633095Y-1265524D01*
X2633095Y-1265524D02*
X2614048Y-1256000D01*
X2614048Y-1256000D02*
X2604524Y-1246476D01*
X2909286Y-1065524D02*
X2814048Y-1065524D01*
X2814048Y-1065524D02*
X2804524Y-1160762D01*
X2804524Y-1160762D02*
X2814048Y-1151238D01*
X2814048Y-1151238D02*
X2833095Y-1141714D01*
X2833095Y-1141714D02*
X2880714Y-1141714D01*
X2880714Y-1141714D02*
X2899762Y-1151238D01*
X2899762Y-1151238D02*
X2909286Y-1160762D01*
X2909286Y-1160762D02*
X2918810Y-1179810D01*
X2918810Y-1179810D02*
X2918810Y-1227429D01*
X2918810Y-1227429D02*
X2909286Y-1246476D01*
X2909286Y-1246476D02*
X2899762Y-1256000D01*
X2899762Y-1256000D02*
X2880714Y-1265524D01*
X2880714Y-1265524D02*
X2833095Y-1265524D01*
X2833095Y-1265524D02*
X2814048Y-1256000D01*
X2814048Y-1256000D02*
X2804524Y-1246476D01*
X3090238Y-1132190D02*
X3090238Y-1265524D01*
X3042619Y-1056000D02*
X2995000Y-1198857D01*
X2995000Y-1198857D02*
X3118810Y-1198857D01*
X3185476Y-1065524D02*
X3185476Y-1103619D01*
X3261667Y-1065524D02*
X3261667Y-1103619D01*
X3556905Y-1341714D02*
X3547381Y-1332190D01*
X3547381Y-1332190D02*
X3528334Y-1303619D01*
X3528334Y-1303619D02*
X3518810Y-1284571D01*
X3518810Y-1284571D02*
X3509286Y-1256000D01*
X3509286Y-1256000D02*
X3499762Y-1208381D01*
X3499762Y-1208381D02*
X3499762Y-1170286D01*
X3499762Y-1170286D02*
X3509286Y-1122667D01*
X3509286Y-1122667D02*
X3518810Y-1094095D01*
X3518810Y-1094095D02*
X3528334Y-1075048D01*
X3528334Y-1075048D02*
X3547381Y-1046476D01*
X3547381Y-1046476D02*
X3556905Y-1036952D01*
X3718810Y-1065524D02*
X3680714Y-1065524D01*
X3680714Y-1065524D02*
X3661667Y-1075048D01*
X3661667Y-1075048D02*
X3652143Y-1084571D01*
X3652143Y-1084571D02*
X3633095Y-1113143D01*
X3633095Y-1113143D02*
X3623572Y-1151238D01*
X3623572Y-1151238D02*
X3623572Y-1227429D01*
X3623572Y-1227429D02*
X3633095Y-1246476D01*
X3633095Y-1246476D02*
X3642619Y-1256000D01*
X3642619Y-1256000D02*
X3661667Y-1265524D01*
X3661667Y-1265524D02*
X3699762Y-1265524D01*
X3699762Y-1265524D02*
X3718810Y-1256000D01*
X3718810Y-1256000D02*
X3728334Y-1246476D01*
X3728334Y-1246476D02*
X3737857Y-1227429D01*
X3737857Y-1227429D02*
X3737857Y-1179810D01*
X3737857Y-1179810D02*
X3728334Y-1160762D01*
X3728334Y-1160762D02*
X3718810Y-1151238D01*
X3718810Y-1151238D02*
X3699762Y-1141714D01*
X3699762Y-1141714D02*
X3661667Y-1141714D01*
X3661667Y-1141714D02*
X3642619Y-1151238D01*
X3642619Y-1151238D02*
X3633095Y-1160762D01*
X3633095Y-1160762D02*
X3623572Y-1179810D01*
X3975953Y-1265524D02*
X3975953Y-1065524D01*
X4061667Y-1265524D02*
X4061667Y-1160762D01*
X4061667Y-1160762D02*
X4052143Y-1141714D01*
X4052143Y-1141714D02*
X4033096Y-1132190D01*
X4033096Y-1132190D02*
X4004524Y-1132190D01*
X4004524Y-1132190D02*
X3985476Y-1141714D01*
X3985476Y-1141714D02*
X3975953Y-1151238D01*
X4185476Y-1265524D02*
X4166429Y-1256000D01*
X4166429Y-1256000D02*
X4156905Y-1246476D01*
X4156905Y-1246476D02*
X4147381Y-1227429D01*
X4147381Y-1227429D02*
X4147381Y-1170286D01*
X4147381Y-1170286D02*
X4156905Y-1151238D01*
X4156905Y-1151238D02*
X4166429Y-1141714D01*
X4166429Y-1141714D02*
X4185476Y-1132190D01*
X4185476Y-1132190D02*
X4214048Y-1132190D01*
X4214048Y-1132190D02*
X4233096Y-1141714D01*
X4233096Y-1141714D02*
X4242619Y-1151238D01*
X4242619Y-1151238D02*
X4252143Y-1170286D01*
X4252143Y-1170286D02*
X4252143Y-1227429D01*
X4252143Y-1227429D02*
X4242619Y-1246476D01*
X4242619Y-1246476D02*
X4233096Y-1256000D01*
X4233096Y-1256000D02*
X4214048Y-1265524D01*
X4214048Y-1265524D02*
X4185476Y-1265524D01*
X4366429Y-1265524D02*
X4347381Y-1256000D01*
X4347381Y-1256000D02*
X4337858Y-1236952D01*
X4337858Y-1236952D02*
X4337858Y-1065524D01*
X4518810Y-1256000D02*
X4499762Y-1265524D01*
X4499762Y-1265524D02*
X4461667Y-1265524D01*
X4461667Y-1265524D02*
X4442619Y-1256000D01*
X4442619Y-1256000D02*
X4433096Y-1236952D01*
X4433096Y-1236952D02*
X4433096Y-1160762D01*
X4433096Y-1160762D02*
X4442619Y-1141714D01*
X4442619Y-1141714D02*
X4461667Y-1132190D01*
X4461667Y-1132190D02*
X4499762Y-1132190D01*
X4499762Y-1132190D02*
X4518810Y-1141714D01*
X4518810Y-1141714D02*
X4528334Y-1160762D01*
X4528334Y-1160762D02*
X4528334Y-1179810D01*
X4528334Y-1179810D02*
X4433096Y-1198857D01*
X4604524Y-1256000D02*
X4623572Y-1265524D01*
X4623572Y-1265524D02*
X4661667Y-1265524D01*
X4661667Y-1265524D02*
X4680715Y-1256000D01*
X4680715Y-1256000D02*
X4690239Y-1236952D01*
X4690239Y-1236952D02*
X4690239Y-1227429D01*
X4690239Y-1227429D02*
X4680715Y-1208381D01*
X4680715Y-1208381D02*
X4661667Y-1198857D01*
X4661667Y-1198857D02*
X4633096Y-1198857D01*
X4633096Y-1198857D02*
X4614048Y-1189333D01*
X4614048Y-1189333D02*
X4604524Y-1170286D01*
X4604524Y-1170286D02*
X4604524Y-1160762D01*
X4604524Y-1160762D02*
X4614048Y-1141714D01*
X4614048Y-1141714D02*
X4633096Y-1132190D01*
X4633096Y-1132190D02*
X4661667Y-1132190D01*
X4661667Y-1132190D02*
X4680715Y-1141714D01*
X4756905Y-1341714D02*
X4766429Y-1332190D01*
X4766429Y-1332190D02*
X4785477Y-1303619D01*
X4785477Y-1303619D02*
X4795000Y-1284571D01*
X4795000Y-1284571D02*
X4804524Y-1256000D01*
X4804524Y-1256000D02*
X4814048Y-1208381D01*
X4814048Y-1208381D02*
X4814048Y-1170286D01*
X4814048Y-1170286D02*
X4804524Y-1122667D01*
X4804524Y-1122667D02*
X4795000Y-1094095D01*
X4795000Y-1094095D02*
X4785477Y-1075048D01*
X4785477Y-1075048D02*
X4766429Y-1046476D01*
X4766429Y-1046476D02*
X4756905Y-1036952D01*
D15*
X-18912Y-1470588D02*
X-18912Y-1403412D01*
X-86088Y-1403412D01*
X-86088Y-1470588D01*
X-18912Y-1470588D01*
D11*
X280714Y-1329524D02*
X299762Y-1329524D01*
X299762Y-1329524D02*
X318810Y-1339048D01*
X318810Y-1339048D02*
X328333Y-1348571D01*
X328333Y-1348571D02*
X337857Y-1367619D01*
X337857Y-1367619D02*
X347381Y-1405714D01*
X347381Y-1405714D02*
X347381Y-1453333D01*
X347381Y-1453333D02*
X337857Y-1491428D01*
X337857Y-1491428D02*
X328333Y-1510476D01*
X328333Y-1510476D02*
X318810Y-1520000D01*
X318810Y-1520000D02*
X299762Y-1529524D01*
X299762Y-1529524D02*
X280714Y-1529524D01*
X280714Y-1529524D02*
X261667Y-1520000D01*
X261667Y-1520000D02*
X252143Y-1510476D01*
X252143Y-1510476D02*
X242619Y-1491428D01*
X242619Y-1491428D02*
X233095Y-1453333D01*
X233095Y-1453333D02*
X233095Y-1405714D01*
X233095Y-1405714D02*
X242619Y-1367619D01*
X242619Y-1367619D02*
X252143Y-1348571D01*
X252143Y-1348571D02*
X261667Y-1339048D01*
X261667Y-1339048D02*
X280714Y-1329524D01*
X433095Y-1510476D02*
X442619Y-1520000D01*
X442619Y-1520000D02*
X433095Y-1529524D01*
X433095Y-1529524D02*
X423571Y-1520000D01*
X423571Y-1520000D02*
X433095Y-1510476D01*
X433095Y-1510476D02*
X433095Y-1529524D01*
X537857Y-1529524D02*
X575952Y-1529524D01*
X575952Y-1529524D02*
X595000Y-1520000D01*
X595000Y-1520000D02*
X604524Y-1510476D01*
X604524Y-1510476D02*
X623571Y-1481905D01*
X623571Y-1481905D02*
X633095Y-1443809D01*
X633095Y-1443809D02*
X633095Y-1367619D01*
X633095Y-1367619D02*
X623571Y-1348571D01*
X623571Y-1348571D02*
X614048Y-1339048D01*
X614048Y-1339048D02*
X595000Y-1329524D01*
X595000Y-1329524D02*
X556905Y-1329524D01*
X556905Y-1329524D02*
X537857Y-1339048D01*
X537857Y-1339048D02*
X528333Y-1348571D01*
X528333Y-1348571D02*
X518809Y-1367619D01*
X518809Y-1367619D02*
X518809Y-1415238D01*
X518809Y-1415238D02*
X528333Y-1434286D01*
X528333Y-1434286D02*
X537857Y-1443809D01*
X537857Y-1443809D02*
X556905Y-1453333D01*
X556905Y-1453333D02*
X595000Y-1453333D01*
X595000Y-1453333D02*
X614048Y-1443809D01*
X614048Y-1443809D02*
X623571Y-1434286D01*
X623571Y-1434286D02*
X633095Y-1415238D01*
X814048Y-1329524D02*
X718809Y-1329524D01*
X718809Y-1329524D02*
X709286Y-1424762D01*
X709286Y-1424762D02*
X718809Y-1415238D01*
X718809Y-1415238D02*
X737857Y-1405714D01*
X737857Y-1405714D02*
X785476Y-1405714D01*
X785476Y-1405714D02*
X804524Y-1415238D01*
X804524Y-1415238D02*
X814048Y-1424762D01*
X814048Y-1424762D02*
X823571Y-1443809D01*
X823571Y-1443809D02*
X823571Y-1491428D01*
X823571Y-1491428D02*
X814048Y-1510476D01*
X814048Y-1510476D02*
X804524Y-1520000D01*
X804524Y-1520000D02*
X785476Y-1529524D01*
X785476Y-1529524D02*
X737857Y-1529524D01*
X737857Y-1529524D02*
X718809Y-1520000D01*
X718809Y-1520000D02*
X709286Y-1510476D01*
X947381Y-1329524D02*
X966429Y-1329524D01*
X966429Y-1329524D02*
X985476Y-1339048D01*
X985476Y-1339048D02*
X995000Y-1348571D01*
X995000Y-1348571D02*
X1004524Y-1367619D01*
X1004524Y-1367619D02*
X1014048Y-1405714D01*
X1014048Y-1405714D02*
X1014048Y-1453333D01*
X1014048Y-1453333D02*
X1004524Y-1491428D01*
X1004524Y-1491428D02*
X995000Y-1510476D01*
X995000Y-1510476D02*
X985476Y-1520000D01*
X985476Y-1520000D02*
X966429Y-1529524D01*
X966429Y-1529524D02*
X947381Y-1529524D01*
X947381Y-1529524D02*
X928333Y-1520000D01*
X928333Y-1520000D02*
X918809Y-1510476D01*
X918809Y-1510476D02*
X909286Y-1491428D01*
X909286Y-1491428D02*
X899762Y-1453333D01*
X899762Y-1453333D02*
X899762Y-1405714D01*
X899762Y-1405714D02*
X909286Y-1367619D01*
X909286Y-1367619D02*
X918809Y-1348571D01*
X918809Y-1348571D02*
X928333Y-1339048D01*
X928333Y-1339048D02*
X947381Y-1329524D01*
X1099762Y-1529524D02*
X1099762Y-1396190D01*
X1099762Y-1415238D02*
X1109286Y-1405714D01*
X1109286Y-1405714D02*
X1128333Y-1396190D01*
X1128333Y-1396190D02*
X1156905Y-1396190D01*
X1156905Y-1396190D02*
X1175952Y-1405714D01*
X1175952Y-1405714D02*
X1185476Y-1424762D01*
X1185476Y-1424762D02*
X1185476Y-1529524D01*
X1185476Y-1424762D02*
X1195000Y-1405714D01*
X1195000Y-1405714D02*
X1214048Y-1396190D01*
X1214048Y-1396190D02*
X1242619Y-1396190D01*
X1242619Y-1396190D02*
X1261667Y-1405714D01*
X1261667Y-1405714D02*
X1271191Y-1424762D01*
X1271191Y-1424762D02*
X1271191Y-1529524D01*
X1366429Y-1529524D02*
X1366429Y-1396190D01*
X1366429Y-1415238D02*
X1375952Y-1405714D01*
X1375952Y-1405714D02*
X1395000Y-1396190D01*
X1395000Y-1396190D02*
X1423571Y-1396190D01*
X1423571Y-1396190D02*
X1442619Y-1405714D01*
X1442619Y-1405714D02*
X1452143Y-1424762D01*
X1452143Y-1424762D02*
X1452143Y-1529524D01*
X1452143Y-1424762D02*
X1461667Y-1405714D01*
X1461667Y-1405714D02*
X1480714Y-1396190D01*
X1480714Y-1396190D02*
X1509286Y-1396190D01*
X1509286Y-1396190D02*
X1528333Y-1405714D01*
X1528333Y-1405714D02*
X1537857Y-1424762D01*
X1537857Y-1424762D02*
X1537857Y-1529524D01*
X1928333Y-1320000D02*
X1756905Y-1577143D01*
X2185476Y-1329524D02*
X2204524Y-1329524D01*
X2204524Y-1329524D02*
X2223572Y-1339048D01*
X2223572Y-1339048D02*
X2233095Y-1348571D01*
X2233095Y-1348571D02*
X2242619Y-1367619D01*
X2242619Y-1367619D02*
X2252143Y-1405714D01*
X2252143Y-1405714D02*
X2252143Y-1453333D01*
X2252143Y-1453333D02*
X2242619Y-1491428D01*
X2242619Y-1491428D02*
X2233095Y-1510476D01*
X2233095Y-1510476D02*
X2223572Y-1520000D01*
X2223572Y-1520000D02*
X2204524Y-1529524D01*
X2204524Y-1529524D02*
X2185476Y-1529524D01*
X2185476Y-1529524D02*
X2166429Y-1520000D01*
X2166429Y-1520000D02*
X2156905Y-1510476D01*
X2156905Y-1510476D02*
X2147381Y-1491428D01*
X2147381Y-1491428D02*
X2137857Y-1453333D01*
X2137857Y-1453333D02*
X2137857Y-1405714D01*
X2137857Y-1405714D02*
X2147381Y-1367619D01*
X2147381Y-1367619D02*
X2156905Y-1348571D01*
X2156905Y-1348571D02*
X2166429Y-1339048D01*
X2166429Y-1339048D02*
X2185476Y-1329524D01*
X2337857Y-1510476D02*
X2347381Y-1520000D01*
X2347381Y-1520000D02*
X2337857Y-1529524D01*
X2337857Y-1529524D02*
X2328334Y-1520000D01*
X2328334Y-1520000D02*
X2337857Y-1510476D01*
X2337857Y-1510476D02*
X2337857Y-1529524D01*
X2471191Y-1329524D02*
X2490238Y-1329524D01*
X2490238Y-1329524D02*
X2509286Y-1339048D01*
X2509286Y-1339048D02*
X2518810Y-1348571D01*
X2518810Y-1348571D02*
X2528334Y-1367619D01*
X2528334Y-1367619D02*
X2537857Y-1405714D01*
X2537857Y-1405714D02*
X2537857Y-1453333D01*
X2537857Y-1453333D02*
X2528334Y-1491428D01*
X2528334Y-1491428D02*
X2518810Y-1510476D01*
X2518810Y-1510476D02*
X2509286Y-1520000D01*
X2509286Y-1520000D02*
X2490238Y-1529524D01*
X2490238Y-1529524D02*
X2471191Y-1529524D01*
X2471191Y-1529524D02*
X2452143Y-1520000D01*
X2452143Y-1520000D02*
X2442619Y-1510476D01*
X2442619Y-1510476D02*
X2433095Y-1491428D01*
X2433095Y-1491428D02*
X2423572Y-1453333D01*
X2423572Y-1453333D02*
X2423572Y-1405714D01*
X2423572Y-1405714D02*
X2433095Y-1367619D01*
X2433095Y-1367619D02*
X2442619Y-1348571D01*
X2442619Y-1348571D02*
X2452143Y-1339048D01*
X2452143Y-1339048D02*
X2471191Y-1329524D01*
X2604524Y-1329524D02*
X2728334Y-1329524D01*
X2728334Y-1329524D02*
X2661667Y-1405714D01*
X2661667Y-1405714D02*
X2690238Y-1405714D01*
X2690238Y-1405714D02*
X2709286Y-1415238D01*
X2709286Y-1415238D02*
X2718810Y-1424762D01*
X2718810Y-1424762D02*
X2728334Y-1443809D01*
X2728334Y-1443809D02*
X2728334Y-1491428D01*
X2728334Y-1491428D02*
X2718810Y-1510476D01*
X2718810Y-1510476D02*
X2709286Y-1520000D01*
X2709286Y-1520000D02*
X2690238Y-1529524D01*
X2690238Y-1529524D02*
X2633095Y-1529524D01*
X2633095Y-1529524D02*
X2614048Y-1520000D01*
X2614048Y-1520000D02*
X2604524Y-1510476D01*
X2795000Y-1329524D02*
X2928333Y-1329524D01*
X2928333Y-1329524D02*
X2842619Y-1529524D01*
X3090238Y-1396190D02*
X3090238Y-1529524D01*
X3042619Y-1320000D02*
X2995000Y-1462857D01*
X2995000Y-1462857D02*
X3118810Y-1462857D01*
X3185476Y-1329524D02*
X3185476Y-1367619D01*
X3261667Y-1329524D02*
X3261667Y-1367619D01*
X3556905Y-1605714D02*
X3547381Y-1596190D01*
X3547381Y-1596190D02*
X3528334Y-1567619D01*
X3528334Y-1567619D02*
X3518810Y-1548571D01*
X3518810Y-1548571D02*
X3509286Y-1520000D01*
X3509286Y-1520000D02*
X3499762Y-1472381D01*
X3499762Y-1472381D02*
X3499762Y-1434286D01*
X3499762Y-1434286D02*
X3509286Y-1386667D01*
X3509286Y-1386667D02*
X3518810Y-1358095D01*
X3518810Y-1358095D02*
X3528334Y-1339048D01*
X3528334Y-1339048D02*
X3547381Y-1310476D01*
X3547381Y-1310476D02*
X3556905Y-1300952D01*
X3661667Y-1415238D02*
X3642619Y-1405714D01*
X3642619Y-1405714D02*
X3633095Y-1396190D01*
X3633095Y-1396190D02*
X3623572Y-1377143D01*
X3623572Y-1377143D02*
X3623572Y-1367619D01*
X3623572Y-1367619D02*
X3633095Y-1348571D01*
X3633095Y-1348571D02*
X3642619Y-1339048D01*
X3642619Y-1339048D02*
X3661667Y-1329524D01*
X3661667Y-1329524D02*
X3699762Y-1329524D01*
X3699762Y-1329524D02*
X3718810Y-1339048D01*
X3718810Y-1339048D02*
X3728334Y-1348571D01*
X3728334Y-1348571D02*
X3737857Y-1367619D01*
X3737857Y-1367619D02*
X3737857Y-1377143D01*
X3737857Y-1377143D02*
X3728334Y-1396190D01*
X3728334Y-1396190D02*
X3718810Y-1405714D01*
X3718810Y-1405714D02*
X3699762Y-1415238D01*
X3699762Y-1415238D02*
X3661667Y-1415238D01*
X3661667Y-1415238D02*
X3642619Y-1424762D01*
X3642619Y-1424762D02*
X3633095Y-1434286D01*
X3633095Y-1434286D02*
X3623572Y-1453333D01*
X3623572Y-1453333D02*
X3623572Y-1491428D01*
X3623572Y-1491428D02*
X3633095Y-1510476D01*
X3633095Y-1510476D02*
X3642619Y-1520000D01*
X3642619Y-1520000D02*
X3661667Y-1529524D01*
X3661667Y-1529524D02*
X3699762Y-1529524D01*
X3699762Y-1529524D02*
X3718810Y-1520000D01*
X3718810Y-1520000D02*
X3728334Y-1510476D01*
X3728334Y-1510476D02*
X3737857Y-1491428D01*
X3737857Y-1491428D02*
X3737857Y-1453333D01*
X3737857Y-1453333D02*
X3728334Y-1434286D01*
X3728334Y-1434286D02*
X3718810Y-1424762D01*
X3718810Y-1424762D02*
X3699762Y-1415238D01*
X3975953Y-1529524D02*
X3975953Y-1329524D01*
X4061667Y-1529524D02*
X4061667Y-1424762D01*
X4061667Y-1424762D02*
X4052143Y-1405714D01*
X4052143Y-1405714D02*
X4033096Y-1396190D01*
X4033096Y-1396190D02*
X4004524Y-1396190D01*
X4004524Y-1396190D02*
X3985476Y-1405714D01*
X3985476Y-1405714D02*
X3975953Y-1415238D01*
X4185476Y-1529524D02*
X4166429Y-1520000D01*
X4166429Y-1520000D02*
X4156905Y-1510476D01*
X4156905Y-1510476D02*
X4147381Y-1491428D01*
X4147381Y-1491428D02*
X4147381Y-1434286D01*
X4147381Y-1434286D02*
X4156905Y-1415238D01*
X4156905Y-1415238D02*
X4166429Y-1405714D01*
X4166429Y-1405714D02*
X4185476Y-1396190D01*
X4185476Y-1396190D02*
X4214048Y-1396190D01*
X4214048Y-1396190D02*
X4233096Y-1405714D01*
X4233096Y-1405714D02*
X4242619Y-1415238D01*
X4242619Y-1415238D02*
X4252143Y-1434286D01*
X4252143Y-1434286D02*
X4252143Y-1491428D01*
X4252143Y-1491428D02*
X4242619Y-1510476D01*
X4242619Y-1510476D02*
X4233096Y-1520000D01*
X4233096Y-1520000D02*
X4214048Y-1529524D01*
X4214048Y-1529524D02*
X4185476Y-1529524D01*
X4366429Y-1529524D02*
X4347381Y-1520000D01*
X4347381Y-1520000D02*
X4337858Y-1500952D01*
X4337858Y-1500952D02*
X4337858Y-1329524D01*
X4518810Y-1520000D02*
X4499762Y-1529524D01*
X4499762Y-1529524D02*
X4461667Y-1529524D01*
X4461667Y-1529524D02*
X4442619Y-1520000D01*
X4442619Y-1520000D02*
X4433096Y-1500952D01*
X4433096Y-1500952D02*
X4433096Y-1424762D01*
X4433096Y-1424762D02*
X4442619Y-1405714D01*
X4442619Y-1405714D02*
X4461667Y-1396190D01*
X4461667Y-1396190D02*
X4499762Y-1396190D01*
X4499762Y-1396190D02*
X4518810Y-1405714D01*
X4518810Y-1405714D02*
X4528334Y-1424762D01*
X4528334Y-1424762D02*
X4528334Y-1443809D01*
X4528334Y-1443809D02*
X4433096Y-1462857D01*
X4604524Y-1520000D02*
X4623572Y-1529524D01*
X4623572Y-1529524D02*
X4661667Y-1529524D01*
X4661667Y-1529524D02*
X4680715Y-1520000D01*
X4680715Y-1520000D02*
X4690239Y-1500952D01*
X4690239Y-1500952D02*
X4690239Y-1491428D01*
X4690239Y-1491428D02*
X4680715Y-1472381D01*
X4680715Y-1472381D02*
X4661667Y-1462857D01*
X4661667Y-1462857D02*
X4633096Y-1462857D01*
X4633096Y-1462857D02*
X4614048Y-1453333D01*
X4614048Y-1453333D02*
X4604524Y-1434286D01*
X4604524Y-1434286D02*
X4604524Y-1424762D01*
X4604524Y-1424762D02*
X4614048Y-1405714D01*
X4614048Y-1405714D02*
X4633096Y-1396190D01*
X4633096Y-1396190D02*
X4661667Y-1396190D01*
X4661667Y-1396190D02*
X4680715Y-1405714D01*
X4756905Y-1605714D02*
X4766429Y-1596190D01*
X4766429Y-1596190D02*
X4785477Y-1567619D01*
X4785477Y-1567619D02*
X4795000Y-1548571D01*
X4795000Y-1548571D02*
X4804524Y-1520000D01*
X4804524Y-1520000D02*
X4814048Y-1472381D01*
X4814048Y-1472381D02*
X4814048Y-1434286D01*
X4814048Y-1434286D02*
X4804524Y-1386667D01*
X4804524Y-1386667D02*
X4795000Y-1358095D01*
X4795000Y-1358095D02*
X4785477Y-1339048D01*
X4785477Y-1339048D02*
X4766429Y-1310476D01*
X4766429Y-1310476D02*
X4756905Y-1300952D01*
D10*
X-55000Y-1751000D02*
X-5000Y-1701000D01*
X-55000Y-1651000D01*
X-105000Y-1701000D01*
X-55000Y-1751000D01*
D11*
X347381Y-1793524D02*
X233095Y-1793524D01*
X290238Y-1793524D02*
X290238Y-1593524D01*
X290238Y-1593524D02*
X271190Y-1622095D01*
X271190Y-1622095D02*
X252143Y-1641143D01*
X252143Y-1641143D02*
X233095Y-1650667D01*
X433095Y-1774476D02*
X442619Y-1784000D01*
X442619Y-1784000D02*
X433095Y-1793524D01*
X433095Y-1793524D02*
X423571Y-1784000D01*
X423571Y-1784000D02*
X433095Y-1774476D01*
X433095Y-1774476D02*
X433095Y-1793524D01*
X566429Y-1593524D02*
X585476Y-1593524D01*
X585476Y-1593524D02*
X604524Y-1603048D01*
X604524Y-1603048D02*
X614048Y-1612571D01*
X614048Y-1612571D02*
X623571Y-1631619D01*
X623571Y-1631619D02*
X633095Y-1669714D01*
X633095Y-1669714D02*
X633095Y-1717333D01*
X633095Y-1717333D02*
X623571Y-1755428D01*
X623571Y-1755428D02*
X614048Y-1774476D01*
X614048Y-1774476D02*
X604524Y-1784000D01*
X604524Y-1784000D02*
X585476Y-1793524D01*
X585476Y-1793524D02*
X566429Y-1793524D01*
X566429Y-1793524D02*
X547381Y-1784000D01*
X547381Y-1784000D02*
X537857Y-1774476D01*
X537857Y-1774476D02*
X528333Y-1755428D01*
X528333Y-1755428D02*
X518809Y-1717333D01*
X518809Y-1717333D02*
X518809Y-1669714D01*
X518809Y-1669714D02*
X528333Y-1631619D01*
X528333Y-1631619D02*
X537857Y-1612571D01*
X537857Y-1612571D02*
X547381Y-1603048D01*
X547381Y-1603048D02*
X566429Y-1593524D01*
X756905Y-1593524D02*
X775952Y-1593524D01*
X775952Y-1593524D02*
X795000Y-1603048D01*
X795000Y-1603048D02*
X804524Y-1612571D01*
X804524Y-1612571D02*
X814048Y-1631619D01*
X814048Y-1631619D02*
X823571Y-1669714D01*
X823571Y-1669714D02*
X823571Y-1717333D01*
X823571Y-1717333D02*
X814048Y-1755428D01*
X814048Y-1755428D02*
X804524Y-1774476D01*
X804524Y-1774476D02*
X795000Y-1784000D01*
X795000Y-1784000D02*
X775952Y-1793524D01*
X775952Y-1793524D02*
X756905Y-1793524D01*
X756905Y-1793524D02*
X737857Y-1784000D01*
X737857Y-1784000D02*
X728333Y-1774476D01*
X728333Y-1774476D02*
X718809Y-1755428D01*
X718809Y-1755428D02*
X709286Y-1717333D01*
X709286Y-1717333D02*
X709286Y-1669714D01*
X709286Y-1669714D02*
X718809Y-1631619D01*
X718809Y-1631619D02*
X728333Y-1612571D01*
X728333Y-1612571D02*
X737857Y-1603048D01*
X737857Y-1603048D02*
X756905Y-1593524D01*
X947381Y-1593524D02*
X966429Y-1593524D01*
X966429Y-1593524D02*
X985476Y-1603048D01*
X985476Y-1603048D02*
X995000Y-1612571D01*
X995000Y-1612571D02*
X1004524Y-1631619D01*
X1004524Y-1631619D02*
X1014048Y-1669714D01*
X1014048Y-1669714D02*
X1014048Y-1717333D01*
X1014048Y-1717333D02*
X1004524Y-1755428D01*
X1004524Y-1755428D02*
X995000Y-1774476D01*
X995000Y-1774476D02*
X985476Y-1784000D01*
X985476Y-1784000D02*
X966429Y-1793524D01*
X966429Y-1793524D02*
X947381Y-1793524D01*
X947381Y-1793524D02*
X928333Y-1784000D01*
X928333Y-1784000D02*
X918809Y-1774476D01*
X918809Y-1774476D02*
X909286Y-1755428D01*
X909286Y-1755428D02*
X899762Y-1717333D01*
X899762Y-1717333D02*
X899762Y-1669714D01*
X899762Y-1669714D02*
X909286Y-1631619D01*
X909286Y-1631619D02*
X918809Y-1612571D01*
X918809Y-1612571D02*
X928333Y-1603048D01*
X928333Y-1603048D02*
X947381Y-1593524D01*
X1099762Y-1793524D02*
X1099762Y-1660190D01*
X1099762Y-1679238D02*
X1109286Y-1669714D01*
X1109286Y-1669714D02*
X1128333Y-1660190D01*
X1128333Y-1660190D02*
X1156905Y-1660190D01*
X1156905Y-1660190D02*
X1175952Y-1669714D01*
X1175952Y-1669714D02*
X1185476Y-1688762D01*
X1185476Y-1688762D02*
X1185476Y-1793524D01*
X1185476Y-1688762D02*
X1195000Y-1669714D01*
X1195000Y-1669714D02*
X1214048Y-1660190D01*
X1214048Y-1660190D02*
X1242619Y-1660190D01*
X1242619Y-1660190D02*
X1261667Y-1669714D01*
X1261667Y-1669714D02*
X1271191Y-1688762D01*
X1271191Y-1688762D02*
X1271191Y-1793524D01*
X1366429Y-1793524D02*
X1366429Y-1660190D01*
X1366429Y-1679238D02*
X1375952Y-1669714D01*
X1375952Y-1669714D02*
X1395000Y-1660190D01*
X1395000Y-1660190D02*
X1423571Y-1660190D01*
X1423571Y-1660190D02*
X1442619Y-1669714D01*
X1442619Y-1669714D02*
X1452143Y-1688762D01*
X1452143Y-1688762D02*
X1452143Y-1793524D01*
X1452143Y-1688762D02*
X1461667Y-1669714D01*
X1461667Y-1669714D02*
X1480714Y-1660190D01*
X1480714Y-1660190D02*
X1509286Y-1660190D01*
X1509286Y-1660190D02*
X1528333Y-1669714D01*
X1528333Y-1669714D02*
X1537857Y-1688762D01*
X1537857Y-1688762D02*
X1537857Y-1793524D01*
X1928333Y-1584000D02*
X1756905Y-1841143D01*
X2185476Y-1593524D02*
X2204524Y-1593524D01*
X2204524Y-1593524D02*
X2223572Y-1603048D01*
X2223572Y-1603048D02*
X2233095Y-1612571D01*
X2233095Y-1612571D02*
X2242619Y-1631619D01*
X2242619Y-1631619D02*
X2252143Y-1669714D01*
X2252143Y-1669714D02*
X2252143Y-1717333D01*
X2252143Y-1717333D02*
X2242619Y-1755428D01*
X2242619Y-1755428D02*
X2233095Y-1774476D01*
X2233095Y-1774476D02*
X2223572Y-1784000D01*
X2223572Y-1784000D02*
X2204524Y-1793524D01*
X2204524Y-1793524D02*
X2185476Y-1793524D01*
X2185476Y-1793524D02*
X2166429Y-1784000D01*
X2166429Y-1784000D02*
X2156905Y-1774476D01*
X2156905Y-1774476D02*
X2147381Y-1755428D01*
X2147381Y-1755428D02*
X2137857Y-1717333D01*
X2137857Y-1717333D02*
X2137857Y-1669714D01*
X2137857Y-1669714D02*
X2147381Y-1631619D01*
X2147381Y-1631619D02*
X2156905Y-1612571D01*
X2156905Y-1612571D02*
X2166429Y-1603048D01*
X2166429Y-1603048D02*
X2185476Y-1593524D01*
X2337857Y-1774476D02*
X2347381Y-1784000D01*
X2347381Y-1784000D02*
X2337857Y-1793524D01*
X2337857Y-1793524D02*
X2328334Y-1784000D01*
X2328334Y-1784000D02*
X2337857Y-1774476D01*
X2337857Y-1774476D02*
X2337857Y-1793524D01*
X2471191Y-1593524D02*
X2490238Y-1593524D01*
X2490238Y-1593524D02*
X2509286Y-1603048D01*
X2509286Y-1603048D02*
X2518810Y-1612571D01*
X2518810Y-1612571D02*
X2528334Y-1631619D01*
X2528334Y-1631619D02*
X2537857Y-1669714D01*
X2537857Y-1669714D02*
X2537857Y-1717333D01*
X2537857Y-1717333D02*
X2528334Y-1755428D01*
X2528334Y-1755428D02*
X2518810Y-1774476D01*
X2518810Y-1774476D02*
X2509286Y-1784000D01*
X2509286Y-1784000D02*
X2490238Y-1793524D01*
X2490238Y-1793524D02*
X2471191Y-1793524D01*
X2471191Y-1793524D02*
X2452143Y-1784000D01*
X2452143Y-1784000D02*
X2442619Y-1774476D01*
X2442619Y-1774476D02*
X2433095Y-1755428D01*
X2433095Y-1755428D02*
X2423572Y-1717333D01*
X2423572Y-1717333D02*
X2423572Y-1669714D01*
X2423572Y-1669714D02*
X2433095Y-1631619D01*
X2433095Y-1631619D02*
X2442619Y-1612571D01*
X2442619Y-1612571D02*
X2452143Y-1603048D01*
X2452143Y-1603048D02*
X2471191Y-1593524D01*
X2604524Y-1593524D02*
X2728334Y-1593524D01*
X2728334Y-1593524D02*
X2661667Y-1669714D01*
X2661667Y-1669714D02*
X2690238Y-1669714D01*
X2690238Y-1669714D02*
X2709286Y-1679238D01*
X2709286Y-1679238D02*
X2718810Y-1688762D01*
X2718810Y-1688762D02*
X2728334Y-1707809D01*
X2728334Y-1707809D02*
X2728334Y-1755428D01*
X2728334Y-1755428D02*
X2718810Y-1774476D01*
X2718810Y-1774476D02*
X2709286Y-1784000D01*
X2709286Y-1784000D02*
X2690238Y-1793524D01*
X2690238Y-1793524D02*
X2633095Y-1793524D01*
X2633095Y-1793524D02*
X2614048Y-1784000D01*
X2614048Y-1784000D02*
X2604524Y-1774476D01*
X2823572Y-1793524D02*
X2861667Y-1793524D01*
X2861667Y-1793524D02*
X2880714Y-1784000D01*
X2880714Y-1784000D02*
X2890238Y-1774476D01*
X2890238Y-1774476D02*
X2909286Y-1745905D01*
X2909286Y-1745905D02*
X2918810Y-1707809D01*
X2918810Y-1707809D02*
X2918810Y-1631619D01*
X2918810Y-1631619D02*
X2909286Y-1612571D01*
X2909286Y-1612571D02*
X2899762Y-1603048D01*
X2899762Y-1603048D02*
X2880714Y-1593524D01*
X2880714Y-1593524D02*
X2842619Y-1593524D01*
X2842619Y-1593524D02*
X2823572Y-1603048D01*
X2823572Y-1603048D02*
X2814048Y-1612571D01*
X2814048Y-1612571D02*
X2804524Y-1631619D01*
X2804524Y-1631619D02*
X2804524Y-1679238D01*
X2804524Y-1679238D02*
X2814048Y-1698286D01*
X2814048Y-1698286D02*
X2823572Y-1707809D01*
X2823572Y-1707809D02*
X2842619Y-1717333D01*
X2842619Y-1717333D02*
X2880714Y-1717333D01*
X2880714Y-1717333D02*
X2899762Y-1707809D01*
X2899762Y-1707809D02*
X2909286Y-1698286D01*
X2909286Y-1698286D02*
X2918810Y-1679238D01*
X3090238Y-1660190D02*
X3090238Y-1793524D01*
X3042619Y-1584000D02*
X2995000Y-1726857D01*
X2995000Y-1726857D02*
X3118810Y-1726857D01*
X3185476Y-1593524D02*
X3185476Y-1631619D01*
X3261667Y-1593524D02*
X3261667Y-1631619D01*
X3556905Y-1869714D02*
X3547381Y-1860190D01*
X3547381Y-1860190D02*
X3528334Y-1831619D01*
X3528334Y-1831619D02*
X3518810Y-1812571D01*
X3518810Y-1812571D02*
X3509286Y-1784000D01*
X3509286Y-1784000D02*
X3499762Y-1736381D01*
X3499762Y-1736381D02*
X3499762Y-1698286D01*
X3499762Y-1698286D02*
X3509286Y-1650667D01*
X3509286Y-1650667D02*
X3518810Y-1622095D01*
X3518810Y-1622095D02*
X3528334Y-1603048D01*
X3528334Y-1603048D02*
X3547381Y-1574476D01*
X3547381Y-1574476D02*
X3556905Y-1564952D01*
X3614048Y-1593524D02*
X3737857Y-1593524D01*
X3737857Y-1593524D02*
X3671191Y-1669714D01*
X3671191Y-1669714D02*
X3699762Y-1669714D01*
X3699762Y-1669714D02*
X3718810Y-1679238D01*
X3718810Y-1679238D02*
X3728334Y-1688762D01*
X3728334Y-1688762D02*
X3737857Y-1707809D01*
X3737857Y-1707809D02*
X3737857Y-1755428D01*
X3737857Y-1755428D02*
X3728334Y-1774476D01*
X3728334Y-1774476D02*
X3718810Y-1784000D01*
X3718810Y-1784000D02*
X3699762Y-1793524D01*
X3699762Y-1793524D02*
X3642619Y-1793524D01*
X3642619Y-1793524D02*
X3623572Y-1784000D01*
X3623572Y-1784000D02*
X3614048Y-1774476D01*
X3833095Y-1793524D02*
X3871191Y-1793524D01*
X3871191Y-1793524D02*
X3890238Y-1784000D01*
X3890238Y-1784000D02*
X3899762Y-1774476D01*
X3899762Y-1774476D02*
X3918810Y-1745905D01*
X3918810Y-1745905D02*
X3928334Y-1707809D01*
X3928334Y-1707809D02*
X3928334Y-1631619D01*
X3928334Y-1631619D02*
X3918810Y-1612571D01*
X3918810Y-1612571D02*
X3909286Y-1603048D01*
X3909286Y-1603048D02*
X3890238Y-1593524D01*
X3890238Y-1593524D02*
X3852143Y-1593524D01*
X3852143Y-1593524D02*
X3833095Y-1603048D01*
X3833095Y-1603048D02*
X3823572Y-1612571D01*
X3823572Y-1612571D02*
X3814048Y-1631619D01*
X3814048Y-1631619D02*
X3814048Y-1679238D01*
X3814048Y-1679238D02*
X3823572Y-1698286D01*
X3823572Y-1698286D02*
X3833095Y-1707809D01*
X3833095Y-1707809D02*
X3852143Y-1717333D01*
X3852143Y-1717333D02*
X3890238Y-1717333D01*
X3890238Y-1717333D02*
X3909286Y-1707809D01*
X3909286Y-1707809D02*
X3918810Y-1698286D01*
X3918810Y-1698286D02*
X3928334Y-1679238D01*
X4166429Y-1793524D02*
X4166429Y-1593524D01*
X4252143Y-1793524D02*
X4252143Y-1688762D01*
X4252143Y-1688762D02*
X4242619Y-1669714D01*
X4242619Y-1669714D02*
X4223572Y-1660190D01*
X4223572Y-1660190D02*
X4195000Y-1660190D01*
X4195000Y-1660190D02*
X4175953Y-1669714D01*
X4175953Y-1669714D02*
X4166429Y-1679238D01*
X4375953Y-1793524D02*
X4356905Y-1784000D01*
X4356905Y-1784000D02*
X4347381Y-1774476D01*
X4347381Y-1774476D02*
X4337858Y-1755428D01*
X4337858Y-1755428D02*
X4337858Y-1698286D01*
X4337858Y-1698286D02*
X4347381Y-1679238D01*
X4347381Y-1679238D02*
X4356905Y-1669714D01*
X4356905Y-1669714D02*
X4375953Y-1660190D01*
X4375953Y-1660190D02*
X4404524Y-1660190D01*
X4404524Y-1660190D02*
X4423572Y-1669714D01*
X4423572Y-1669714D02*
X4433096Y-1679238D01*
X4433096Y-1679238D02*
X4442619Y-1698286D01*
X4442619Y-1698286D02*
X4442619Y-1755428D01*
X4442619Y-1755428D02*
X4433096Y-1774476D01*
X4433096Y-1774476D02*
X4423572Y-1784000D01*
X4423572Y-1784000D02*
X4404524Y-1793524D01*
X4404524Y-1793524D02*
X4375953Y-1793524D01*
X4556905Y-1793524D02*
X4537858Y-1784000D01*
X4537858Y-1784000D02*
X4528334Y-1764952D01*
X4528334Y-1764952D02*
X4528334Y-1593524D01*
X4709286Y-1784000D02*
X4690239Y-1793524D01*
X4690239Y-1793524D02*
X4652143Y-1793524D01*
X4652143Y-1793524D02*
X4633096Y-1784000D01*
X4633096Y-1784000D02*
X4623572Y-1764952D01*
X4623572Y-1764952D02*
X4623572Y-1688762D01*
X4623572Y-1688762D02*
X4633096Y-1669714D01*
X4633096Y-1669714D02*
X4652143Y-1660190D01*
X4652143Y-1660190D02*
X4690239Y-1660190D01*
X4690239Y-1660190D02*
X4709286Y-1669714D01*
X4709286Y-1669714D02*
X4718810Y-1688762D01*
X4718810Y-1688762D02*
X4718810Y-1707809D01*
X4718810Y-1707809D02*
X4623572Y-1726857D01*
X4795000Y-1784000D02*
X4814048Y-1793524D01*
X4814048Y-1793524D02*
X4852143Y-1793524D01*
X4852143Y-1793524D02*
X4871191Y-1784000D01*
X4871191Y-1784000D02*
X4880715Y-1764952D01*
X4880715Y-1764952D02*
X4880715Y-1755428D01*
X4880715Y-1755428D02*
X4871191Y-1736381D01*
X4871191Y-1736381D02*
X4852143Y-1726857D01*
X4852143Y-1726857D02*
X4823572Y-1726857D01*
X4823572Y-1726857D02*
X4804524Y-1717333D01*
X4804524Y-1717333D02*
X4795000Y-1698286D01*
X4795000Y-1698286D02*
X4795000Y-1688762D01*
X4795000Y-1688762D02*
X4804524Y-1669714D01*
X4804524Y-1669714D02*
X4823572Y-1660190D01*
X4823572Y-1660190D02*
X4852143Y-1660190D01*
X4852143Y-1660190D02*
X4871191Y-1669714D01*
X4947381Y-1869714D02*
X4956905Y-1860190D01*
X4956905Y-1860190D02*
X4975953Y-1831619D01*
X4975953Y-1831619D02*
X4985477Y-1812571D01*
X4985477Y-1812571D02*
X4995000Y-1784000D01*
X4995000Y-1784000D02*
X5004524Y-1736381D01*
X5004524Y-1736381D02*
X5004524Y-1698286D01*
X5004524Y-1698286D02*
X4995000Y-1650667D01*
X4995000Y-1650667D02*
X4985477Y-1622095D01*
X4985477Y-1622095D02*
X4975953Y-1603048D01*
X4975953Y-1603048D02*
X4956905Y-1574476D01*
X4956905Y-1574476D02*
X4947381Y-1564952D01*
D16*
X-155000Y-1890000D02*
X-5000Y-2040000D01*
X-5000Y-1890000D02*
X-155000Y-2040000D01*
X-5000Y-1965000D02*
G75*
G03*
X-5000Y-1965000I-75000J0D01*
G01*
D11*
X347381Y-2057524D02*
X233095Y-2057524D01*
X290238Y-2057524D02*
X290238Y-1857524D01*
X290238Y-1857524D02*
X271190Y-1886095D01*
X271190Y-1886095D02*
X252143Y-1905143D01*
X252143Y-1905143D02*
X233095Y-1914667D01*
X433095Y-2038476D02*
X442619Y-2048000D01*
X442619Y-2048000D02*
X433095Y-2057524D01*
X433095Y-2057524D02*
X423571Y-2048000D01*
X423571Y-2048000D02*
X433095Y-2038476D01*
X433095Y-2038476D02*
X433095Y-2057524D01*
X623571Y-1857524D02*
X528333Y-1857524D01*
X528333Y-1857524D02*
X518809Y-1952762D01*
X518809Y-1952762D02*
X528333Y-1943238D01*
X528333Y-1943238D02*
X547381Y-1933714D01*
X547381Y-1933714D02*
X595000Y-1933714D01*
X595000Y-1933714D02*
X614048Y-1943238D01*
X614048Y-1943238D02*
X623571Y-1952762D01*
X623571Y-1952762D02*
X633095Y-1971809D01*
X633095Y-1971809D02*
X633095Y-2019428D01*
X633095Y-2019428D02*
X623571Y-2038476D01*
X623571Y-2038476D02*
X614048Y-2048000D01*
X614048Y-2048000D02*
X595000Y-2057524D01*
X595000Y-2057524D02*
X547381Y-2057524D01*
X547381Y-2057524D02*
X528333Y-2048000D01*
X528333Y-2048000D02*
X518809Y-2038476D01*
X756905Y-1857524D02*
X775952Y-1857524D01*
X775952Y-1857524D02*
X795000Y-1867048D01*
X795000Y-1867048D02*
X804524Y-1876571D01*
X804524Y-1876571D02*
X814048Y-1895619D01*
X814048Y-1895619D02*
X823571Y-1933714D01*
X823571Y-1933714D02*
X823571Y-1981333D01*
X823571Y-1981333D02*
X814048Y-2019428D01*
X814048Y-2019428D02*
X804524Y-2038476D01*
X804524Y-2038476D02*
X795000Y-2048000D01*
X795000Y-2048000D02*
X775952Y-2057524D01*
X775952Y-2057524D02*
X756905Y-2057524D01*
X756905Y-2057524D02*
X737857Y-2048000D01*
X737857Y-2048000D02*
X728333Y-2038476D01*
X728333Y-2038476D02*
X718809Y-2019428D01*
X718809Y-2019428D02*
X709286Y-1981333D01*
X709286Y-1981333D02*
X709286Y-1933714D01*
X709286Y-1933714D02*
X718809Y-1895619D01*
X718809Y-1895619D02*
X728333Y-1876571D01*
X728333Y-1876571D02*
X737857Y-1867048D01*
X737857Y-1867048D02*
X756905Y-1857524D01*
X947381Y-1857524D02*
X966429Y-1857524D01*
X966429Y-1857524D02*
X985476Y-1867048D01*
X985476Y-1867048D02*
X995000Y-1876571D01*
X995000Y-1876571D02*
X1004524Y-1895619D01*
X1004524Y-1895619D02*
X1014048Y-1933714D01*
X1014048Y-1933714D02*
X1014048Y-1981333D01*
X1014048Y-1981333D02*
X1004524Y-2019428D01*
X1004524Y-2019428D02*
X995000Y-2038476D01*
X995000Y-2038476D02*
X985476Y-2048000D01*
X985476Y-2048000D02*
X966429Y-2057524D01*
X966429Y-2057524D02*
X947381Y-2057524D01*
X947381Y-2057524D02*
X928333Y-2048000D01*
X928333Y-2048000D02*
X918809Y-2038476D01*
X918809Y-2038476D02*
X909286Y-2019428D01*
X909286Y-2019428D02*
X899762Y-1981333D01*
X899762Y-1981333D02*
X899762Y-1933714D01*
X899762Y-1933714D02*
X909286Y-1895619D01*
X909286Y-1895619D02*
X918809Y-1876571D01*
X918809Y-1876571D02*
X928333Y-1867048D01*
X928333Y-1867048D02*
X947381Y-1857524D01*
X1099762Y-2057524D02*
X1099762Y-1924190D01*
X1099762Y-1943238D02*
X1109286Y-1933714D01*
X1109286Y-1933714D02*
X1128333Y-1924190D01*
X1128333Y-1924190D02*
X1156905Y-1924190D01*
X1156905Y-1924190D02*
X1175952Y-1933714D01*
X1175952Y-1933714D02*
X1185476Y-1952762D01*
X1185476Y-1952762D02*
X1185476Y-2057524D01*
X1185476Y-1952762D02*
X1195000Y-1933714D01*
X1195000Y-1933714D02*
X1214048Y-1924190D01*
X1214048Y-1924190D02*
X1242619Y-1924190D01*
X1242619Y-1924190D02*
X1261667Y-1933714D01*
X1261667Y-1933714D02*
X1271191Y-1952762D01*
X1271191Y-1952762D02*
X1271191Y-2057524D01*
X1366429Y-2057524D02*
X1366429Y-1924190D01*
X1366429Y-1943238D02*
X1375952Y-1933714D01*
X1375952Y-1933714D02*
X1395000Y-1924190D01*
X1395000Y-1924190D02*
X1423571Y-1924190D01*
X1423571Y-1924190D02*
X1442619Y-1933714D01*
X1442619Y-1933714D02*
X1452143Y-1952762D01*
X1452143Y-1952762D02*
X1452143Y-2057524D01*
X1452143Y-1952762D02*
X1461667Y-1933714D01*
X1461667Y-1933714D02*
X1480714Y-1924190D01*
X1480714Y-1924190D02*
X1509286Y-1924190D01*
X1509286Y-1924190D02*
X1528333Y-1933714D01*
X1528333Y-1933714D02*
X1537857Y-1952762D01*
X1537857Y-1952762D02*
X1537857Y-2057524D01*
X1928333Y-1848000D02*
X1756905Y-2105143D01*
X2185476Y-1857524D02*
X2204524Y-1857524D01*
X2204524Y-1857524D02*
X2223572Y-1867048D01*
X2223572Y-1867048D02*
X2233095Y-1876571D01*
X2233095Y-1876571D02*
X2242619Y-1895619D01*
X2242619Y-1895619D02*
X2252143Y-1933714D01*
X2252143Y-1933714D02*
X2252143Y-1981333D01*
X2252143Y-1981333D02*
X2242619Y-2019428D01*
X2242619Y-2019428D02*
X2233095Y-2038476D01*
X2233095Y-2038476D02*
X2223572Y-2048000D01*
X2223572Y-2048000D02*
X2204524Y-2057524D01*
X2204524Y-2057524D02*
X2185476Y-2057524D01*
X2185476Y-2057524D02*
X2166429Y-2048000D01*
X2166429Y-2048000D02*
X2156905Y-2038476D01*
X2156905Y-2038476D02*
X2147381Y-2019428D01*
X2147381Y-2019428D02*
X2137857Y-1981333D01*
X2137857Y-1981333D02*
X2137857Y-1933714D01*
X2137857Y-1933714D02*
X2147381Y-1895619D01*
X2147381Y-1895619D02*
X2156905Y-1876571D01*
X2156905Y-1876571D02*
X2166429Y-1867048D01*
X2166429Y-1867048D02*
X2185476Y-1857524D01*
X2337857Y-2038476D02*
X2347381Y-2048000D01*
X2347381Y-2048000D02*
X2337857Y-2057524D01*
X2337857Y-2057524D02*
X2328334Y-2048000D01*
X2328334Y-2048000D02*
X2337857Y-2038476D01*
X2337857Y-2038476D02*
X2337857Y-2057524D01*
X2471191Y-1857524D02*
X2490238Y-1857524D01*
X2490238Y-1857524D02*
X2509286Y-1867048D01*
X2509286Y-1867048D02*
X2518810Y-1876571D01*
X2518810Y-1876571D02*
X2528334Y-1895619D01*
X2528334Y-1895619D02*
X2537857Y-1933714D01*
X2537857Y-1933714D02*
X2537857Y-1981333D01*
X2537857Y-1981333D02*
X2528334Y-2019428D01*
X2528334Y-2019428D02*
X2518810Y-2038476D01*
X2518810Y-2038476D02*
X2509286Y-2048000D01*
X2509286Y-2048000D02*
X2490238Y-2057524D01*
X2490238Y-2057524D02*
X2471191Y-2057524D01*
X2471191Y-2057524D02*
X2452143Y-2048000D01*
X2452143Y-2048000D02*
X2442619Y-2038476D01*
X2442619Y-2038476D02*
X2433095Y-2019428D01*
X2433095Y-2019428D02*
X2423572Y-1981333D01*
X2423572Y-1981333D02*
X2423572Y-1933714D01*
X2423572Y-1933714D02*
X2433095Y-1895619D01*
X2433095Y-1895619D02*
X2442619Y-1876571D01*
X2442619Y-1876571D02*
X2452143Y-1867048D01*
X2452143Y-1867048D02*
X2471191Y-1857524D01*
X2718810Y-1857524D02*
X2623572Y-1857524D01*
X2623572Y-1857524D02*
X2614048Y-1952762D01*
X2614048Y-1952762D02*
X2623572Y-1943238D01*
X2623572Y-1943238D02*
X2642619Y-1933714D01*
X2642619Y-1933714D02*
X2690238Y-1933714D01*
X2690238Y-1933714D02*
X2709286Y-1943238D01*
X2709286Y-1943238D02*
X2718810Y-1952762D01*
X2718810Y-1952762D02*
X2728334Y-1971809D01*
X2728334Y-1971809D02*
X2728334Y-2019428D01*
X2728334Y-2019428D02*
X2718810Y-2038476D01*
X2718810Y-2038476D02*
X2709286Y-2048000D01*
X2709286Y-2048000D02*
X2690238Y-2057524D01*
X2690238Y-2057524D02*
X2642619Y-2057524D01*
X2642619Y-2057524D02*
X2623572Y-2048000D01*
X2623572Y-2048000D02*
X2614048Y-2038476D01*
X2823572Y-2057524D02*
X2861667Y-2057524D01*
X2861667Y-2057524D02*
X2880714Y-2048000D01*
X2880714Y-2048000D02*
X2890238Y-2038476D01*
X2890238Y-2038476D02*
X2909286Y-2009905D01*
X2909286Y-2009905D02*
X2918810Y-1971809D01*
X2918810Y-1971809D02*
X2918810Y-1895619D01*
X2918810Y-1895619D02*
X2909286Y-1876571D01*
X2909286Y-1876571D02*
X2899762Y-1867048D01*
X2899762Y-1867048D02*
X2880714Y-1857524D01*
X2880714Y-1857524D02*
X2842619Y-1857524D01*
X2842619Y-1857524D02*
X2823572Y-1867048D01*
X2823572Y-1867048D02*
X2814048Y-1876571D01*
X2814048Y-1876571D02*
X2804524Y-1895619D01*
X2804524Y-1895619D02*
X2804524Y-1943238D01*
X2804524Y-1943238D02*
X2814048Y-1962286D01*
X2814048Y-1962286D02*
X2823572Y-1971809D01*
X2823572Y-1971809D02*
X2842619Y-1981333D01*
X2842619Y-1981333D02*
X2880714Y-1981333D01*
X2880714Y-1981333D02*
X2899762Y-1971809D01*
X2899762Y-1971809D02*
X2909286Y-1962286D01*
X2909286Y-1962286D02*
X2918810Y-1943238D01*
X3109286Y-2057524D02*
X2995000Y-2057524D01*
X3052143Y-2057524D02*
X3052143Y-1857524D01*
X3052143Y-1857524D02*
X3033095Y-1886095D01*
X3033095Y-1886095D02*
X3014048Y-1905143D01*
X3014048Y-1905143D02*
X2995000Y-1914667D01*
X3185476Y-1857524D02*
X3185476Y-1895619D01*
X3261667Y-1857524D02*
X3261667Y-1895619D01*
X3556905Y-2133714D02*
X3547381Y-2124190D01*
X3547381Y-2124190D02*
X3528334Y-2095619D01*
X3528334Y-2095619D02*
X3518810Y-2076571D01*
X3518810Y-2076571D02*
X3509286Y-2048000D01*
X3509286Y-2048000D02*
X3499762Y-2000381D01*
X3499762Y-2000381D02*
X3499762Y-1962286D01*
X3499762Y-1962286D02*
X3509286Y-1914667D01*
X3509286Y-1914667D02*
X3518810Y-1886095D01*
X3518810Y-1886095D02*
X3528334Y-1867048D01*
X3528334Y-1867048D02*
X3547381Y-1838476D01*
X3547381Y-1838476D02*
X3556905Y-1828952D01*
X3737857Y-2057524D02*
X3623572Y-2057524D01*
X3680714Y-2057524D02*
X3680714Y-1857524D01*
X3680714Y-1857524D02*
X3661667Y-1886095D01*
X3661667Y-1886095D02*
X3642619Y-1905143D01*
X3642619Y-1905143D02*
X3623572Y-1914667D01*
X3928334Y-2057524D02*
X3814048Y-2057524D01*
X3871191Y-2057524D02*
X3871191Y-1857524D01*
X3871191Y-1857524D02*
X3852143Y-1886095D01*
X3852143Y-1886095D02*
X3833095Y-1905143D01*
X3833095Y-1905143D02*
X3814048Y-1914667D01*
X4099762Y-1857524D02*
X4061667Y-1857524D01*
X4061667Y-1857524D02*
X4042619Y-1867048D01*
X4042619Y-1867048D02*
X4033095Y-1876571D01*
X4033095Y-1876571D02*
X4014048Y-1905143D01*
X4014048Y-1905143D02*
X4004524Y-1943238D01*
X4004524Y-1943238D02*
X4004524Y-2019428D01*
X4004524Y-2019428D02*
X4014048Y-2038476D01*
X4014048Y-2038476D02*
X4023572Y-2048000D01*
X4023572Y-2048000D02*
X4042619Y-2057524D01*
X4042619Y-2057524D02*
X4080715Y-2057524D01*
X4080715Y-2057524D02*
X4099762Y-2048000D01*
X4099762Y-2048000D02*
X4109286Y-2038476D01*
X4109286Y-2038476D02*
X4118810Y-2019428D01*
X4118810Y-2019428D02*
X4118810Y-1971809D01*
X4118810Y-1971809D02*
X4109286Y-1952762D01*
X4109286Y-1952762D02*
X4099762Y-1943238D01*
X4099762Y-1943238D02*
X4080715Y-1933714D01*
X4080715Y-1933714D02*
X4042619Y-1933714D01*
X4042619Y-1933714D02*
X4023572Y-1943238D01*
X4023572Y-1943238D02*
X4014048Y-1952762D01*
X4014048Y-1952762D02*
X4004524Y-1971809D01*
X4356905Y-2057524D02*
X4356905Y-1857524D01*
X4442619Y-2057524D02*
X4442619Y-1952762D01*
X4442619Y-1952762D02*
X4433096Y-1933714D01*
X4433096Y-1933714D02*
X4414048Y-1924190D01*
X4414048Y-1924190D02*
X4385477Y-1924190D01*
X4385477Y-1924190D02*
X4366429Y-1933714D01*
X4366429Y-1933714D02*
X4356905Y-1943238D01*
X4566429Y-2057524D02*
X4547381Y-2048000D01*
X4547381Y-2048000D02*
X4537858Y-2038476D01*
X4537858Y-2038476D02*
X4528334Y-2019428D01*
X4528334Y-2019428D02*
X4528334Y-1962286D01*
X4528334Y-1962286D02*
X4537858Y-1943238D01*
X4537858Y-1943238D02*
X4547381Y-1933714D01*
X4547381Y-1933714D02*
X4566429Y-1924190D01*
X4566429Y-1924190D02*
X4595000Y-1924190D01*
X4595000Y-1924190D02*
X4614048Y-1933714D01*
X4614048Y-1933714D02*
X4623572Y-1943238D01*
X4623572Y-1943238D02*
X4633096Y-1962286D01*
X4633096Y-1962286D02*
X4633096Y-2019428D01*
X4633096Y-2019428D02*
X4623572Y-2038476D01*
X4623572Y-2038476D02*
X4614048Y-2048000D01*
X4614048Y-2048000D02*
X4595000Y-2057524D01*
X4595000Y-2057524D02*
X4566429Y-2057524D01*
X4747381Y-2057524D02*
X4728334Y-2048000D01*
X4728334Y-2048000D02*
X4718810Y-2028952D01*
X4718810Y-2028952D02*
X4718810Y-1857524D01*
X4899762Y-2048000D02*
X4880715Y-2057524D01*
X4880715Y-2057524D02*
X4842619Y-2057524D01*
X4842619Y-2057524D02*
X4823572Y-2048000D01*
X4823572Y-2048000D02*
X4814048Y-2028952D01*
X4814048Y-2028952D02*
X4814048Y-1952762D01*
X4814048Y-1952762D02*
X4823572Y-1933714D01*
X4823572Y-1933714D02*
X4842619Y-1924190D01*
X4842619Y-1924190D02*
X4880715Y-1924190D01*
X4880715Y-1924190D02*
X4899762Y-1933714D01*
X4899762Y-1933714D02*
X4909286Y-1952762D01*
X4909286Y-1952762D02*
X4909286Y-1971809D01*
X4909286Y-1971809D02*
X4814048Y-1990857D01*
X4985477Y-2048000D02*
X5004524Y-2057524D01*
X5004524Y-2057524D02*
X5042619Y-2057524D01*
X5042619Y-2057524D02*
X5061667Y-2048000D01*
X5061667Y-2048000D02*
X5071191Y-2028952D01*
X5071191Y-2028952D02*
X5071191Y-2019428D01*
X5071191Y-2019428D02*
X5061667Y-2000381D01*
X5061667Y-2000381D02*
X5042619Y-1990857D01*
X5042619Y-1990857D02*
X5014048Y-1990857D01*
X5014048Y-1990857D02*
X4995000Y-1981333D01*
X4995000Y-1981333D02*
X4985477Y-1962286D01*
X4985477Y-1962286D02*
X4985477Y-1952762D01*
X4985477Y-1952762D02*
X4995000Y-1933714D01*
X4995000Y-1933714D02*
X5014048Y-1924190D01*
X5014048Y-1924190D02*
X5042619Y-1924190D01*
X5042619Y-1924190D02*
X5061667Y-1933714D01*
X5137858Y-2133714D02*
X5147381Y-2124190D01*
X5147381Y-2124190D02*
X5166429Y-2095619D01*
X5166429Y-2095619D02*
X5175953Y-2076571D01*
X5175953Y-2076571D02*
X5185477Y-2048000D01*
X5185477Y-2048000D02*
X5195000Y-2000381D01*
X5195000Y-2000381D02*
X5195000Y-1962286D01*
X5195000Y-1962286D02*
X5185477Y-1914667D01*
X5185477Y-1914667D02*
X5175953Y-1886095D01*
X5175953Y-1886095D02*
X5166429Y-1867048D01*
X5166429Y-1867048D02*
X5147381Y-1838476D01*
X5147381Y-1838476D02*
X5137858Y-1828952D01*
X-205000Y-2135000D02*
X-5000Y-2335000D01*
X-5000Y-2135000D02*
X-205000Y-2335000D01*
X-105000Y-2135000D02*
X-105000Y-2335000D01*
X-205000Y-2235000D02*
X-5000Y-2235000D01*
X223571Y-2127524D02*
X347381Y-2127524D01*
X347381Y-2127524D02*
X280714Y-2203714D01*
X280714Y-2203714D02*
X309286Y-2203714D01*
X309286Y-2203714D02*
X328333Y-2213238D01*
X328333Y-2213238D02*
X337857Y-2222762D01*
X337857Y-2222762D02*
X347381Y-2241810D01*
X347381Y-2241810D02*
X347381Y-2289429D01*
X347381Y-2289429D02*
X337857Y-2308476D01*
X337857Y-2308476D02*
X328333Y-2318000D01*
X328333Y-2318000D02*
X309286Y-2327524D01*
X309286Y-2327524D02*
X252143Y-2327524D01*
X252143Y-2327524D02*
X233095Y-2318000D01*
X233095Y-2318000D02*
X223571Y-2308476D01*
X433095Y-2308476D02*
X442619Y-2318000D01*
X442619Y-2318000D02*
X433095Y-2327524D01*
X433095Y-2327524D02*
X423571Y-2318000D01*
X423571Y-2318000D02*
X433095Y-2308476D01*
X433095Y-2308476D02*
X433095Y-2327524D01*
X518809Y-2146571D02*
X528333Y-2137048D01*
X528333Y-2137048D02*
X547381Y-2127524D01*
X547381Y-2127524D02*
X595000Y-2127524D01*
X595000Y-2127524D02*
X614048Y-2137048D01*
X614048Y-2137048D02*
X623571Y-2146571D01*
X623571Y-2146571D02*
X633095Y-2165619D01*
X633095Y-2165619D02*
X633095Y-2184667D01*
X633095Y-2184667D02*
X623571Y-2213238D01*
X623571Y-2213238D02*
X509286Y-2327524D01*
X509286Y-2327524D02*
X633095Y-2327524D01*
X756905Y-2127524D02*
X775952Y-2127524D01*
X775952Y-2127524D02*
X795000Y-2137048D01*
X795000Y-2137048D02*
X804524Y-2146571D01*
X804524Y-2146571D02*
X814048Y-2165619D01*
X814048Y-2165619D02*
X823571Y-2203714D01*
X823571Y-2203714D02*
X823571Y-2251333D01*
X823571Y-2251333D02*
X814048Y-2289429D01*
X814048Y-2289429D02*
X804524Y-2308476D01*
X804524Y-2308476D02*
X795000Y-2318000D01*
X795000Y-2318000D02*
X775952Y-2327524D01*
X775952Y-2327524D02*
X756905Y-2327524D01*
X756905Y-2327524D02*
X737857Y-2318000D01*
X737857Y-2318000D02*
X728333Y-2308476D01*
X728333Y-2308476D02*
X718809Y-2289429D01*
X718809Y-2289429D02*
X709286Y-2251333D01*
X709286Y-2251333D02*
X709286Y-2203714D01*
X709286Y-2203714D02*
X718809Y-2165619D01*
X718809Y-2165619D02*
X728333Y-2146571D01*
X728333Y-2146571D02*
X737857Y-2137048D01*
X737857Y-2137048D02*
X756905Y-2127524D01*
X947381Y-2127524D02*
X966429Y-2127524D01*
X966429Y-2127524D02*
X985476Y-2137048D01*
X985476Y-2137048D02*
X995000Y-2146571D01*
X995000Y-2146571D02*
X1004524Y-2165619D01*
X1004524Y-2165619D02*
X1014048Y-2203714D01*
X1014048Y-2203714D02*
X1014048Y-2251333D01*
X1014048Y-2251333D02*
X1004524Y-2289429D01*
X1004524Y-2289429D02*
X995000Y-2308476D01*
X995000Y-2308476D02*
X985476Y-2318000D01*
X985476Y-2318000D02*
X966429Y-2327524D01*
X966429Y-2327524D02*
X947381Y-2327524D01*
X947381Y-2327524D02*
X928333Y-2318000D01*
X928333Y-2318000D02*
X918809Y-2308476D01*
X918809Y-2308476D02*
X909286Y-2289429D01*
X909286Y-2289429D02*
X899762Y-2251333D01*
X899762Y-2251333D02*
X899762Y-2203714D01*
X899762Y-2203714D02*
X909286Y-2165619D01*
X909286Y-2165619D02*
X918809Y-2146571D01*
X918809Y-2146571D02*
X928333Y-2137048D01*
X928333Y-2137048D02*
X947381Y-2127524D01*
X1099762Y-2327524D02*
X1099762Y-2194190D01*
X1099762Y-2213238D02*
X1109286Y-2203714D01*
X1109286Y-2203714D02*
X1128333Y-2194190D01*
X1128333Y-2194190D02*
X1156905Y-2194190D01*
X1156905Y-2194190D02*
X1175952Y-2203714D01*
X1175952Y-2203714D02*
X1185476Y-2222762D01*
X1185476Y-2222762D02*
X1185476Y-2327524D01*
X1185476Y-2222762D02*
X1195000Y-2203714D01*
X1195000Y-2203714D02*
X1214048Y-2194190D01*
X1214048Y-2194190D02*
X1242619Y-2194190D01*
X1242619Y-2194190D02*
X1261667Y-2203714D01*
X1261667Y-2203714D02*
X1271191Y-2222762D01*
X1271191Y-2222762D02*
X1271191Y-2327524D01*
X1366429Y-2327524D02*
X1366429Y-2194190D01*
X1366429Y-2213238D02*
X1375952Y-2203714D01*
X1375952Y-2203714D02*
X1395000Y-2194190D01*
X1395000Y-2194190D02*
X1423571Y-2194190D01*
X1423571Y-2194190D02*
X1442619Y-2203714D01*
X1442619Y-2203714D02*
X1452143Y-2222762D01*
X1452143Y-2222762D02*
X1452143Y-2327524D01*
X1452143Y-2222762D02*
X1461667Y-2203714D01*
X1461667Y-2203714D02*
X1480714Y-2194190D01*
X1480714Y-2194190D02*
X1509286Y-2194190D01*
X1509286Y-2194190D02*
X1528333Y-2203714D01*
X1528333Y-2203714D02*
X1537857Y-2222762D01*
X1537857Y-2222762D02*
X1537857Y-2327524D01*
X1928333Y-2118000D02*
X1756905Y-2375143D01*
X2185476Y-2127524D02*
X2204524Y-2127524D01*
X2204524Y-2127524D02*
X2223572Y-2137048D01*
X2223572Y-2137048D02*
X2233095Y-2146571D01*
X2233095Y-2146571D02*
X2242619Y-2165619D01*
X2242619Y-2165619D02*
X2252143Y-2203714D01*
X2252143Y-2203714D02*
X2252143Y-2251333D01*
X2252143Y-2251333D02*
X2242619Y-2289429D01*
X2242619Y-2289429D02*
X2233095Y-2308476D01*
X2233095Y-2308476D02*
X2223572Y-2318000D01*
X2223572Y-2318000D02*
X2204524Y-2327524D01*
X2204524Y-2327524D02*
X2185476Y-2327524D01*
X2185476Y-2327524D02*
X2166429Y-2318000D01*
X2166429Y-2318000D02*
X2156905Y-2308476D01*
X2156905Y-2308476D02*
X2147381Y-2289429D01*
X2147381Y-2289429D02*
X2137857Y-2251333D01*
X2137857Y-2251333D02*
X2137857Y-2203714D01*
X2137857Y-2203714D02*
X2147381Y-2165619D01*
X2147381Y-2165619D02*
X2156905Y-2146571D01*
X2156905Y-2146571D02*
X2166429Y-2137048D01*
X2166429Y-2137048D02*
X2185476Y-2127524D01*
X2337857Y-2308476D02*
X2347381Y-2318000D01*
X2347381Y-2318000D02*
X2337857Y-2327524D01*
X2337857Y-2327524D02*
X2328334Y-2318000D01*
X2328334Y-2318000D02*
X2337857Y-2308476D01*
X2337857Y-2308476D02*
X2337857Y-2327524D01*
X2537857Y-2327524D02*
X2423572Y-2327524D01*
X2480714Y-2327524D02*
X2480714Y-2127524D01*
X2480714Y-2127524D02*
X2461667Y-2156095D01*
X2461667Y-2156095D02*
X2442619Y-2175143D01*
X2442619Y-2175143D02*
X2423572Y-2184667D01*
X2614048Y-2146571D02*
X2623572Y-2137048D01*
X2623572Y-2137048D02*
X2642619Y-2127524D01*
X2642619Y-2127524D02*
X2690238Y-2127524D01*
X2690238Y-2127524D02*
X2709286Y-2137048D01*
X2709286Y-2137048D02*
X2718810Y-2146571D01*
X2718810Y-2146571D02*
X2728334Y-2165619D01*
X2728334Y-2165619D02*
X2728334Y-2184667D01*
X2728334Y-2184667D02*
X2718810Y-2213238D01*
X2718810Y-2213238D02*
X2604524Y-2327524D01*
X2604524Y-2327524D02*
X2728334Y-2327524D01*
X2899762Y-2127524D02*
X2861667Y-2127524D01*
X2861667Y-2127524D02*
X2842619Y-2137048D01*
X2842619Y-2137048D02*
X2833095Y-2146571D01*
X2833095Y-2146571D02*
X2814048Y-2175143D01*
X2814048Y-2175143D02*
X2804524Y-2213238D01*
X2804524Y-2213238D02*
X2804524Y-2289429D01*
X2804524Y-2289429D02*
X2814048Y-2308476D01*
X2814048Y-2308476D02*
X2823572Y-2318000D01*
X2823572Y-2318000D02*
X2842619Y-2327524D01*
X2842619Y-2327524D02*
X2880714Y-2327524D01*
X2880714Y-2327524D02*
X2899762Y-2318000D01*
X2899762Y-2318000D02*
X2909286Y-2308476D01*
X2909286Y-2308476D02*
X2918810Y-2289429D01*
X2918810Y-2289429D02*
X2918810Y-2241810D01*
X2918810Y-2241810D02*
X2909286Y-2222762D01*
X2909286Y-2222762D02*
X2899762Y-2213238D01*
X2899762Y-2213238D02*
X2880714Y-2203714D01*
X2880714Y-2203714D02*
X2842619Y-2203714D01*
X2842619Y-2203714D02*
X2823572Y-2213238D01*
X2823572Y-2213238D02*
X2814048Y-2222762D01*
X2814048Y-2222762D02*
X2804524Y-2241810D01*
X3042619Y-2127524D02*
X3061667Y-2127524D01*
X3061667Y-2127524D02*
X3080714Y-2137048D01*
X3080714Y-2137048D02*
X3090238Y-2146571D01*
X3090238Y-2146571D02*
X3099762Y-2165619D01*
X3099762Y-2165619D02*
X3109286Y-2203714D01*
X3109286Y-2203714D02*
X3109286Y-2251333D01*
X3109286Y-2251333D02*
X3099762Y-2289429D01*
X3099762Y-2289429D02*
X3090238Y-2308476D01*
X3090238Y-2308476D02*
X3080714Y-2318000D01*
X3080714Y-2318000D02*
X3061667Y-2327524D01*
X3061667Y-2327524D02*
X3042619Y-2327524D01*
X3042619Y-2327524D02*
X3023572Y-2318000D01*
X3023572Y-2318000D02*
X3014048Y-2308476D01*
X3014048Y-2308476D02*
X3004524Y-2289429D01*
X3004524Y-2289429D02*
X2995000Y-2251333D01*
X2995000Y-2251333D02*
X2995000Y-2203714D01*
X2995000Y-2203714D02*
X3004524Y-2165619D01*
X3004524Y-2165619D02*
X3014048Y-2146571D01*
X3014048Y-2146571D02*
X3023572Y-2137048D01*
X3023572Y-2137048D02*
X3042619Y-2127524D01*
X3185476Y-2127524D02*
X3185476Y-2165619D01*
X3261667Y-2127524D02*
X3261667Y-2165619D01*
X3556905Y-2403714D02*
X3547381Y-2394190D01*
X3547381Y-2394190D02*
X3528334Y-2365619D01*
X3528334Y-2365619D02*
X3518810Y-2346571D01*
X3518810Y-2346571D02*
X3509286Y-2318000D01*
X3509286Y-2318000D02*
X3499762Y-2270381D01*
X3499762Y-2270381D02*
X3499762Y-2232286D01*
X3499762Y-2232286D02*
X3509286Y-2184667D01*
X3509286Y-2184667D02*
X3518810Y-2156095D01*
X3518810Y-2156095D02*
X3528334Y-2137048D01*
X3528334Y-2137048D02*
X3547381Y-2108476D01*
X3547381Y-2108476D02*
X3556905Y-2098952D01*
X3718810Y-2127524D02*
X3680714Y-2127524D01*
X3680714Y-2127524D02*
X3661667Y-2137048D01*
X3661667Y-2137048D02*
X3652143Y-2146571D01*
X3652143Y-2146571D02*
X3633095Y-2175143D01*
X3633095Y-2175143D02*
X3623572Y-2213238D01*
X3623572Y-2213238D02*
X3623572Y-2289429D01*
X3623572Y-2289429D02*
X3633095Y-2308476D01*
X3633095Y-2308476D02*
X3642619Y-2318000D01*
X3642619Y-2318000D02*
X3661667Y-2327524D01*
X3661667Y-2327524D02*
X3699762Y-2327524D01*
X3699762Y-2327524D02*
X3718810Y-2318000D01*
X3718810Y-2318000D02*
X3728334Y-2308476D01*
X3728334Y-2308476D02*
X3737857Y-2289429D01*
X3737857Y-2289429D02*
X3737857Y-2241810D01*
X3737857Y-2241810D02*
X3728334Y-2222762D01*
X3728334Y-2222762D02*
X3718810Y-2213238D01*
X3718810Y-2213238D02*
X3699762Y-2203714D01*
X3699762Y-2203714D02*
X3661667Y-2203714D01*
X3661667Y-2203714D02*
X3642619Y-2213238D01*
X3642619Y-2213238D02*
X3633095Y-2222762D01*
X3633095Y-2222762D02*
X3623572Y-2241810D01*
X3975953Y-2327524D02*
X3975953Y-2127524D01*
X4061667Y-2327524D02*
X4061667Y-2222762D01*
X4061667Y-2222762D02*
X4052143Y-2203714D01*
X4052143Y-2203714D02*
X4033096Y-2194190D01*
X4033096Y-2194190D02*
X4004524Y-2194190D01*
X4004524Y-2194190D02*
X3985476Y-2203714D01*
X3985476Y-2203714D02*
X3975953Y-2213238D01*
X4185476Y-2327524D02*
X4166429Y-2318000D01*
X4166429Y-2318000D02*
X4156905Y-2308476D01*
X4156905Y-2308476D02*
X4147381Y-2289429D01*
X4147381Y-2289429D02*
X4147381Y-2232286D01*
X4147381Y-2232286D02*
X4156905Y-2213238D01*
X4156905Y-2213238D02*
X4166429Y-2203714D01*
X4166429Y-2203714D02*
X4185476Y-2194190D01*
X4185476Y-2194190D02*
X4214048Y-2194190D01*
X4214048Y-2194190D02*
X4233096Y-2203714D01*
X4233096Y-2203714D02*
X4242619Y-2213238D01*
X4242619Y-2213238D02*
X4252143Y-2232286D01*
X4252143Y-2232286D02*
X4252143Y-2289429D01*
X4252143Y-2289429D02*
X4242619Y-2308476D01*
X4242619Y-2308476D02*
X4233096Y-2318000D01*
X4233096Y-2318000D02*
X4214048Y-2327524D01*
X4214048Y-2327524D02*
X4185476Y-2327524D01*
X4366429Y-2327524D02*
X4347381Y-2318000D01*
X4347381Y-2318000D02*
X4337858Y-2298952D01*
X4337858Y-2298952D02*
X4337858Y-2127524D01*
X4518810Y-2318000D02*
X4499762Y-2327524D01*
X4499762Y-2327524D02*
X4461667Y-2327524D01*
X4461667Y-2327524D02*
X4442619Y-2318000D01*
X4442619Y-2318000D02*
X4433096Y-2298952D01*
X4433096Y-2298952D02*
X4433096Y-2222762D01*
X4433096Y-2222762D02*
X4442619Y-2203714D01*
X4442619Y-2203714D02*
X4461667Y-2194190D01*
X4461667Y-2194190D02*
X4499762Y-2194190D01*
X4499762Y-2194190D02*
X4518810Y-2203714D01*
X4518810Y-2203714D02*
X4528334Y-2222762D01*
X4528334Y-2222762D02*
X4528334Y-2241810D01*
X4528334Y-2241810D02*
X4433096Y-2260857D01*
X4604524Y-2318000D02*
X4623572Y-2327524D01*
X4623572Y-2327524D02*
X4661667Y-2327524D01*
X4661667Y-2327524D02*
X4680715Y-2318000D01*
X4680715Y-2318000D02*
X4690239Y-2298952D01*
X4690239Y-2298952D02*
X4690239Y-2289429D01*
X4690239Y-2289429D02*
X4680715Y-2270381D01*
X4680715Y-2270381D02*
X4661667Y-2260857D01*
X4661667Y-2260857D02*
X4633096Y-2260857D01*
X4633096Y-2260857D02*
X4614048Y-2251333D01*
X4614048Y-2251333D02*
X4604524Y-2232286D01*
X4604524Y-2232286D02*
X4604524Y-2222762D01*
X4604524Y-2222762D02*
X4614048Y-2203714D01*
X4614048Y-2203714D02*
X4633096Y-2194190D01*
X4633096Y-2194190D02*
X4661667Y-2194190D01*
X4661667Y-2194190D02*
X4680715Y-2203714D01*
X4756905Y-2403714D02*
X4766429Y-2394190D01*
X4766429Y-2394190D02*
X4785477Y-2365619D01*
X4785477Y-2365619D02*
X4795000Y-2346571D01*
X4795000Y-2346571D02*
X4804524Y-2318000D01*
X4804524Y-2318000D02*
X4814048Y-2270381D01*
X4814048Y-2270381D02*
X4814048Y-2232286D01*
X4814048Y-2232286D02*
X4804524Y-2184667D01*
X4804524Y-2184667D02*
X4795000Y-2156095D01*
X4795000Y-2156095D02*
X4785477Y-2137048D01*
X4785477Y-2137048D02*
X4766429Y-2108476D01*
X4766429Y-2108476D02*
X4756905Y-2098952D01*
X-205000Y-2455000D02*
X-5000Y-2655000D01*
X-5000Y-2455000D02*
X-205000Y-2655000D01*
X-34289Y-2625711D02*
X-34289Y-2484289D01*
X-175711Y-2484289D01*
X-175711Y-2625711D01*
X-34289Y-2625711D01*
X328333Y-2514190D02*
X328333Y-2647524D01*
X280714Y-2438000D02*
X233095Y-2580857D01*
X233095Y-2580857D02*
X356905Y-2580857D01*
X433095Y-2628476D02*
X442619Y-2638000D01*
X442619Y-2638000D02*
X433095Y-2647524D01*
X433095Y-2647524D02*
X423571Y-2638000D01*
X423571Y-2638000D02*
X433095Y-2628476D01*
X433095Y-2628476D02*
X433095Y-2647524D01*
X623571Y-2447524D02*
X528333Y-2447524D01*
X528333Y-2447524D02*
X518809Y-2542762D01*
X518809Y-2542762D02*
X528333Y-2533238D01*
X528333Y-2533238D02*
X547381Y-2523714D01*
X547381Y-2523714D02*
X595000Y-2523714D01*
X595000Y-2523714D02*
X614048Y-2533238D01*
X614048Y-2533238D02*
X623571Y-2542762D01*
X623571Y-2542762D02*
X633095Y-2561810D01*
X633095Y-2561810D02*
X633095Y-2609429D01*
X633095Y-2609429D02*
X623571Y-2628476D01*
X623571Y-2628476D02*
X614048Y-2638000D01*
X614048Y-2638000D02*
X595000Y-2647524D01*
X595000Y-2647524D02*
X547381Y-2647524D01*
X547381Y-2647524D02*
X528333Y-2638000D01*
X528333Y-2638000D02*
X518809Y-2628476D01*
X756905Y-2447524D02*
X775952Y-2447524D01*
X775952Y-2447524D02*
X795000Y-2457048D01*
X795000Y-2457048D02*
X804524Y-2466571D01*
X804524Y-2466571D02*
X814048Y-2485619D01*
X814048Y-2485619D02*
X823571Y-2523714D01*
X823571Y-2523714D02*
X823571Y-2571333D01*
X823571Y-2571333D02*
X814048Y-2609429D01*
X814048Y-2609429D02*
X804524Y-2628476D01*
X804524Y-2628476D02*
X795000Y-2638000D01*
X795000Y-2638000D02*
X775952Y-2647524D01*
X775952Y-2647524D02*
X756905Y-2647524D01*
X756905Y-2647524D02*
X737857Y-2638000D01*
X737857Y-2638000D02*
X728333Y-2628476D01*
X728333Y-2628476D02*
X718809Y-2609429D01*
X718809Y-2609429D02*
X709286Y-2571333D01*
X709286Y-2571333D02*
X709286Y-2523714D01*
X709286Y-2523714D02*
X718809Y-2485619D01*
X718809Y-2485619D02*
X728333Y-2466571D01*
X728333Y-2466571D02*
X737857Y-2457048D01*
X737857Y-2457048D02*
X756905Y-2447524D01*
X947381Y-2447524D02*
X966429Y-2447524D01*
X966429Y-2447524D02*
X985476Y-2457048D01*
X985476Y-2457048D02*
X995000Y-2466571D01*
X995000Y-2466571D02*
X1004524Y-2485619D01*
X1004524Y-2485619D02*
X1014048Y-2523714D01*
X1014048Y-2523714D02*
X1014048Y-2571333D01*
X1014048Y-2571333D02*
X1004524Y-2609429D01*
X1004524Y-2609429D02*
X995000Y-2628476D01*
X995000Y-2628476D02*
X985476Y-2638000D01*
X985476Y-2638000D02*
X966429Y-2647524D01*
X966429Y-2647524D02*
X947381Y-2647524D01*
X947381Y-2647524D02*
X928333Y-2638000D01*
X928333Y-2638000D02*
X918809Y-2628476D01*
X918809Y-2628476D02*
X909286Y-2609429D01*
X909286Y-2609429D02*
X899762Y-2571333D01*
X899762Y-2571333D02*
X899762Y-2523714D01*
X899762Y-2523714D02*
X909286Y-2485619D01*
X909286Y-2485619D02*
X918809Y-2466571D01*
X918809Y-2466571D02*
X928333Y-2457048D01*
X928333Y-2457048D02*
X947381Y-2447524D01*
X1099762Y-2647524D02*
X1099762Y-2514190D01*
X1099762Y-2533238D02*
X1109286Y-2523714D01*
X1109286Y-2523714D02*
X1128333Y-2514190D01*
X1128333Y-2514190D02*
X1156905Y-2514190D01*
X1156905Y-2514190D02*
X1175952Y-2523714D01*
X1175952Y-2523714D02*
X1185476Y-2542762D01*
X1185476Y-2542762D02*
X1185476Y-2647524D01*
X1185476Y-2542762D02*
X1195000Y-2523714D01*
X1195000Y-2523714D02*
X1214048Y-2514190D01*
X1214048Y-2514190D02*
X1242619Y-2514190D01*
X1242619Y-2514190D02*
X1261667Y-2523714D01*
X1261667Y-2523714D02*
X1271191Y-2542762D01*
X1271191Y-2542762D02*
X1271191Y-2647524D01*
X1366429Y-2647524D02*
X1366429Y-2514190D01*
X1366429Y-2533238D02*
X1375952Y-2523714D01*
X1375952Y-2523714D02*
X1395000Y-2514190D01*
X1395000Y-2514190D02*
X1423571Y-2514190D01*
X1423571Y-2514190D02*
X1442619Y-2523714D01*
X1442619Y-2523714D02*
X1452143Y-2542762D01*
X1452143Y-2542762D02*
X1452143Y-2647524D01*
X1452143Y-2542762D02*
X1461667Y-2523714D01*
X1461667Y-2523714D02*
X1480714Y-2514190D01*
X1480714Y-2514190D02*
X1509286Y-2514190D01*
X1509286Y-2514190D02*
X1528333Y-2523714D01*
X1528333Y-2523714D02*
X1537857Y-2542762D01*
X1537857Y-2542762D02*
X1537857Y-2647524D01*
X1928333Y-2438000D02*
X1756905Y-2695143D01*
X2185476Y-2447524D02*
X2204524Y-2447524D01*
X2204524Y-2447524D02*
X2223572Y-2457048D01*
X2223572Y-2457048D02*
X2233095Y-2466571D01*
X2233095Y-2466571D02*
X2242619Y-2485619D01*
X2242619Y-2485619D02*
X2252143Y-2523714D01*
X2252143Y-2523714D02*
X2252143Y-2571333D01*
X2252143Y-2571333D02*
X2242619Y-2609429D01*
X2242619Y-2609429D02*
X2233095Y-2628476D01*
X2233095Y-2628476D02*
X2223572Y-2638000D01*
X2223572Y-2638000D02*
X2204524Y-2647524D01*
X2204524Y-2647524D02*
X2185476Y-2647524D01*
X2185476Y-2647524D02*
X2166429Y-2638000D01*
X2166429Y-2638000D02*
X2156905Y-2628476D01*
X2156905Y-2628476D02*
X2147381Y-2609429D01*
X2147381Y-2609429D02*
X2137857Y-2571333D01*
X2137857Y-2571333D02*
X2137857Y-2523714D01*
X2137857Y-2523714D02*
X2147381Y-2485619D01*
X2147381Y-2485619D02*
X2156905Y-2466571D01*
X2156905Y-2466571D02*
X2166429Y-2457048D01*
X2166429Y-2457048D02*
X2185476Y-2447524D01*
X2337857Y-2628476D02*
X2347381Y-2638000D01*
X2347381Y-2638000D02*
X2337857Y-2647524D01*
X2337857Y-2647524D02*
X2328334Y-2638000D01*
X2328334Y-2638000D02*
X2337857Y-2628476D01*
X2337857Y-2628476D02*
X2337857Y-2647524D01*
X2537857Y-2647524D02*
X2423572Y-2647524D01*
X2480714Y-2647524D02*
X2480714Y-2447524D01*
X2480714Y-2447524D02*
X2461667Y-2476095D01*
X2461667Y-2476095D02*
X2442619Y-2495143D01*
X2442619Y-2495143D02*
X2423572Y-2504667D01*
X2604524Y-2447524D02*
X2737857Y-2447524D01*
X2737857Y-2447524D02*
X2652143Y-2647524D01*
X2795000Y-2447524D02*
X2928333Y-2447524D01*
X2928333Y-2447524D02*
X2842619Y-2647524D01*
X2995000Y-2466571D02*
X3004524Y-2457048D01*
X3004524Y-2457048D02*
X3023572Y-2447524D01*
X3023572Y-2447524D02*
X3071191Y-2447524D01*
X3071191Y-2447524D02*
X3090238Y-2457048D01*
X3090238Y-2457048D02*
X3099762Y-2466571D01*
X3099762Y-2466571D02*
X3109286Y-2485619D01*
X3109286Y-2485619D02*
X3109286Y-2504667D01*
X3109286Y-2504667D02*
X3099762Y-2533238D01*
X3099762Y-2533238D02*
X2985476Y-2647524D01*
X2985476Y-2647524D02*
X3109286Y-2647524D01*
X3185476Y-2447524D02*
X3185476Y-2485619D01*
X3261667Y-2447524D02*
X3261667Y-2485619D01*
X3556905Y-2723714D02*
X3547381Y-2714190D01*
X3547381Y-2714190D02*
X3528334Y-2685619D01*
X3528334Y-2685619D02*
X3518810Y-2666571D01*
X3518810Y-2666571D02*
X3509286Y-2638000D01*
X3509286Y-2638000D02*
X3499762Y-2590381D01*
X3499762Y-2590381D02*
X3499762Y-2552286D01*
X3499762Y-2552286D02*
X3509286Y-2504667D01*
X3509286Y-2504667D02*
X3518810Y-2476095D01*
X3518810Y-2476095D02*
X3528334Y-2457048D01*
X3528334Y-2457048D02*
X3547381Y-2428476D01*
X3547381Y-2428476D02*
X3556905Y-2418952D01*
X3737857Y-2647524D02*
X3623572Y-2647524D01*
X3680714Y-2647524D02*
X3680714Y-2447524D01*
X3680714Y-2447524D02*
X3661667Y-2476095D01*
X3661667Y-2476095D02*
X3642619Y-2495143D01*
X3642619Y-2495143D02*
X3623572Y-2504667D01*
X3975953Y-2647524D02*
X3975953Y-2447524D01*
X4061667Y-2647524D02*
X4061667Y-2542762D01*
X4061667Y-2542762D02*
X4052143Y-2523714D01*
X4052143Y-2523714D02*
X4033096Y-2514190D01*
X4033096Y-2514190D02*
X4004524Y-2514190D01*
X4004524Y-2514190D02*
X3985476Y-2523714D01*
X3985476Y-2523714D02*
X3975953Y-2533238D01*
X4185476Y-2647524D02*
X4166429Y-2638000D01*
X4166429Y-2638000D02*
X4156905Y-2628476D01*
X4156905Y-2628476D02*
X4147381Y-2609429D01*
X4147381Y-2609429D02*
X4147381Y-2552286D01*
X4147381Y-2552286D02*
X4156905Y-2533238D01*
X4156905Y-2533238D02*
X4166429Y-2523714D01*
X4166429Y-2523714D02*
X4185476Y-2514190D01*
X4185476Y-2514190D02*
X4214048Y-2514190D01*
X4214048Y-2514190D02*
X4233096Y-2523714D01*
X4233096Y-2523714D02*
X4242619Y-2533238D01*
X4242619Y-2533238D02*
X4252143Y-2552286D01*
X4252143Y-2552286D02*
X4252143Y-2609429D01*
X4252143Y-2609429D02*
X4242619Y-2628476D01*
X4242619Y-2628476D02*
X4233096Y-2638000D01*
X4233096Y-2638000D02*
X4214048Y-2647524D01*
X4214048Y-2647524D02*
X4185476Y-2647524D01*
X4366429Y-2647524D02*
X4347381Y-2638000D01*
X4347381Y-2638000D02*
X4337858Y-2618952D01*
X4337858Y-2618952D02*
X4337858Y-2447524D01*
X4518810Y-2638000D02*
X4499762Y-2647524D01*
X4499762Y-2647524D02*
X4461667Y-2647524D01*
X4461667Y-2647524D02*
X4442619Y-2638000D01*
X4442619Y-2638000D02*
X4433096Y-2618952D01*
X4433096Y-2618952D02*
X4433096Y-2542762D01*
X4433096Y-2542762D02*
X4442619Y-2523714D01*
X4442619Y-2523714D02*
X4461667Y-2514190D01*
X4461667Y-2514190D02*
X4499762Y-2514190D01*
X4499762Y-2514190D02*
X4518810Y-2523714D01*
X4518810Y-2523714D02*
X4528334Y-2542762D01*
X4528334Y-2542762D02*
X4528334Y-2561810D01*
X4528334Y-2561810D02*
X4433096Y-2580857D01*
X4595000Y-2723714D02*
X4604524Y-2714190D01*
X4604524Y-2714190D02*
X4623572Y-2685619D01*
X4623572Y-2685619D02*
X4633096Y-2666571D01*
X4633096Y-2666571D02*
X4642619Y-2638000D01*
X4642619Y-2638000D02*
X4652143Y-2590381D01*
X4652143Y-2590381D02*
X4652143Y-2552286D01*
X4652143Y-2552286D02*
X4642619Y-2504667D01*
X4642619Y-2504667D02*
X4633096Y-2476095D01*
X4633096Y-2476095D02*
X4623572Y-2457048D01*
X4623572Y-2457048D02*
X4604524Y-2428476D01*
X4604524Y-2428476D02*
X4595000Y-2418952D01*
D10*
X-105000Y-2825000D02*
X-5000Y-2925000D01*
X-5000Y-2825000D02*
X-105000Y-2925000D01*
X-55000Y-2925000D02*
X-5000Y-2875000D01*
X-55000Y-2825000D01*
X-105000Y-2875000D01*
X-55000Y-2925000D01*
D11*
X347381Y-2967524D02*
X233095Y-2967524D01*
X290238Y-2967524D02*
X290238Y-2767524D01*
X290238Y-2767524D02*
X271190Y-2796095D01*
X271190Y-2796095D02*
X252143Y-2815143D01*
X252143Y-2815143D02*
X233095Y-2824667D01*
X433095Y-2948476D02*
X442619Y-2958000D01*
X442619Y-2958000D02*
X433095Y-2967524D01*
X433095Y-2967524D02*
X423571Y-2958000D01*
X423571Y-2958000D02*
X433095Y-2948476D01*
X433095Y-2948476D02*
X433095Y-2967524D01*
X566429Y-2767524D02*
X585476Y-2767524D01*
X585476Y-2767524D02*
X604524Y-2777048D01*
X604524Y-2777048D02*
X614048Y-2786571D01*
X614048Y-2786571D02*
X623571Y-2805619D01*
X623571Y-2805619D02*
X633095Y-2843714D01*
X633095Y-2843714D02*
X633095Y-2891333D01*
X633095Y-2891333D02*
X623571Y-2929428D01*
X623571Y-2929428D02*
X614048Y-2948476D01*
X614048Y-2948476D02*
X604524Y-2958000D01*
X604524Y-2958000D02*
X585476Y-2967524D01*
X585476Y-2967524D02*
X566429Y-2967524D01*
X566429Y-2967524D02*
X547381Y-2958000D01*
X547381Y-2958000D02*
X537857Y-2948476D01*
X537857Y-2948476D02*
X528333Y-2929428D01*
X528333Y-2929428D02*
X518809Y-2891333D01*
X518809Y-2891333D02*
X518809Y-2843714D01*
X518809Y-2843714D02*
X528333Y-2805619D01*
X528333Y-2805619D02*
X537857Y-2786571D01*
X537857Y-2786571D02*
X547381Y-2777048D01*
X547381Y-2777048D02*
X566429Y-2767524D01*
X756905Y-2767524D02*
X775952Y-2767524D01*
X775952Y-2767524D02*
X795000Y-2777048D01*
X795000Y-2777048D02*
X804524Y-2786571D01*
X804524Y-2786571D02*
X814048Y-2805619D01*
X814048Y-2805619D02*
X823571Y-2843714D01*
X823571Y-2843714D02*
X823571Y-2891333D01*
X823571Y-2891333D02*
X814048Y-2929428D01*
X814048Y-2929428D02*
X804524Y-2948476D01*
X804524Y-2948476D02*
X795000Y-2958000D01*
X795000Y-2958000D02*
X775952Y-2967524D01*
X775952Y-2967524D02*
X756905Y-2967524D01*
X756905Y-2967524D02*
X737857Y-2958000D01*
X737857Y-2958000D02*
X728333Y-2948476D01*
X728333Y-2948476D02*
X718809Y-2929428D01*
X718809Y-2929428D02*
X709286Y-2891333D01*
X709286Y-2891333D02*
X709286Y-2843714D01*
X709286Y-2843714D02*
X718809Y-2805619D01*
X718809Y-2805619D02*
X728333Y-2786571D01*
X728333Y-2786571D02*
X737857Y-2777048D01*
X737857Y-2777048D02*
X756905Y-2767524D01*
X947381Y-2767524D02*
X966429Y-2767524D01*
X966429Y-2767524D02*
X985476Y-2777048D01*
X985476Y-2777048D02*
X995000Y-2786571D01*
X995000Y-2786571D02*
X1004524Y-2805619D01*
X1004524Y-2805619D02*
X1014048Y-2843714D01*
X1014048Y-2843714D02*
X1014048Y-2891333D01*
X1014048Y-2891333D02*
X1004524Y-2929428D01*
X1004524Y-2929428D02*
X995000Y-2948476D01*
X995000Y-2948476D02*
X985476Y-2958000D01*
X985476Y-2958000D02*
X966429Y-2967524D01*
X966429Y-2967524D02*
X947381Y-2967524D01*
X947381Y-2967524D02*
X928333Y-2958000D01*
X928333Y-2958000D02*
X918809Y-2948476D01*
X918809Y-2948476D02*
X909286Y-2929428D01*
X909286Y-2929428D02*
X899762Y-2891333D01*
X899762Y-2891333D02*
X899762Y-2843714D01*
X899762Y-2843714D02*
X909286Y-2805619D01*
X909286Y-2805619D02*
X918809Y-2786571D01*
X918809Y-2786571D02*
X928333Y-2777048D01*
X928333Y-2777048D02*
X947381Y-2767524D01*
X1099762Y-2967524D02*
X1099762Y-2834190D01*
X1099762Y-2853238D02*
X1109286Y-2843714D01*
X1109286Y-2843714D02*
X1128333Y-2834190D01*
X1128333Y-2834190D02*
X1156905Y-2834190D01*
X1156905Y-2834190D02*
X1175952Y-2843714D01*
X1175952Y-2843714D02*
X1185476Y-2862762D01*
X1185476Y-2862762D02*
X1185476Y-2967524D01*
X1185476Y-2862762D02*
X1195000Y-2843714D01*
X1195000Y-2843714D02*
X1214048Y-2834190D01*
X1214048Y-2834190D02*
X1242619Y-2834190D01*
X1242619Y-2834190D02*
X1261667Y-2843714D01*
X1261667Y-2843714D02*
X1271191Y-2862762D01*
X1271191Y-2862762D02*
X1271191Y-2967524D01*
X1366429Y-2967524D02*
X1366429Y-2834190D01*
X1366429Y-2853238D02*
X1375952Y-2843714D01*
X1375952Y-2843714D02*
X1395000Y-2834190D01*
X1395000Y-2834190D02*
X1423571Y-2834190D01*
X1423571Y-2834190D02*
X1442619Y-2843714D01*
X1442619Y-2843714D02*
X1452143Y-2862762D01*
X1452143Y-2862762D02*
X1452143Y-2967524D01*
X1452143Y-2862762D02*
X1461667Y-2843714D01*
X1461667Y-2843714D02*
X1480714Y-2834190D01*
X1480714Y-2834190D02*
X1509286Y-2834190D01*
X1509286Y-2834190D02*
X1528333Y-2843714D01*
X1528333Y-2843714D02*
X1537857Y-2862762D01*
X1537857Y-2862762D02*
X1537857Y-2967524D01*
X1928333Y-2758000D02*
X1756905Y-3015143D01*
X2185476Y-2767524D02*
X2204524Y-2767524D01*
X2204524Y-2767524D02*
X2223572Y-2777048D01*
X2223572Y-2777048D02*
X2233095Y-2786571D01*
X2233095Y-2786571D02*
X2242619Y-2805619D01*
X2242619Y-2805619D02*
X2252143Y-2843714D01*
X2252143Y-2843714D02*
X2252143Y-2891333D01*
X2252143Y-2891333D02*
X2242619Y-2929428D01*
X2242619Y-2929428D02*
X2233095Y-2948476D01*
X2233095Y-2948476D02*
X2223572Y-2958000D01*
X2223572Y-2958000D02*
X2204524Y-2967524D01*
X2204524Y-2967524D02*
X2185476Y-2967524D01*
X2185476Y-2967524D02*
X2166429Y-2958000D01*
X2166429Y-2958000D02*
X2156905Y-2948476D01*
X2156905Y-2948476D02*
X2147381Y-2929428D01*
X2147381Y-2929428D02*
X2137857Y-2891333D01*
X2137857Y-2891333D02*
X2137857Y-2843714D01*
X2137857Y-2843714D02*
X2147381Y-2805619D01*
X2147381Y-2805619D02*
X2156905Y-2786571D01*
X2156905Y-2786571D02*
X2166429Y-2777048D01*
X2166429Y-2777048D02*
X2185476Y-2767524D01*
X2337857Y-2948476D02*
X2347381Y-2958000D01*
X2347381Y-2958000D02*
X2337857Y-2967524D01*
X2337857Y-2967524D02*
X2328334Y-2958000D01*
X2328334Y-2958000D02*
X2337857Y-2948476D01*
X2337857Y-2948476D02*
X2337857Y-2967524D01*
X2471191Y-2767524D02*
X2490238Y-2767524D01*
X2490238Y-2767524D02*
X2509286Y-2777048D01*
X2509286Y-2777048D02*
X2518810Y-2786571D01*
X2518810Y-2786571D02*
X2528334Y-2805619D01*
X2528334Y-2805619D02*
X2537857Y-2843714D01*
X2537857Y-2843714D02*
X2537857Y-2891333D01*
X2537857Y-2891333D02*
X2528334Y-2929428D01*
X2528334Y-2929428D02*
X2518810Y-2948476D01*
X2518810Y-2948476D02*
X2509286Y-2958000D01*
X2509286Y-2958000D02*
X2490238Y-2967524D01*
X2490238Y-2967524D02*
X2471191Y-2967524D01*
X2471191Y-2967524D02*
X2452143Y-2958000D01*
X2452143Y-2958000D02*
X2442619Y-2948476D01*
X2442619Y-2948476D02*
X2433095Y-2929428D01*
X2433095Y-2929428D02*
X2423572Y-2891333D01*
X2423572Y-2891333D02*
X2423572Y-2843714D01*
X2423572Y-2843714D02*
X2433095Y-2805619D01*
X2433095Y-2805619D02*
X2442619Y-2786571D01*
X2442619Y-2786571D02*
X2452143Y-2777048D01*
X2452143Y-2777048D02*
X2471191Y-2767524D01*
X2604524Y-2767524D02*
X2728334Y-2767524D01*
X2728334Y-2767524D02*
X2661667Y-2843714D01*
X2661667Y-2843714D02*
X2690238Y-2843714D01*
X2690238Y-2843714D02*
X2709286Y-2853238D01*
X2709286Y-2853238D02*
X2718810Y-2862762D01*
X2718810Y-2862762D02*
X2728334Y-2881809D01*
X2728334Y-2881809D02*
X2728334Y-2929428D01*
X2728334Y-2929428D02*
X2718810Y-2948476D01*
X2718810Y-2948476D02*
X2709286Y-2958000D01*
X2709286Y-2958000D02*
X2690238Y-2967524D01*
X2690238Y-2967524D02*
X2633095Y-2967524D01*
X2633095Y-2967524D02*
X2614048Y-2958000D01*
X2614048Y-2958000D02*
X2604524Y-2948476D01*
X2823572Y-2967524D02*
X2861667Y-2967524D01*
X2861667Y-2967524D02*
X2880714Y-2958000D01*
X2880714Y-2958000D02*
X2890238Y-2948476D01*
X2890238Y-2948476D02*
X2909286Y-2919905D01*
X2909286Y-2919905D02*
X2918810Y-2881809D01*
X2918810Y-2881809D02*
X2918810Y-2805619D01*
X2918810Y-2805619D02*
X2909286Y-2786571D01*
X2909286Y-2786571D02*
X2899762Y-2777048D01*
X2899762Y-2777048D02*
X2880714Y-2767524D01*
X2880714Y-2767524D02*
X2842619Y-2767524D01*
X2842619Y-2767524D02*
X2823572Y-2777048D01*
X2823572Y-2777048D02*
X2814048Y-2786571D01*
X2814048Y-2786571D02*
X2804524Y-2805619D01*
X2804524Y-2805619D02*
X2804524Y-2853238D01*
X2804524Y-2853238D02*
X2814048Y-2872286D01*
X2814048Y-2872286D02*
X2823572Y-2881809D01*
X2823572Y-2881809D02*
X2842619Y-2891333D01*
X2842619Y-2891333D02*
X2880714Y-2891333D01*
X2880714Y-2891333D02*
X2899762Y-2881809D01*
X2899762Y-2881809D02*
X2909286Y-2872286D01*
X2909286Y-2872286D02*
X2918810Y-2853238D01*
X3090238Y-2834190D02*
X3090238Y-2967524D01*
X3042619Y-2758000D02*
X2995000Y-2900857D01*
X2995000Y-2900857D02*
X3118810Y-2900857D01*
X3185476Y-2767524D02*
X3185476Y-2805619D01*
X3261667Y-2767524D02*
X3261667Y-2805619D01*
X3556905Y-3043714D02*
X3547381Y-3034190D01*
X3547381Y-3034190D02*
X3528334Y-3005619D01*
X3528334Y-3005619D02*
X3518810Y-2986571D01*
X3518810Y-2986571D02*
X3509286Y-2958000D01*
X3509286Y-2958000D02*
X3499762Y-2910381D01*
X3499762Y-2910381D02*
X3499762Y-2872286D01*
X3499762Y-2872286D02*
X3509286Y-2824667D01*
X3509286Y-2824667D02*
X3518810Y-2796095D01*
X3518810Y-2796095D02*
X3528334Y-2777048D01*
X3528334Y-2777048D02*
X3547381Y-2748476D01*
X3547381Y-2748476D02*
X3556905Y-2738952D01*
X3728334Y-2767524D02*
X3633095Y-2767524D01*
X3633095Y-2767524D02*
X3623572Y-2862762D01*
X3623572Y-2862762D02*
X3633095Y-2853238D01*
X3633095Y-2853238D02*
X3652143Y-2843714D01*
X3652143Y-2843714D02*
X3699762Y-2843714D01*
X3699762Y-2843714D02*
X3718810Y-2853238D01*
X3718810Y-2853238D02*
X3728334Y-2862762D01*
X3728334Y-2862762D02*
X3737857Y-2881809D01*
X3737857Y-2881809D02*
X3737857Y-2929428D01*
X3737857Y-2929428D02*
X3728334Y-2948476D01*
X3728334Y-2948476D02*
X3718810Y-2958000D01*
X3718810Y-2958000D02*
X3699762Y-2967524D01*
X3699762Y-2967524D02*
X3652143Y-2967524D01*
X3652143Y-2967524D02*
X3633095Y-2958000D01*
X3633095Y-2958000D02*
X3623572Y-2948476D01*
X3909286Y-2767524D02*
X3871191Y-2767524D01*
X3871191Y-2767524D02*
X3852143Y-2777048D01*
X3852143Y-2777048D02*
X3842619Y-2786571D01*
X3842619Y-2786571D02*
X3823572Y-2815143D01*
X3823572Y-2815143D02*
X3814048Y-2853238D01*
X3814048Y-2853238D02*
X3814048Y-2929428D01*
X3814048Y-2929428D02*
X3823572Y-2948476D01*
X3823572Y-2948476D02*
X3833095Y-2958000D01*
X3833095Y-2958000D02*
X3852143Y-2967524D01*
X3852143Y-2967524D02*
X3890238Y-2967524D01*
X3890238Y-2967524D02*
X3909286Y-2958000D01*
X3909286Y-2958000D02*
X3918810Y-2948476D01*
X3918810Y-2948476D02*
X3928334Y-2929428D01*
X3928334Y-2929428D02*
X3928334Y-2881809D01*
X3928334Y-2881809D02*
X3918810Y-2862762D01*
X3918810Y-2862762D02*
X3909286Y-2853238D01*
X3909286Y-2853238D02*
X3890238Y-2843714D01*
X3890238Y-2843714D02*
X3852143Y-2843714D01*
X3852143Y-2843714D02*
X3833095Y-2853238D01*
X3833095Y-2853238D02*
X3823572Y-2862762D01*
X3823572Y-2862762D02*
X3814048Y-2881809D01*
X4166429Y-2967524D02*
X4166429Y-2767524D01*
X4252143Y-2967524D02*
X4252143Y-2862762D01*
X4252143Y-2862762D02*
X4242619Y-2843714D01*
X4242619Y-2843714D02*
X4223572Y-2834190D01*
X4223572Y-2834190D02*
X4195000Y-2834190D01*
X4195000Y-2834190D02*
X4175953Y-2843714D01*
X4175953Y-2843714D02*
X4166429Y-2853238D01*
X4375953Y-2967524D02*
X4356905Y-2958000D01*
X4356905Y-2958000D02*
X4347381Y-2948476D01*
X4347381Y-2948476D02*
X4337858Y-2929428D01*
X4337858Y-2929428D02*
X4337858Y-2872286D01*
X4337858Y-2872286D02*
X4347381Y-2853238D01*
X4347381Y-2853238D02*
X4356905Y-2843714D01*
X4356905Y-2843714D02*
X4375953Y-2834190D01*
X4375953Y-2834190D02*
X4404524Y-2834190D01*
X4404524Y-2834190D02*
X4423572Y-2843714D01*
X4423572Y-2843714D02*
X4433096Y-2853238D01*
X4433096Y-2853238D02*
X4442619Y-2872286D01*
X4442619Y-2872286D02*
X4442619Y-2929428D01*
X4442619Y-2929428D02*
X4433096Y-2948476D01*
X4433096Y-2948476D02*
X4423572Y-2958000D01*
X4423572Y-2958000D02*
X4404524Y-2967524D01*
X4404524Y-2967524D02*
X4375953Y-2967524D01*
X4556905Y-2967524D02*
X4537858Y-2958000D01*
X4537858Y-2958000D02*
X4528334Y-2938952D01*
X4528334Y-2938952D02*
X4528334Y-2767524D01*
X4709286Y-2958000D02*
X4690239Y-2967524D01*
X4690239Y-2967524D02*
X4652143Y-2967524D01*
X4652143Y-2967524D02*
X4633096Y-2958000D01*
X4633096Y-2958000D02*
X4623572Y-2938952D01*
X4623572Y-2938952D02*
X4623572Y-2862762D01*
X4623572Y-2862762D02*
X4633096Y-2843714D01*
X4633096Y-2843714D02*
X4652143Y-2834190D01*
X4652143Y-2834190D02*
X4690239Y-2834190D01*
X4690239Y-2834190D02*
X4709286Y-2843714D01*
X4709286Y-2843714D02*
X4718810Y-2862762D01*
X4718810Y-2862762D02*
X4718810Y-2881809D01*
X4718810Y-2881809D02*
X4623572Y-2900857D01*
X4795000Y-2958000D02*
X4814048Y-2967524D01*
X4814048Y-2967524D02*
X4852143Y-2967524D01*
X4852143Y-2967524D02*
X4871191Y-2958000D01*
X4871191Y-2958000D02*
X4880715Y-2938952D01*
X4880715Y-2938952D02*
X4880715Y-2929428D01*
X4880715Y-2929428D02*
X4871191Y-2910381D01*
X4871191Y-2910381D02*
X4852143Y-2900857D01*
X4852143Y-2900857D02*
X4823572Y-2900857D01*
X4823572Y-2900857D02*
X4804524Y-2891333D01*
X4804524Y-2891333D02*
X4795000Y-2872286D01*
X4795000Y-2872286D02*
X4795000Y-2862762D01*
X4795000Y-2862762D02*
X4804524Y-2843714D01*
X4804524Y-2843714D02*
X4823572Y-2834190D01*
X4823572Y-2834190D02*
X4852143Y-2834190D01*
X4852143Y-2834190D02*
X4871191Y-2843714D01*
X4947381Y-3043714D02*
X4956905Y-3034190D01*
X4956905Y-3034190D02*
X4975953Y-3005619D01*
X4975953Y-3005619D02*
X4985477Y-2986571D01*
X4985477Y-2986571D02*
X4995000Y-2958000D01*
X4995000Y-2958000D02*
X5004524Y-2910381D01*
X5004524Y-2910381D02*
X5004524Y-2872286D01*
X5004524Y-2872286D02*
X4995000Y-2824667D01*
X4995000Y-2824667D02*
X4985477Y-2796095D01*
X4985477Y-2796095D02*
X4975953Y-2777048D01*
X4975953Y-2777048D02*
X4956905Y-2748476D01*
X4956905Y-2748476D02*
X4947381Y-2738952D01*
X5309286Y-3043714D02*
X5299762Y-3034190D01*
X5299762Y-3034190D02*
X5280715Y-3005619D01*
X5280715Y-3005619D02*
X5271191Y-2986571D01*
X5271191Y-2986571D02*
X5261667Y-2958000D01*
X5261667Y-2958000D02*
X5252143Y-2910381D01*
X5252143Y-2910381D02*
X5252143Y-2872286D01*
X5252143Y-2872286D02*
X5261667Y-2824667D01*
X5261667Y-2824667D02*
X5271191Y-2796095D01*
X5271191Y-2796095D02*
X5280715Y-2777048D01*
X5280715Y-2777048D02*
X5299762Y-2748476D01*
X5299762Y-2748476D02*
X5309286Y-2738952D01*
X5385477Y-2834190D02*
X5385477Y-2967524D01*
X5385477Y-2853238D02*
X5395000Y-2843714D01*
X5395000Y-2843714D02*
X5414048Y-2834190D01*
X5414048Y-2834190D02*
X5442620Y-2834190D01*
X5442620Y-2834190D02*
X5461667Y-2843714D01*
X5461667Y-2843714D02*
X5471191Y-2862762D01*
X5471191Y-2862762D02*
X5471191Y-2967524D01*
X5595000Y-2967524D02*
X5575953Y-2958000D01*
X5575953Y-2958000D02*
X5566429Y-2948476D01*
X5566429Y-2948476D02*
X5556905Y-2929428D01*
X5556905Y-2929428D02*
X5556905Y-2872286D01*
X5556905Y-2872286D02*
X5566429Y-2853238D01*
X5566429Y-2853238D02*
X5575953Y-2843714D01*
X5575953Y-2843714D02*
X5595000Y-2834190D01*
X5595000Y-2834190D02*
X5623572Y-2834190D01*
X5623572Y-2834190D02*
X5642619Y-2843714D01*
X5642619Y-2843714D02*
X5652143Y-2853238D01*
X5652143Y-2853238D02*
X5661667Y-2872286D01*
X5661667Y-2872286D02*
X5661667Y-2929428D01*
X5661667Y-2929428D02*
X5652143Y-2948476D01*
X5652143Y-2948476D02*
X5642619Y-2958000D01*
X5642619Y-2958000D02*
X5623572Y-2967524D01*
X5623572Y-2967524D02*
X5595000Y-2967524D01*
X5718810Y-2834190D02*
X5795000Y-2834190D01*
X5747381Y-2767524D02*
X5747381Y-2938952D01*
X5747381Y-2938952D02*
X5756905Y-2958000D01*
X5756905Y-2958000D02*
X5775953Y-2967524D01*
X5775953Y-2967524D02*
X5795000Y-2967524D01*
X6014048Y-2834190D02*
X6014048Y-3034190D01*
X6014048Y-2843714D02*
X6033096Y-2834190D01*
X6033096Y-2834190D02*
X6071191Y-2834190D01*
X6071191Y-2834190D02*
X6090239Y-2843714D01*
X6090239Y-2843714D02*
X6099762Y-2853238D01*
X6099762Y-2853238D02*
X6109286Y-2872286D01*
X6109286Y-2872286D02*
X6109286Y-2929428D01*
X6109286Y-2929428D02*
X6099762Y-2948476D01*
X6099762Y-2948476D02*
X6090239Y-2958000D01*
X6090239Y-2958000D02*
X6071191Y-2967524D01*
X6071191Y-2967524D02*
X6033096Y-2967524D01*
X6033096Y-2967524D02*
X6014048Y-2958000D01*
X6223572Y-2967524D02*
X6204524Y-2958000D01*
X6204524Y-2958000D02*
X6195000Y-2938952D01*
X6195000Y-2938952D02*
X6195000Y-2767524D01*
X6385477Y-2967524D02*
X6385477Y-2862762D01*
X6385477Y-2862762D02*
X6375953Y-2843714D01*
X6375953Y-2843714D02*
X6356905Y-2834190D01*
X6356905Y-2834190D02*
X6318810Y-2834190D01*
X6318810Y-2834190D02*
X6299762Y-2843714D01*
X6385477Y-2958000D02*
X6366429Y-2967524D01*
X6366429Y-2967524D02*
X6318810Y-2967524D01*
X6318810Y-2967524D02*
X6299762Y-2958000D01*
X6299762Y-2958000D02*
X6290239Y-2938952D01*
X6290239Y-2938952D02*
X6290239Y-2919905D01*
X6290239Y-2919905D02*
X6299762Y-2900857D01*
X6299762Y-2900857D02*
X6318810Y-2891333D01*
X6318810Y-2891333D02*
X6366429Y-2891333D01*
X6366429Y-2891333D02*
X6385477Y-2881809D01*
X6452143Y-2834190D02*
X6528334Y-2834190D01*
X6480715Y-2767524D02*
X6480715Y-2938952D01*
X6480715Y-2938952D02*
X6490239Y-2958000D01*
X6490239Y-2958000D02*
X6509286Y-2967524D01*
X6509286Y-2967524D02*
X6528334Y-2967524D01*
X6671191Y-2958000D02*
X6652143Y-2967524D01*
X6652143Y-2967524D02*
X6614048Y-2967524D01*
X6614048Y-2967524D02*
X6595000Y-2958000D01*
X6595000Y-2958000D02*
X6585477Y-2938952D01*
X6585477Y-2938952D02*
X6585477Y-2862762D01*
X6585477Y-2862762D02*
X6595000Y-2843714D01*
X6595000Y-2843714D02*
X6614048Y-2834190D01*
X6614048Y-2834190D02*
X6652143Y-2834190D01*
X6652143Y-2834190D02*
X6671191Y-2843714D01*
X6671191Y-2843714D02*
X6680715Y-2862762D01*
X6680715Y-2862762D02*
X6680715Y-2881809D01*
X6680715Y-2881809D02*
X6585477Y-2900857D01*
X6852143Y-2967524D02*
X6852143Y-2767524D01*
X6852143Y-2958000D02*
X6833096Y-2967524D01*
X6833096Y-2967524D02*
X6795000Y-2967524D01*
X6795000Y-2967524D02*
X6775953Y-2958000D01*
X6775953Y-2958000D02*
X6766429Y-2948476D01*
X6766429Y-2948476D02*
X6756905Y-2929428D01*
X6756905Y-2929428D02*
X6756905Y-2872286D01*
X6756905Y-2872286D02*
X6766429Y-2853238D01*
X6766429Y-2853238D02*
X6775953Y-2843714D01*
X6775953Y-2843714D02*
X6795000Y-2834190D01*
X6795000Y-2834190D02*
X6833096Y-2834190D01*
X6833096Y-2834190D02*
X6852143Y-2843714D01*
X6928334Y-3043714D02*
X6937858Y-3034190D01*
X6937858Y-3034190D02*
X6956905Y-3005619D01*
X6956905Y-3005619D02*
X6966429Y-2986571D01*
X6966429Y-2986571D02*
X6975953Y-2958000D01*
X6975953Y-2958000D02*
X6985477Y-2910381D01*
X6985477Y-2910381D02*
X6985477Y-2872286D01*
X6985477Y-2872286D02*
X6975953Y-2824667D01*
X6975953Y-2824667D02*
X6966429Y-2796095D01*
X6966429Y-2796095D02*
X6956905Y-2777048D01*
X6956905Y-2777048D02*
X6937858Y-2748476D01*
X6937858Y-2748476D02*
X6928334Y-2738952D01*
X-105000Y-3039000D02*
X-105000Y-3239000D01*
X-205000Y-3139000D02*
X-5000Y-3139000D01*
X-5000Y-3139000D02*
G75*
G03*
X-5000Y-3139000I-100000J0D01*
G01*
X223571Y-3031524D02*
X347381Y-3031524D01*
X347381Y-3031524D02*
X280714Y-3107714D01*
X280714Y-3107714D02*
X309286Y-3107714D01*
X309286Y-3107714D02*
X328333Y-3117238D01*
X328333Y-3117238D02*
X337857Y-3126762D01*
X337857Y-3126762D02*
X347381Y-3145809D01*
X347381Y-3145809D02*
X347381Y-3193428D01*
X347381Y-3193428D02*
X337857Y-3212476D01*
X337857Y-3212476D02*
X328333Y-3222000D01*
X328333Y-3222000D02*
X309286Y-3231524D01*
X309286Y-3231524D02*
X252143Y-3231524D01*
X252143Y-3231524D02*
X233095Y-3222000D01*
X233095Y-3222000D02*
X223571Y-3212476D01*
X433095Y-3212476D02*
X442619Y-3222000D01*
X442619Y-3222000D02*
X433095Y-3231524D01*
X433095Y-3231524D02*
X423571Y-3222000D01*
X423571Y-3222000D02*
X433095Y-3212476D01*
X433095Y-3212476D02*
X433095Y-3231524D01*
X518809Y-3050571D02*
X528333Y-3041048D01*
X528333Y-3041048D02*
X547381Y-3031524D01*
X547381Y-3031524D02*
X595000Y-3031524D01*
X595000Y-3031524D02*
X614048Y-3041048D01*
X614048Y-3041048D02*
X623571Y-3050571D01*
X623571Y-3050571D02*
X633095Y-3069619D01*
X633095Y-3069619D02*
X633095Y-3088667D01*
X633095Y-3088667D02*
X623571Y-3117238D01*
X623571Y-3117238D02*
X509286Y-3231524D01*
X509286Y-3231524D02*
X633095Y-3231524D01*
X814048Y-3031524D02*
X718809Y-3031524D01*
X718809Y-3031524D02*
X709286Y-3126762D01*
X709286Y-3126762D02*
X718809Y-3117238D01*
X718809Y-3117238D02*
X737857Y-3107714D01*
X737857Y-3107714D02*
X785476Y-3107714D01*
X785476Y-3107714D02*
X804524Y-3117238D01*
X804524Y-3117238D02*
X814048Y-3126762D01*
X814048Y-3126762D02*
X823571Y-3145809D01*
X823571Y-3145809D02*
X823571Y-3193428D01*
X823571Y-3193428D02*
X814048Y-3212476D01*
X814048Y-3212476D02*
X804524Y-3222000D01*
X804524Y-3222000D02*
X785476Y-3231524D01*
X785476Y-3231524D02*
X737857Y-3231524D01*
X737857Y-3231524D02*
X718809Y-3222000D01*
X718809Y-3222000D02*
X709286Y-3212476D01*
X947381Y-3031524D02*
X966429Y-3031524D01*
X966429Y-3031524D02*
X985476Y-3041048D01*
X985476Y-3041048D02*
X995000Y-3050571D01*
X995000Y-3050571D02*
X1004524Y-3069619D01*
X1004524Y-3069619D02*
X1014048Y-3107714D01*
X1014048Y-3107714D02*
X1014048Y-3155333D01*
X1014048Y-3155333D02*
X1004524Y-3193428D01*
X1004524Y-3193428D02*
X995000Y-3212476D01*
X995000Y-3212476D02*
X985476Y-3222000D01*
X985476Y-3222000D02*
X966429Y-3231524D01*
X966429Y-3231524D02*
X947381Y-3231524D01*
X947381Y-3231524D02*
X928333Y-3222000D01*
X928333Y-3222000D02*
X918809Y-3212476D01*
X918809Y-3212476D02*
X909286Y-3193428D01*
X909286Y-3193428D02*
X899762Y-3155333D01*
X899762Y-3155333D02*
X899762Y-3107714D01*
X899762Y-3107714D02*
X909286Y-3069619D01*
X909286Y-3069619D02*
X918809Y-3050571D01*
X918809Y-3050571D02*
X928333Y-3041048D01*
X928333Y-3041048D02*
X947381Y-3031524D01*
X1099762Y-3231524D02*
X1099762Y-3098190D01*
X1099762Y-3117238D02*
X1109286Y-3107714D01*
X1109286Y-3107714D02*
X1128333Y-3098190D01*
X1128333Y-3098190D02*
X1156905Y-3098190D01*
X1156905Y-3098190D02*
X1175952Y-3107714D01*
X1175952Y-3107714D02*
X1185476Y-3126762D01*
X1185476Y-3126762D02*
X1185476Y-3231524D01*
X1185476Y-3126762D02*
X1195000Y-3107714D01*
X1195000Y-3107714D02*
X1214048Y-3098190D01*
X1214048Y-3098190D02*
X1242619Y-3098190D01*
X1242619Y-3098190D02*
X1261667Y-3107714D01*
X1261667Y-3107714D02*
X1271191Y-3126762D01*
X1271191Y-3126762D02*
X1271191Y-3231524D01*
X1366429Y-3231524D02*
X1366429Y-3098190D01*
X1366429Y-3117238D02*
X1375952Y-3107714D01*
X1375952Y-3107714D02*
X1395000Y-3098190D01*
X1395000Y-3098190D02*
X1423571Y-3098190D01*
X1423571Y-3098190D02*
X1442619Y-3107714D01*
X1442619Y-3107714D02*
X1452143Y-3126762D01*
X1452143Y-3126762D02*
X1452143Y-3231524D01*
X1452143Y-3126762D02*
X1461667Y-3107714D01*
X1461667Y-3107714D02*
X1480714Y-3098190D01*
X1480714Y-3098190D02*
X1509286Y-3098190D01*
X1509286Y-3098190D02*
X1528333Y-3107714D01*
X1528333Y-3107714D02*
X1537857Y-3126762D01*
X1537857Y-3126762D02*
X1537857Y-3231524D01*
X1928333Y-3022000D02*
X1756905Y-3279143D01*
X2185476Y-3031524D02*
X2204524Y-3031524D01*
X2204524Y-3031524D02*
X2223572Y-3041048D01*
X2223572Y-3041048D02*
X2233095Y-3050571D01*
X2233095Y-3050571D02*
X2242619Y-3069619D01*
X2242619Y-3069619D02*
X2252143Y-3107714D01*
X2252143Y-3107714D02*
X2252143Y-3155333D01*
X2252143Y-3155333D02*
X2242619Y-3193428D01*
X2242619Y-3193428D02*
X2233095Y-3212476D01*
X2233095Y-3212476D02*
X2223572Y-3222000D01*
X2223572Y-3222000D02*
X2204524Y-3231524D01*
X2204524Y-3231524D02*
X2185476Y-3231524D01*
X2185476Y-3231524D02*
X2166429Y-3222000D01*
X2166429Y-3222000D02*
X2156905Y-3212476D01*
X2156905Y-3212476D02*
X2147381Y-3193428D01*
X2147381Y-3193428D02*
X2137857Y-3155333D01*
X2137857Y-3155333D02*
X2137857Y-3107714D01*
X2137857Y-3107714D02*
X2147381Y-3069619D01*
X2147381Y-3069619D02*
X2156905Y-3050571D01*
X2156905Y-3050571D02*
X2166429Y-3041048D01*
X2166429Y-3041048D02*
X2185476Y-3031524D01*
X2337857Y-3212476D02*
X2347381Y-3222000D01*
X2347381Y-3222000D02*
X2337857Y-3231524D01*
X2337857Y-3231524D02*
X2328334Y-3222000D01*
X2328334Y-3222000D02*
X2337857Y-3212476D01*
X2337857Y-3212476D02*
X2337857Y-3231524D01*
X2537857Y-3231524D02*
X2423572Y-3231524D01*
X2480714Y-3231524D02*
X2480714Y-3031524D01*
X2480714Y-3031524D02*
X2461667Y-3060095D01*
X2461667Y-3060095D02*
X2442619Y-3079143D01*
X2442619Y-3079143D02*
X2423572Y-3088667D01*
X2614048Y-3050571D02*
X2623572Y-3041048D01*
X2623572Y-3041048D02*
X2642619Y-3031524D01*
X2642619Y-3031524D02*
X2690238Y-3031524D01*
X2690238Y-3031524D02*
X2709286Y-3041048D01*
X2709286Y-3041048D02*
X2718810Y-3050571D01*
X2718810Y-3050571D02*
X2728334Y-3069619D01*
X2728334Y-3069619D02*
X2728334Y-3088667D01*
X2728334Y-3088667D02*
X2718810Y-3117238D01*
X2718810Y-3117238D02*
X2604524Y-3231524D01*
X2604524Y-3231524D02*
X2728334Y-3231524D01*
X2842619Y-3117238D02*
X2823572Y-3107714D01*
X2823572Y-3107714D02*
X2814048Y-3098190D01*
X2814048Y-3098190D02*
X2804524Y-3079143D01*
X2804524Y-3079143D02*
X2804524Y-3069619D01*
X2804524Y-3069619D02*
X2814048Y-3050571D01*
X2814048Y-3050571D02*
X2823572Y-3041048D01*
X2823572Y-3041048D02*
X2842619Y-3031524D01*
X2842619Y-3031524D02*
X2880714Y-3031524D01*
X2880714Y-3031524D02*
X2899762Y-3041048D01*
X2899762Y-3041048D02*
X2909286Y-3050571D01*
X2909286Y-3050571D02*
X2918810Y-3069619D01*
X2918810Y-3069619D02*
X2918810Y-3079143D01*
X2918810Y-3079143D02*
X2909286Y-3098190D01*
X2909286Y-3098190D02*
X2899762Y-3107714D01*
X2899762Y-3107714D02*
X2880714Y-3117238D01*
X2880714Y-3117238D02*
X2842619Y-3117238D01*
X2842619Y-3117238D02*
X2823572Y-3126762D01*
X2823572Y-3126762D02*
X2814048Y-3136286D01*
X2814048Y-3136286D02*
X2804524Y-3155333D01*
X2804524Y-3155333D02*
X2804524Y-3193428D01*
X2804524Y-3193428D02*
X2814048Y-3212476D01*
X2814048Y-3212476D02*
X2823572Y-3222000D01*
X2823572Y-3222000D02*
X2842619Y-3231524D01*
X2842619Y-3231524D02*
X2880714Y-3231524D01*
X2880714Y-3231524D02*
X2899762Y-3222000D01*
X2899762Y-3222000D02*
X2909286Y-3212476D01*
X2909286Y-3212476D02*
X2918810Y-3193428D01*
X2918810Y-3193428D02*
X2918810Y-3155333D01*
X2918810Y-3155333D02*
X2909286Y-3136286D01*
X2909286Y-3136286D02*
X2899762Y-3126762D01*
X2899762Y-3126762D02*
X2880714Y-3117238D01*
X3042619Y-3031524D02*
X3061667Y-3031524D01*
X3061667Y-3031524D02*
X3080714Y-3041048D01*
X3080714Y-3041048D02*
X3090238Y-3050571D01*
X3090238Y-3050571D02*
X3099762Y-3069619D01*
X3099762Y-3069619D02*
X3109286Y-3107714D01*
X3109286Y-3107714D02*
X3109286Y-3155333D01*
X3109286Y-3155333D02*
X3099762Y-3193428D01*
X3099762Y-3193428D02*
X3090238Y-3212476D01*
X3090238Y-3212476D02*
X3080714Y-3222000D01*
X3080714Y-3222000D02*
X3061667Y-3231524D01*
X3061667Y-3231524D02*
X3042619Y-3231524D01*
X3042619Y-3231524D02*
X3023572Y-3222000D01*
X3023572Y-3222000D02*
X3014048Y-3212476D01*
X3014048Y-3212476D02*
X3004524Y-3193428D01*
X3004524Y-3193428D02*
X2995000Y-3155333D01*
X2995000Y-3155333D02*
X2995000Y-3107714D01*
X2995000Y-3107714D02*
X3004524Y-3069619D01*
X3004524Y-3069619D02*
X3014048Y-3050571D01*
X3014048Y-3050571D02*
X3023572Y-3041048D01*
X3023572Y-3041048D02*
X3042619Y-3031524D01*
X3185476Y-3031524D02*
X3185476Y-3069619D01*
X3261667Y-3031524D02*
X3261667Y-3069619D01*
X3556905Y-3307714D02*
X3547381Y-3298190D01*
X3547381Y-3298190D02*
X3528334Y-3269619D01*
X3528334Y-3269619D02*
X3518810Y-3250571D01*
X3518810Y-3250571D02*
X3509286Y-3222000D01*
X3509286Y-3222000D02*
X3499762Y-3174381D01*
X3499762Y-3174381D02*
X3499762Y-3136286D01*
X3499762Y-3136286D02*
X3509286Y-3088667D01*
X3509286Y-3088667D02*
X3518810Y-3060095D01*
X3518810Y-3060095D02*
X3528334Y-3041048D01*
X3528334Y-3041048D02*
X3547381Y-3012476D01*
X3547381Y-3012476D02*
X3556905Y-3002952D01*
X3623572Y-3050571D02*
X3633095Y-3041048D01*
X3633095Y-3041048D02*
X3652143Y-3031524D01*
X3652143Y-3031524D02*
X3699762Y-3031524D01*
X3699762Y-3031524D02*
X3718810Y-3041048D01*
X3718810Y-3041048D02*
X3728334Y-3050571D01*
X3728334Y-3050571D02*
X3737857Y-3069619D01*
X3737857Y-3069619D02*
X3737857Y-3088667D01*
X3737857Y-3088667D02*
X3728334Y-3117238D01*
X3728334Y-3117238D02*
X3614048Y-3231524D01*
X3614048Y-3231524D02*
X3737857Y-3231524D01*
X3975953Y-3231524D02*
X3975953Y-3031524D01*
X4061667Y-3231524D02*
X4061667Y-3126762D01*
X4061667Y-3126762D02*
X4052143Y-3107714D01*
X4052143Y-3107714D02*
X4033096Y-3098190D01*
X4033096Y-3098190D02*
X4004524Y-3098190D01*
X4004524Y-3098190D02*
X3985476Y-3107714D01*
X3985476Y-3107714D02*
X3975953Y-3117238D01*
X4185476Y-3231524D02*
X4166429Y-3222000D01*
X4166429Y-3222000D02*
X4156905Y-3212476D01*
X4156905Y-3212476D02*
X4147381Y-3193428D01*
X4147381Y-3193428D02*
X4147381Y-3136286D01*
X4147381Y-3136286D02*
X4156905Y-3117238D01*
X4156905Y-3117238D02*
X4166429Y-3107714D01*
X4166429Y-3107714D02*
X4185476Y-3098190D01*
X4185476Y-3098190D02*
X4214048Y-3098190D01*
X4214048Y-3098190D02*
X4233096Y-3107714D01*
X4233096Y-3107714D02*
X4242619Y-3117238D01*
X4242619Y-3117238D02*
X4252143Y-3136286D01*
X4252143Y-3136286D02*
X4252143Y-3193428D01*
X4252143Y-3193428D02*
X4242619Y-3212476D01*
X4242619Y-3212476D02*
X4233096Y-3222000D01*
X4233096Y-3222000D02*
X4214048Y-3231524D01*
X4214048Y-3231524D02*
X4185476Y-3231524D01*
X4366429Y-3231524D02*
X4347381Y-3222000D01*
X4347381Y-3222000D02*
X4337858Y-3202952D01*
X4337858Y-3202952D02*
X4337858Y-3031524D01*
X4518810Y-3222000D02*
X4499762Y-3231524D01*
X4499762Y-3231524D02*
X4461667Y-3231524D01*
X4461667Y-3231524D02*
X4442619Y-3222000D01*
X4442619Y-3222000D02*
X4433096Y-3202952D01*
X4433096Y-3202952D02*
X4433096Y-3126762D01*
X4433096Y-3126762D02*
X4442619Y-3107714D01*
X4442619Y-3107714D02*
X4461667Y-3098190D01*
X4461667Y-3098190D02*
X4499762Y-3098190D01*
X4499762Y-3098190D02*
X4518810Y-3107714D01*
X4518810Y-3107714D02*
X4528334Y-3126762D01*
X4528334Y-3126762D02*
X4528334Y-3145809D01*
X4528334Y-3145809D02*
X4433096Y-3164857D01*
X4604524Y-3222000D02*
X4623572Y-3231524D01*
X4623572Y-3231524D02*
X4661667Y-3231524D01*
X4661667Y-3231524D02*
X4680715Y-3222000D01*
X4680715Y-3222000D02*
X4690239Y-3202952D01*
X4690239Y-3202952D02*
X4690239Y-3193428D01*
X4690239Y-3193428D02*
X4680715Y-3174381D01*
X4680715Y-3174381D02*
X4661667Y-3164857D01*
X4661667Y-3164857D02*
X4633096Y-3164857D01*
X4633096Y-3164857D02*
X4614048Y-3155333D01*
X4614048Y-3155333D02*
X4604524Y-3136286D01*
X4604524Y-3136286D02*
X4604524Y-3126762D01*
X4604524Y-3126762D02*
X4614048Y-3107714D01*
X4614048Y-3107714D02*
X4633096Y-3098190D01*
X4633096Y-3098190D02*
X4661667Y-3098190D01*
X4661667Y-3098190D02*
X4680715Y-3107714D01*
X4756905Y-3307714D02*
X4766429Y-3298190D01*
X4766429Y-3298190D02*
X4785477Y-3269619D01*
X4785477Y-3269619D02*
X4795000Y-3250571D01*
X4795000Y-3250571D02*
X4804524Y-3222000D01*
X4804524Y-3222000D02*
X4814048Y-3174381D01*
X4814048Y-3174381D02*
X4814048Y-3136286D01*
X4814048Y-3136286D02*
X4804524Y-3088667D01*
X4804524Y-3088667D02*
X4795000Y-3060095D01*
X4795000Y-3060095D02*
X4785477Y-3041048D01*
X4785477Y-3041048D02*
X4766429Y-3012476D01*
X4766429Y-3012476D02*
X4756905Y-3002952D01*
X5118810Y-3307714D02*
X5109286Y-3298190D01*
X5109286Y-3298190D02*
X5090239Y-3269619D01*
X5090239Y-3269619D02*
X5080715Y-3250571D01*
X5080715Y-3250571D02*
X5071191Y-3222000D01*
X5071191Y-3222000D02*
X5061667Y-3174381D01*
X5061667Y-3174381D02*
X5061667Y-3136286D01*
X5061667Y-3136286D02*
X5071191Y-3088667D01*
X5071191Y-3088667D02*
X5080715Y-3060095D01*
X5080715Y-3060095D02*
X5090239Y-3041048D01*
X5090239Y-3041048D02*
X5109286Y-3012476D01*
X5109286Y-3012476D02*
X5118810Y-3002952D01*
X5195000Y-3098190D02*
X5195000Y-3231524D01*
X5195000Y-3117238D02*
X5204524Y-3107714D01*
X5204524Y-3107714D02*
X5223572Y-3098190D01*
X5223572Y-3098190D02*
X5252143Y-3098190D01*
X5252143Y-3098190D02*
X5271191Y-3107714D01*
X5271191Y-3107714D02*
X5280715Y-3126762D01*
X5280715Y-3126762D02*
X5280715Y-3231524D01*
X5404524Y-3231524D02*
X5385477Y-3222000D01*
X5385477Y-3222000D02*
X5375953Y-3212476D01*
X5375953Y-3212476D02*
X5366429Y-3193428D01*
X5366429Y-3193428D02*
X5366429Y-3136286D01*
X5366429Y-3136286D02*
X5375953Y-3117238D01*
X5375953Y-3117238D02*
X5385477Y-3107714D01*
X5385477Y-3107714D02*
X5404524Y-3098190D01*
X5404524Y-3098190D02*
X5433096Y-3098190D01*
X5433096Y-3098190D02*
X5452143Y-3107714D01*
X5452143Y-3107714D02*
X5461667Y-3117238D01*
X5461667Y-3117238D02*
X5471191Y-3136286D01*
X5471191Y-3136286D02*
X5471191Y-3193428D01*
X5471191Y-3193428D02*
X5461667Y-3212476D01*
X5461667Y-3212476D02*
X5452143Y-3222000D01*
X5452143Y-3222000D02*
X5433096Y-3231524D01*
X5433096Y-3231524D02*
X5404524Y-3231524D01*
X5528334Y-3098190D02*
X5604524Y-3098190D01*
X5556905Y-3031524D02*
X5556905Y-3202952D01*
X5556905Y-3202952D02*
X5566429Y-3222000D01*
X5566429Y-3222000D02*
X5585477Y-3231524D01*
X5585477Y-3231524D02*
X5604524Y-3231524D01*
X5823572Y-3098190D02*
X5823572Y-3298190D01*
X5823572Y-3107714D02*
X5842619Y-3098190D01*
X5842619Y-3098190D02*
X5880715Y-3098190D01*
X5880715Y-3098190D02*
X5899762Y-3107714D01*
X5899762Y-3107714D02*
X5909286Y-3117238D01*
X5909286Y-3117238D02*
X5918810Y-3136286D01*
X5918810Y-3136286D02*
X5918810Y-3193428D01*
X5918810Y-3193428D02*
X5909286Y-3212476D01*
X5909286Y-3212476D02*
X5899762Y-3222000D01*
X5899762Y-3222000D02*
X5880715Y-3231524D01*
X5880715Y-3231524D02*
X5842619Y-3231524D01*
X5842619Y-3231524D02*
X5823572Y-3222000D01*
X6033096Y-3231524D02*
X6014048Y-3222000D01*
X6014048Y-3222000D02*
X6004524Y-3202952D01*
X6004524Y-3202952D02*
X6004524Y-3031524D01*
X6195000Y-3231524D02*
X6195000Y-3126762D01*
X6195000Y-3126762D02*
X6185477Y-3107714D01*
X6185477Y-3107714D02*
X6166429Y-3098190D01*
X6166429Y-3098190D02*
X6128334Y-3098190D01*
X6128334Y-3098190D02*
X6109286Y-3107714D01*
X6195000Y-3222000D02*
X6175953Y-3231524D01*
X6175953Y-3231524D02*
X6128334Y-3231524D01*
X6128334Y-3231524D02*
X6109286Y-3222000D01*
X6109286Y-3222000D02*
X6099762Y-3202952D01*
X6099762Y-3202952D02*
X6099762Y-3183905D01*
X6099762Y-3183905D02*
X6109286Y-3164857D01*
X6109286Y-3164857D02*
X6128334Y-3155333D01*
X6128334Y-3155333D02*
X6175953Y-3155333D01*
X6175953Y-3155333D02*
X6195000Y-3145809D01*
X6261667Y-3098190D02*
X6337858Y-3098190D01*
X6290239Y-3031524D02*
X6290239Y-3202952D01*
X6290239Y-3202952D02*
X6299762Y-3222000D01*
X6299762Y-3222000D02*
X6318810Y-3231524D01*
X6318810Y-3231524D02*
X6337858Y-3231524D01*
X6480715Y-3222000D02*
X6461667Y-3231524D01*
X6461667Y-3231524D02*
X6423572Y-3231524D01*
X6423572Y-3231524D02*
X6404524Y-3222000D01*
X6404524Y-3222000D02*
X6395000Y-3202952D01*
X6395000Y-3202952D02*
X6395000Y-3126762D01*
X6395000Y-3126762D02*
X6404524Y-3107714D01*
X6404524Y-3107714D02*
X6423572Y-3098190D01*
X6423572Y-3098190D02*
X6461667Y-3098190D01*
X6461667Y-3098190D02*
X6480715Y-3107714D01*
X6480715Y-3107714D02*
X6490239Y-3126762D01*
X6490239Y-3126762D02*
X6490239Y-3145809D01*
X6490239Y-3145809D02*
X6395000Y-3164857D01*
X6661667Y-3231524D02*
X6661667Y-3031524D01*
X6661667Y-3222000D02*
X6642620Y-3231524D01*
X6642620Y-3231524D02*
X6604524Y-3231524D01*
X6604524Y-3231524D02*
X6585477Y-3222000D01*
X6585477Y-3222000D02*
X6575953Y-3212476D01*
X6575953Y-3212476D02*
X6566429Y-3193428D01*
X6566429Y-3193428D02*
X6566429Y-3136286D01*
X6566429Y-3136286D02*
X6575953Y-3117238D01*
X6575953Y-3117238D02*
X6585477Y-3107714D01*
X6585477Y-3107714D02*
X6604524Y-3098190D01*
X6604524Y-3098190D02*
X6642620Y-3098190D01*
X6642620Y-3098190D02*
X6661667Y-3107714D01*
X6737858Y-3307714D02*
X6747381Y-3298190D01*
X6747381Y-3298190D02*
X6766429Y-3269619D01*
X6766429Y-3269619D02*
X6775953Y-3250571D01*
X6775953Y-3250571D02*
X6785477Y-3222000D01*
X6785477Y-3222000D02*
X6795000Y-3174381D01*
X6795000Y-3174381D02*
X6795000Y-3136286D01*
X6795000Y-3136286D02*
X6785477Y-3088667D01*
X6785477Y-3088667D02*
X6775953Y-3060095D01*
X6775953Y-3060095D02*
X6766429Y-3041048D01*
X6766429Y-3041048D02*
X6747381Y-3012476D01*
X6747381Y-3012476D02*
X6737858Y-3002952D01*
X-34289Y-3529711D02*
X-34289Y-3388289D01*
X-175711Y-3388289D01*
X-175711Y-3529711D01*
X-34289Y-3529711D01*
X-5000Y-3459000D02*
G75*
G03*
X-5000Y-3459000I-100000J0D01*
G01*
X328333Y-3418190D02*
X328333Y-3551524D01*
X280714Y-3342000D02*
X233095Y-3484857D01*
X233095Y-3484857D02*
X356905Y-3484857D01*
X433095Y-3532476D02*
X442619Y-3542000D01*
X442619Y-3542000D02*
X433095Y-3551524D01*
X433095Y-3551524D02*
X423571Y-3542000D01*
X423571Y-3542000D02*
X433095Y-3532476D01*
X433095Y-3532476D02*
X433095Y-3551524D01*
X623571Y-3351524D02*
X528333Y-3351524D01*
X528333Y-3351524D02*
X518809Y-3446762D01*
X518809Y-3446762D02*
X528333Y-3437238D01*
X528333Y-3437238D02*
X547381Y-3427714D01*
X547381Y-3427714D02*
X595000Y-3427714D01*
X595000Y-3427714D02*
X614048Y-3437238D01*
X614048Y-3437238D02*
X623571Y-3446762D01*
X623571Y-3446762D02*
X633095Y-3465809D01*
X633095Y-3465809D02*
X633095Y-3513428D01*
X633095Y-3513428D02*
X623571Y-3532476D01*
X623571Y-3532476D02*
X614048Y-3542000D01*
X614048Y-3542000D02*
X595000Y-3551524D01*
X595000Y-3551524D02*
X547381Y-3551524D01*
X547381Y-3551524D02*
X528333Y-3542000D01*
X528333Y-3542000D02*
X518809Y-3532476D01*
X756905Y-3351524D02*
X775952Y-3351524D01*
X775952Y-3351524D02*
X795000Y-3361048D01*
X795000Y-3361048D02*
X804524Y-3370571D01*
X804524Y-3370571D02*
X814048Y-3389619D01*
X814048Y-3389619D02*
X823571Y-3427714D01*
X823571Y-3427714D02*
X823571Y-3475333D01*
X823571Y-3475333D02*
X814048Y-3513428D01*
X814048Y-3513428D02*
X804524Y-3532476D01*
X804524Y-3532476D02*
X795000Y-3542000D01*
X795000Y-3542000D02*
X775952Y-3551524D01*
X775952Y-3551524D02*
X756905Y-3551524D01*
X756905Y-3551524D02*
X737857Y-3542000D01*
X737857Y-3542000D02*
X728333Y-3532476D01*
X728333Y-3532476D02*
X718809Y-3513428D01*
X718809Y-3513428D02*
X709286Y-3475333D01*
X709286Y-3475333D02*
X709286Y-3427714D01*
X709286Y-3427714D02*
X718809Y-3389619D01*
X718809Y-3389619D02*
X728333Y-3370571D01*
X728333Y-3370571D02*
X737857Y-3361048D01*
X737857Y-3361048D02*
X756905Y-3351524D01*
X947381Y-3351524D02*
X966429Y-3351524D01*
X966429Y-3351524D02*
X985476Y-3361048D01*
X985476Y-3361048D02*
X995000Y-3370571D01*
X995000Y-3370571D02*
X1004524Y-3389619D01*
X1004524Y-3389619D02*
X1014048Y-3427714D01*
X1014048Y-3427714D02*
X1014048Y-3475333D01*
X1014048Y-3475333D02*
X1004524Y-3513428D01*
X1004524Y-3513428D02*
X995000Y-3532476D01*
X995000Y-3532476D02*
X985476Y-3542000D01*
X985476Y-3542000D02*
X966429Y-3551524D01*
X966429Y-3551524D02*
X947381Y-3551524D01*
X947381Y-3551524D02*
X928333Y-3542000D01*
X928333Y-3542000D02*
X918809Y-3532476D01*
X918809Y-3532476D02*
X909286Y-3513428D01*
X909286Y-3513428D02*
X899762Y-3475333D01*
X899762Y-3475333D02*
X899762Y-3427714D01*
X899762Y-3427714D02*
X909286Y-3389619D01*
X909286Y-3389619D02*
X918809Y-3370571D01*
X918809Y-3370571D02*
X928333Y-3361048D01*
X928333Y-3361048D02*
X947381Y-3351524D01*
X1099762Y-3551524D02*
X1099762Y-3418190D01*
X1099762Y-3437238D02*
X1109286Y-3427714D01*
X1109286Y-3427714D02*
X1128333Y-3418190D01*
X1128333Y-3418190D02*
X1156905Y-3418190D01*
X1156905Y-3418190D02*
X1175952Y-3427714D01*
X1175952Y-3427714D02*
X1185476Y-3446762D01*
X1185476Y-3446762D02*
X1185476Y-3551524D01*
X1185476Y-3446762D02*
X1195000Y-3427714D01*
X1195000Y-3427714D02*
X1214048Y-3418190D01*
X1214048Y-3418190D02*
X1242619Y-3418190D01*
X1242619Y-3418190D02*
X1261667Y-3427714D01*
X1261667Y-3427714D02*
X1271191Y-3446762D01*
X1271191Y-3446762D02*
X1271191Y-3551524D01*
X1366429Y-3551524D02*
X1366429Y-3418190D01*
X1366429Y-3437238D02*
X1375952Y-3427714D01*
X1375952Y-3427714D02*
X1395000Y-3418190D01*
X1395000Y-3418190D02*
X1423571Y-3418190D01*
X1423571Y-3418190D02*
X1442619Y-3427714D01*
X1442619Y-3427714D02*
X1452143Y-3446762D01*
X1452143Y-3446762D02*
X1452143Y-3551524D01*
X1452143Y-3446762D02*
X1461667Y-3427714D01*
X1461667Y-3427714D02*
X1480714Y-3418190D01*
X1480714Y-3418190D02*
X1509286Y-3418190D01*
X1509286Y-3418190D02*
X1528333Y-3427714D01*
X1528333Y-3427714D02*
X1537857Y-3446762D01*
X1537857Y-3446762D02*
X1537857Y-3551524D01*
X1928333Y-3342000D02*
X1756905Y-3599143D01*
X2185476Y-3351524D02*
X2204524Y-3351524D01*
X2204524Y-3351524D02*
X2223572Y-3361048D01*
X2223572Y-3361048D02*
X2233095Y-3370571D01*
X2233095Y-3370571D02*
X2242619Y-3389619D01*
X2242619Y-3389619D02*
X2252143Y-3427714D01*
X2252143Y-3427714D02*
X2252143Y-3475333D01*
X2252143Y-3475333D02*
X2242619Y-3513428D01*
X2242619Y-3513428D02*
X2233095Y-3532476D01*
X2233095Y-3532476D02*
X2223572Y-3542000D01*
X2223572Y-3542000D02*
X2204524Y-3551524D01*
X2204524Y-3551524D02*
X2185476Y-3551524D01*
X2185476Y-3551524D02*
X2166429Y-3542000D01*
X2166429Y-3542000D02*
X2156905Y-3532476D01*
X2156905Y-3532476D02*
X2147381Y-3513428D01*
X2147381Y-3513428D02*
X2137857Y-3475333D01*
X2137857Y-3475333D02*
X2137857Y-3427714D01*
X2137857Y-3427714D02*
X2147381Y-3389619D01*
X2147381Y-3389619D02*
X2156905Y-3370571D01*
X2156905Y-3370571D02*
X2166429Y-3361048D01*
X2166429Y-3361048D02*
X2185476Y-3351524D01*
X2337857Y-3532476D02*
X2347381Y-3542000D01*
X2347381Y-3542000D02*
X2337857Y-3551524D01*
X2337857Y-3551524D02*
X2328334Y-3542000D01*
X2328334Y-3542000D02*
X2337857Y-3532476D01*
X2337857Y-3532476D02*
X2337857Y-3551524D01*
X2537857Y-3551524D02*
X2423572Y-3551524D01*
X2480714Y-3551524D02*
X2480714Y-3351524D01*
X2480714Y-3351524D02*
X2461667Y-3380095D01*
X2461667Y-3380095D02*
X2442619Y-3399143D01*
X2442619Y-3399143D02*
X2423572Y-3408667D01*
X2604524Y-3351524D02*
X2737857Y-3351524D01*
X2737857Y-3351524D02*
X2652143Y-3551524D01*
X2795000Y-3351524D02*
X2928333Y-3351524D01*
X2928333Y-3351524D02*
X2842619Y-3551524D01*
X2995000Y-3370571D02*
X3004524Y-3361048D01*
X3004524Y-3361048D02*
X3023572Y-3351524D01*
X3023572Y-3351524D02*
X3071191Y-3351524D01*
X3071191Y-3351524D02*
X3090238Y-3361048D01*
X3090238Y-3361048D02*
X3099762Y-3370571D01*
X3099762Y-3370571D02*
X3109286Y-3389619D01*
X3109286Y-3389619D02*
X3109286Y-3408667D01*
X3109286Y-3408667D02*
X3099762Y-3437238D01*
X3099762Y-3437238D02*
X2985476Y-3551524D01*
X2985476Y-3551524D02*
X3109286Y-3551524D01*
X3185476Y-3351524D02*
X3185476Y-3389619D01*
X3261667Y-3351524D02*
X3261667Y-3389619D01*
X3556905Y-3627714D02*
X3547381Y-3618190D01*
X3547381Y-3618190D02*
X3528334Y-3589619D01*
X3528334Y-3589619D02*
X3518810Y-3570571D01*
X3518810Y-3570571D02*
X3509286Y-3542000D01*
X3509286Y-3542000D02*
X3499762Y-3494381D01*
X3499762Y-3494381D02*
X3499762Y-3456286D01*
X3499762Y-3456286D02*
X3509286Y-3408667D01*
X3509286Y-3408667D02*
X3518810Y-3380095D01*
X3518810Y-3380095D02*
X3528334Y-3361048D01*
X3528334Y-3361048D02*
X3547381Y-3332476D01*
X3547381Y-3332476D02*
X3556905Y-3322952D01*
X3718810Y-3351524D02*
X3680714Y-3351524D01*
X3680714Y-3351524D02*
X3661667Y-3361048D01*
X3661667Y-3361048D02*
X3652143Y-3370571D01*
X3652143Y-3370571D02*
X3633095Y-3399143D01*
X3633095Y-3399143D02*
X3623572Y-3437238D01*
X3623572Y-3437238D02*
X3623572Y-3513428D01*
X3623572Y-3513428D02*
X3633095Y-3532476D01*
X3633095Y-3532476D02*
X3642619Y-3542000D01*
X3642619Y-3542000D02*
X3661667Y-3551524D01*
X3661667Y-3551524D02*
X3699762Y-3551524D01*
X3699762Y-3551524D02*
X3718810Y-3542000D01*
X3718810Y-3542000D02*
X3728334Y-3532476D01*
X3728334Y-3532476D02*
X3737857Y-3513428D01*
X3737857Y-3513428D02*
X3737857Y-3465809D01*
X3737857Y-3465809D02*
X3728334Y-3446762D01*
X3728334Y-3446762D02*
X3718810Y-3437238D01*
X3718810Y-3437238D02*
X3699762Y-3427714D01*
X3699762Y-3427714D02*
X3661667Y-3427714D01*
X3661667Y-3427714D02*
X3642619Y-3437238D01*
X3642619Y-3437238D02*
X3633095Y-3446762D01*
X3633095Y-3446762D02*
X3623572Y-3465809D01*
X3975953Y-3551524D02*
X3975953Y-3351524D01*
X4061667Y-3551524D02*
X4061667Y-3446762D01*
X4061667Y-3446762D02*
X4052143Y-3427714D01*
X4052143Y-3427714D02*
X4033096Y-3418190D01*
X4033096Y-3418190D02*
X4004524Y-3418190D01*
X4004524Y-3418190D02*
X3985476Y-3427714D01*
X3985476Y-3427714D02*
X3975953Y-3437238D01*
X4185476Y-3551524D02*
X4166429Y-3542000D01*
X4166429Y-3542000D02*
X4156905Y-3532476D01*
X4156905Y-3532476D02*
X4147381Y-3513428D01*
X4147381Y-3513428D02*
X4147381Y-3456286D01*
X4147381Y-3456286D02*
X4156905Y-3437238D01*
X4156905Y-3437238D02*
X4166429Y-3427714D01*
X4166429Y-3427714D02*
X4185476Y-3418190D01*
X4185476Y-3418190D02*
X4214048Y-3418190D01*
X4214048Y-3418190D02*
X4233096Y-3427714D01*
X4233096Y-3427714D02*
X4242619Y-3437238D01*
X4242619Y-3437238D02*
X4252143Y-3456286D01*
X4252143Y-3456286D02*
X4252143Y-3513428D01*
X4252143Y-3513428D02*
X4242619Y-3532476D01*
X4242619Y-3532476D02*
X4233096Y-3542000D01*
X4233096Y-3542000D02*
X4214048Y-3551524D01*
X4214048Y-3551524D02*
X4185476Y-3551524D01*
X4366429Y-3551524D02*
X4347381Y-3542000D01*
X4347381Y-3542000D02*
X4337858Y-3522952D01*
X4337858Y-3522952D02*
X4337858Y-3351524D01*
X4518810Y-3542000D02*
X4499762Y-3551524D01*
X4499762Y-3551524D02*
X4461667Y-3551524D01*
X4461667Y-3551524D02*
X4442619Y-3542000D01*
X4442619Y-3542000D02*
X4433096Y-3522952D01*
X4433096Y-3522952D02*
X4433096Y-3446762D01*
X4433096Y-3446762D02*
X4442619Y-3427714D01*
X4442619Y-3427714D02*
X4461667Y-3418190D01*
X4461667Y-3418190D02*
X4499762Y-3418190D01*
X4499762Y-3418190D02*
X4518810Y-3427714D01*
X4518810Y-3427714D02*
X4528334Y-3446762D01*
X4528334Y-3446762D02*
X4528334Y-3465809D01*
X4528334Y-3465809D02*
X4433096Y-3484857D01*
X4604524Y-3542000D02*
X4623572Y-3551524D01*
X4623572Y-3551524D02*
X4661667Y-3551524D01*
X4661667Y-3551524D02*
X4680715Y-3542000D01*
X4680715Y-3542000D02*
X4690239Y-3522952D01*
X4690239Y-3522952D02*
X4690239Y-3513428D01*
X4690239Y-3513428D02*
X4680715Y-3494381D01*
X4680715Y-3494381D02*
X4661667Y-3484857D01*
X4661667Y-3484857D02*
X4633096Y-3484857D01*
X4633096Y-3484857D02*
X4614048Y-3475333D01*
X4614048Y-3475333D02*
X4604524Y-3456286D01*
X4604524Y-3456286D02*
X4604524Y-3446762D01*
X4604524Y-3446762D02*
X4614048Y-3427714D01*
X4614048Y-3427714D02*
X4633096Y-3418190D01*
X4633096Y-3418190D02*
X4661667Y-3418190D01*
X4661667Y-3418190D02*
X4680715Y-3427714D01*
X4756905Y-3627714D02*
X4766429Y-3618190D01*
X4766429Y-3618190D02*
X4785477Y-3589619D01*
X4785477Y-3589619D02*
X4795000Y-3570571D01*
X4795000Y-3570571D02*
X4804524Y-3542000D01*
X4804524Y-3542000D02*
X4814048Y-3494381D01*
X4814048Y-3494381D02*
X4814048Y-3456286D01*
X4814048Y-3456286D02*
X4804524Y-3408667D01*
X4804524Y-3408667D02*
X4795000Y-3380095D01*
X4795000Y-3380095D02*
X4785477Y-3361048D01*
X4785477Y-3361048D02*
X4766429Y-3332476D01*
X4766429Y-3332476D02*
X4756905Y-3322952D01*
X5118810Y-3627714D02*
X5109286Y-3618190D01*
X5109286Y-3618190D02*
X5090239Y-3589619D01*
X5090239Y-3589619D02*
X5080715Y-3570571D01*
X5080715Y-3570571D02*
X5071191Y-3542000D01*
X5071191Y-3542000D02*
X5061667Y-3494381D01*
X5061667Y-3494381D02*
X5061667Y-3456286D01*
X5061667Y-3456286D02*
X5071191Y-3408667D01*
X5071191Y-3408667D02*
X5080715Y-3380095D01*
X5080715Y-3380095D02*
X5090239Y-3361048D01*
X5090239Y-3361048D02*
X5109286Y-3332476D01*
X5109286Y-3332476D02*
X5118810Y-3322952D01*
X5195000Y-3418190D02*
X5195000Y-3551524D01*
X5195000Y-3437238D02*
X5204524Y-3427714D01*
X5204524Y-3427714D02*
X5223572Y-3418190D01*
X5223572Y-3418190D02*
X5252143Y-3418190D01*
X5252143Y-3418190D02*
X5271191Y-3427714D01*
X5271191Y-3427714D02*
X5280715Y-3446762D01*
X5280715Y-3446762D02*
X5280715Y-3551524D01*
X5404524Y-3551524D02*
X5385477Y-3542000D01*
X5385477Y-3542000D02*
X5375953Y-3532476D01*
X5375953Y-3532476D02*
X5366429Y-3513428D01*
X5366429Y-3513428D02*
X5366429Y-3456286D01*
X5366429Y-3456286D02*
X5375953Y-3437238D01*
X5375953Y-3437238D02*
X5385477Y-3427714D01*
X5385477Y-3427714D02*
X5404524Y-3418190D01*
X5404524Y-3418190D02*
X5433096Y-3418190D01*
X5433096Y-3418190D02*
X5452143Y-3427714D01*
X5452143Y-3427714D02*
X5461667Y-3437238D01*
X5461667Y-3437238D02*
X5471191Y-3456286D01*
X5471191Y-3456286D02*
X5471191Y-3513428D01*
X5471191Y-3513428D02*
X5461667Y-3532476D01*
X5461667Y-3532476D02*
X5452143Y-3542000D01*
X5452143Y-3542000D02*
X5433096Y-3551524D01*
X5433096Y-3551524D02*
X5404524Y-3551524D01*
X5528334Y-3418190D02*
X5604524Y-3418190D01*
X5556905Y-3351524D02*
X5556905Y-3522952D01*
X5556905Y-3522952D02*
X5566429Y-3542000D01*
X5566429Y-3542000D02*
X5585477Y-3551524D01*
X5585477Y-3551524D02*
X5604524Y-3551524D01*
X5823572Y-3418190D02*
X5823572Y-3618190D01*
X5823572Y-3427714D02*
X5842619Y-3418190D01*
X5842619Y-3418190D02*
X5880715Y-3418190D01*
X5880715Y-3418190D02*
X5899762Y-3427714D01*
X5899762Y-3427714D02*
X5909286Y-3437238D01*
X5909286Y-3437238D02*
X5918810Y-3456286D01*
X5918810Y-3456286D02*
X5918810Y-3513428D01*
X5918810Y-3513428D02*
X5909286Y-3532476D01*
X5909286Y-3532476D02*
X5899762Y-3542000D01*
X5899762Y-3542000D02*
X5880715Y-3551524D01*
X5880715Y-3551524D02*
X5842619Y-3551524D01*
X5842619Y-3551524D02*
X5823572Y-3542000D01*
X6033096Y-3551524D02*
X6014048Y-3542000D01*
X6014048Y-3542000D02*
X6004524Y-3522952D01*
X6004524Y-3522952D02*
X6004524Y-3351524D01*
X6195000Y-3551524D02*
X6195000Y-3446762D01*
X6195000Y-3446762D02*
X6185477Y-3427714D01*
X6185477Y-3427714D02*
X6166429Y-3418190D01*
X6166429Y-3418190D02*
X6128334Y-3418190D01*
X6128334Y-3418190D02*
X6109286Y-3427714D01*
X6195000Y-3542000D02*
X6175953Y-3551524D01*
X6175953Y-3551524D02*
X6128334Y-3551524D01*
X6128334Y-3551524D02*
X6109286Y-3542000D01*
X6109286Y-3542000D02*
X6099762Y-3522952D01*
X6099762Y-3522952D02*
X6099762Y-3503905D01*
X6099762Y-3503905D02*
X6109286Y-3484857D01*
X6109286Y-3484857D02*
X6128334Y-3475333D01*
X6128334Y-3475333D02*
X6175953Y-3475333D01*
X6175953Y-3475333D02*
X6195000Y-3465809D01*
X6261667Y-3418190D02*
X6337858Y-3418190D01*
X6290239Y-3351524D02*
X6290239Y-3522952D01*
X6290239Y-3522952D02*
X6299762Y-3542000D01*
X6299762Y-3542000D02*
X6318810Y-3551524D01*
X6318810Y-3551524D02*
X6337858Y-3551524D01*
X6480715Y-3542000D02*
X6461667Y-3551524D01*
X6461667Y-3551524D02*
X6423572Y-3551524D01*
X6423572Y-3551524D02*
X6404524Y-3542000D01*
X6404524Y-3542000D02*
X6395000Y-3522952D01*
X6395000Y-3522952D02*
X6395000Y-3446762D01*
X6395000Y-3446762D02*
X6404524Y-3427714D01*
X6404524Y-3427714D02*
X6423572Y-3418190D01*
X6423572Y-3418190D02*
X6461667Y-3418190D01*
X6461667Y-3418190D02*
X6480715Y-3427714D01*
X6480715Y-3427714D02*
X6490239Y-3446762D01*
X6490239Y-3446762D02*
X6490239Y-3465809D01*
X6490239Y-3465809D02*
X6395000Y-3484857D01*
X6661667Y-3551524D02*
X6661667Y-3351524D01*
X6661667Y-3542000D02*
X6642620Y-3551524D01*
X6642620Y-3551524D02*
X6604524Y-3551524D01*
X6604524Y-3551524D02*
X6585477Y-3542000D01*
X6585477Y-3542000D02*
X6575953Y-3532476D01*
X6575953Y-3532476D02*
X6566429Y-3513428D01*
X6566429Y-3513428D02*
X6566429Y-3456286D01*
X6566429Y-3456286D02*
X6575953Y-3437238D01*
X6575953Y-3437238D02*
X6585477Y-3427714D01*
X6585477Y-3427714D02*
X6604524Y-3418190D01*
X6604524Y-3418190D02*
X6642620Y-3418190D01*
X6642620Y-3418190D02*
X6661667Y-3427714D01*
X6737858Y-3627714D02*
X6747381Y-3618190D01*
X6747381Y-3618190D02*
X6766429Y-3589619D01*
X6766429Y-3589619D02*
X6775953Y-3570571D01*
X6775953Y-3570571D02*
X6785477Y-3542000D01*
X6785477Y-3542000D02*
X6795000Y-3494381D01*
X6795000Y-3494381D02*
X6795000Y-3456286D01*
X6795000Y-3456286D02*
X6785477Y-3408667D01*
X6785477Y-3408667D02*
X6775953Y-3380095D01*
X6775953Y-3380095D02*
X6766429Y-3361048D01*
X6766429Y-3361048D02*
X6747381Y-3332476D01*
X6747381Y-3332476D02*
X6737858Y-3322952D01*
M02*
