%TF.GenerationSoftware,KiCad,Pcbnew,(6.0.7)*%
%TF.CreationDate,2022-09-12T17:06:16+03:00*%
%TF.ProjectId,io-breakout,696f2d62-7265-4616-9b6f-75742e6b6963,rev?*%
%TF.SameCoordinates,Original*%
%TF.FileFunction,Soldermask,Top*%
%TF.FilePolarity,Negative*%
%FSLAX46Y46*%
G04 Gerber Fmt 4.6, Leading zero omitted, Abs format (unit mm)*
G04 Created by KiCad (PCBNEW (6.0.7)) date 2022-09-12 17:06:16*
%MOMM*%
%LPD*%
G01*
G04 APERTURE LIST*
%ADD10R,3.000000X3.000000*%
%ADD11C,3.000000*%
%ADD12C,4.500000*%
%ADD13C,1.600000*%
%ADD14C,2.000000*%
%ADD15C,5.000000*%
%ADD16R,2.000000X2.000000*%
%ADD17O,1.600000X1.600000*%
%ADD18R,1.800000X1.800000*%
%ADD19C,1.800000*%
G04 APERTURE END LIST*
D10*
%TO.C,J3*%
X118745000Y-107950000D03*
D11*
X123825000Y-107950000D03*
%TD*%
D10*
%TO.C,J10*%
X88900000Y-81280000D03*
D11*
X88900000Y-86360000D03*
%TD*%
D10*
%TO.C,J2*%
X108585000Y-107950000D03*
D11*
X113665000Y-107950000D03*
%TD*%
D12*
%TO.C,H1*%
X179070000Y-107950000D03*
%TD*%
D13*
%TO.C,J9*%
X146615000Y-70820000D03*
X124455000Y-70820000D03*
D14*
X157695000Y-70820000D03*
D13*
X116145000Y-70820000D03*
X143845000Y-70820000D03*
X121685000Y-70820000D03*
X129995000Y-70820000D03*
X154925000Y-70820000D03*
X113375000Y-70820000D03*
X152155000Y-70820000D03*
X135535000Y-70820000D03*
D14*
X110605000Y-70820000D03*
D13*
X141075000Y-70820000D03*
X132765000Y-70820000D03*
X150770000Y-73660000D03*
X138305000Y-70820000D03*
X127225000Y-70820000D03*
X118915000Y-70820000D03*
X148000000Y-73660000D03*
D15*
X165900000Y-72240000D03*
X102400000Y-72240000D03*
D16*
X109220000Y-73660000D03*
D14*
X111990000Y-73660000D03*
X114760000Y-73660000D03*
X117530000Y-73660000D03*
X120300000Y-73660000D03*
X123070000Y-73660000D03*
X125840000Y-73660000D03*
X128610000Y-73660000D03*
X131380000Y-73660000D03*
X134150000Y-73660000D03*
X136920000Y-73660000D03*
X139690000Y-73660000D03*
X142460000Y-73660000D03*
X145230000Y-73660000D03*
X153540000Y-73660000D03*
X156310000Y-73660000D03*
X159080000Y-73660000D03*
X149385000Y-70820000D03*
%TD*%
D10*
%TO.C,J5*%
X139065000Y-107950000D03*
D11*
X144145000Y-107950000D03*
%TD*%
D10*
%TO.C,J1*%
X98425000Y-107950000D03*
D11*
X103505000Y-107950000D03*
%TD*%
D10*
%TO.C,J11*%
X88900000Y-91440000D03*
D11*
X88900000Y-96520000D03*
%TD*%
D12*
%TO.C,H2*%
X90170000Y-107950000D03*
%TD*%
D10*
%TO.C,J8*%
X180340000Y-86360000D03*
D11*
X180340000Y-81280000D03*
%TD*%
D10*
%TO.C,J7*%
X180340000Y-96520000D03*
D11*
X180340000Y-91440000D03*
%TD*%
D13*
%TO.C,R1*%
X163195000Y-83185000D03*
D17*
X163195000Y-93345000D03*
%TD*%
D12*
%TO.C,H4*%
X179070000Y-69850000D03*
%TD*%
D13*
%TO.C,R2*%
X158115000Y-83185000D03*
D17*
X158115000Y-93345000D03*
%TD*%
D12*
%TO.C,H3*%
X90170000Y-69850000D03*
%TD*%
D18*
%TO.C,D1*%
X170185000Y-108585000D03*
D19*
X167645000Y-108585000D03*
%TD*%
D10*
%TO.C,J6*%
X149225000Y-107950000D03*
D11*
X154305000Y-107950000D03*
%TD*%
D18*
%TO.C,D2*%
X163200000Y-108585000D03*
D19*
X160660000Y-108585000D03*
%TD*%
D10*
%TO.C,J4*%
X128905000Y-107950000D03*
D11*
X133985000Y-107950000D03*
%TD*%
M02*
