%TF.GenerationSoftware,KiCad,Pcbnew,(6.0.7)*%
%TF.CreationDate,2022-09-12T17:06:16+03:00*%
%TF.ProjectId,io-breakout,696f2d62-7265-4616-9b6f-75742e6b6963,rev?*%
%TF.SameCoordinates,Original*%
%TF.FileFunction,Copper,L1,Top*%
%TF.FilePolarity,Positive*%
%FSLAX46Y46*%
G04 Gerber Fmt 4.6, Leading zero omitted, Abs format (unit mm)*
G04 Created by KiCad (PCBNEW (6.0.7)) date 2022-09-12 17:06:16*
%MOMM*%
%LPD*%
G01*
G04 APERTURE LIST*
%TA.AperFunction,ComponentPad*%
%ADD10R,3.000000X3.000000*%
%TD*%
%TA.AperFunction,ComponentPad*%
%ADD11C,3.000000*%
%TD*%
%TA.AperFunction,ComponentPad*%
%ADD12C,2.000000*%
%TD*%
%TA.AperFunction,ComponentPad*%
%ADD13C,5.000000*%
%TD*%
%TA.AperFunction,ComponentPad*%
%ADD14R,2.000000X2.000000*%
%TD*%
%TA.AperFunction,ComponentPad*%
%ADD15C,1.600000*%
%TD*%
%TA.AperFunction,ComponentPad*%
%ADD16O,1.600000X1.600000*%
%TD*%
%TA.AperFunction,ComponentPad*%
%ADD17R,1.800000X1.800000*%
%TD*%
%TA.AperFunction,ComponentPad*%
%ADD18C,1.800000*%
%TD*%
%TA.AperFunction,Conductor*%
%ADD19C,1.000000*%
%TD*%
%TA.AperFunction,Conductor*%
%ADD20C,2.000000*%
%TD*%
G04 APERTURE END LIST*
D10*
%TO.P,J3,1,Pin_1*%
%TO.N,/P2*%
X118745000Y-107950000D03*
D11*
%TO.P,J3,2,Pin_2*%
%TO.N,/P3*%
X123825000Y-107950000D03*
%TD*%
D10*
%TO.P,J10,1,Pin_1*%
%TO.N,Earth*%
X88900000Y-81280000D03*
D11*
%TO.P,J10,2,Pin_2*%
%TO.N,GND*%
X88900000Y-86360000D03*
%TD*%
D10*
%TO.P,J2,1,Pin_1*%
%TO.N,GND*%
X108585000Y-107950000D03*
D11*
%TO.P,J2,2,Pin_2*%
%TO.N,/P1*%
X113665000Y-107950000D03*
%TD*%
D12*
%TO.P,J9,*%
%TO.N,*%
X157695000Y-70820000D03*
X110605000Y-70820000D03*
D13*
%TO.P,J9,0,PAD*%
%TO.N,Earth*%
X165900000Y-72240000D03*
X102400000Y-72240000D03*
D14*
%TO.P,J9,1,1*%
%TO.N,/P1*%
X109220000Y-73660000D03*
D12*
%TO.P,J9,2,2*%
%TO.N,/P2*%
X111990000Y-73660000D03*
%TO.P,J9,3,3*%
%TO.N,/P3*%
X114760000Y-73660000D03*
%TO.P,J9,4,4*%
%TO.N,/P4*%
X117530000Y-73660000D03*
%TO.P,J9,5,5*%
%TO.N,/P5*%
X120300000Y-73660000D03*
%TO.P,J9,6,6*%
%TO.N,/P6*%
X123070000Y-73660000D03*
%TO.P,J9,7,7*%
%TO.N,/P7*%
X125840000Y-73660000D03*
%TO.P,J9,8,8*%
%TO.N,/P8*%
X128610000Y-73660000D03*
%TO.P,J9,9,9*%
%TO.N,unconnected-(J9-Pad9)*%
X131380000Y-73660000D03*
%TO.P,J9,10,10*%
%TO.N,unconnected-(J9-Pad10)*%
X134150000Y-73660000D03*
%TO.P,J9,11,11*%
%TO.N,unconnected-(J9-Pad11)*%
X136920000Y-73660000D03*
%TO.P,J9,12,12*%
%TO.N,unconnected-(J9-Pad12)*%
X139690000Y-73660000D03*
%TO.P,J9,13,13*%
%TO.N,unconnected-(J9-Pad13)*%
X142460000Y-73660000D03*
%TO.P,J9,14,14*%
%TO.N,unconnected-(J9-Pad14)*%
X145230000Y-73660000D03*
%TO.P,J9,17,17*%
%TO.N,unconnected-(J9-Pad17)*%
X153540000Y-73660000D03*
%TO.P,J9,18,18*%
%TO.N,unconnected-(J9-Pad18)*%
X156310000Y-73660000D03*
%TO.P,J9,19,19*%
%TO.N,unconnected-(J9-Pad19)*%
X159080000Y-73660000D03*
%TO.P,J9,34,34*%
%TO.N,/P34*%
X149385000Y-70820000D03*
%TD*%
D10*
%TO.P,J5,1,Pin_1*%
%TO.N,/P6*%
X139065000Y-107950000D03*
D11*
%TO.P,J5,2,Pin_2*%
%TO.N,/P7*%
X144145000Y-107950000D03*
%TD*%
D10*
%TO.P,J1,1,Pin_1*%
%TO.N,GND*%
X98425000Y-107950000D03*
D11*
%TO.P,J1,2,Pin_2*%
X103505000Y-107950000D03*
%TD*%
D10*
%TO.P,J11,1,Pin_1*%
%TO.N,GND*%
X88900000Y-91440000D03*
D11*
%TO.P,J11,2,Pin_2*%
X88900000Y-96520000D03*
%TD*%
D10*
%TO.P,J8,1,Pin_1*%
%TO.N,/24V{slash}a*%
X180340000Y-86360000D03*
D11*
%TO.P,J8,2,Pin_2*%
X180340000Y-81280000D03*
%TD*%
D10*
%TO.P,J7,1,Pin_1*%
%TO.N,/24V*%
X180340000Y-96520000D03*
D11*
%TO.P,J7,2,Pin_2*%
X180340000Y-91440000D03*
%TD*%
D15*
%TO.P,R1,1*%
%TO.N,/24V*%
X163195000Y-83185000D03*
D16*
%TO.P,R1,2*%
%TO.N,Net-(D1-Pad2)*%
X163195000Y-93345000D03*
%TD*%
D15*
%TO.P,R2,1*%
%TO.N,/24V{slash}a*%
X158115000Y-83185000D03*
D16*
%TO.P,R2,2*%
%TO.N,Net-(D2-Pad2)*%
X158115000Y-93345000D03*
%TD*%
D17*
%TO.P,D1,1,K*%
%TO.N,GND*%
X170185000Y-108585000D03*
D18*
%TO.P,D1,2,A*%
%TO.N,Net-(D1-Pad2)*%
X167645000Y-108585000D03*
%TD*%
D10*
%TO.P,J6,1,Pin_1*%
%TO.N,/P8*%
X149225000Y-107950000D03*
D11*
%TO.P,J6,2,Pin_2*%
%TO.N,/P34*%
X154305000Y-107950000D03*
%TD*%
D17*
%TO.P,D2,1,K*%
%TO.N,GND*%
X163200000Y-108585000D03*
D18*
%TO.P,D2,2,A*%
%TO.N,Net-(D2-Pad2)*%
X160660000Y-108585000D03*
%TD*%
D10*
%TO.P,J4,1,Pin_1*%
%TO.N,/P4*%
X128905000Y-107950000D03*
D11*
%TO.P,J4,2,Pin_2*%
%TO.N,/P5*%
X133985000Y-107950000D03*
%TD*%
D19*
%TO.N,Earth*%
X102400000Y-67780000D02*
X103505000Y-66675000D01*
X102400000Y-72240000D02*
X102400000Y-67780000D01*
D20*
X99695000Y-81280000D02*
X102400000Y-78575000D01*
X102400000Y-78575000D02*
X102400000Y-72240000D01*
D19*
X103505000Y-66675000D02*
X164465000Y-66675000D01*
D20*
X88900000Y-81280000D02*
X99695000Y-81280000D01*
D19*
X165900000Y-68110000D02*
X165900000Y-72240000D01*
X164465000Y-66675000D02*
X165900000Y-68110000D01*
D20*
%TO.N,GND*%
X103505000Y-107950000D02*
X108585000Y-107950000D01*
X98425000Y-107950000D02*
X103505000Y-107950000D01*
D19*
X162560000Y-111760000D02*
X163200000Y-111120000D01*
D20*
X88900000Y-91440000D02*
X88900000Y-96520000D01*
D19*
X161925000Y-111760000D02*
X169545000Y-111760000D01*
D20*
X98425000Y-99695000D02*
X95250000Y-96520000D01*
D19*
X169545000Y-111760000D02*
X170185000Y-111120000D01*
X163200000Y-111120000D02*
X163200000Y-108585000D01*
D20*
X98425000Y-107950000D02*
X98425000Y-99695000D01*
D19*
X161925000Y-111760000D02*
X162560000Y-111760000D01*
X108585000Y-107950000D02*
X108585000Y-111125000D01*
X170185000Y-111120000D02*
X170185000Y-108585000D01*
X108585000Y-111125000D02*
X109220000Y-111760000D01*
X109220000Y-111760000D02*
X161925000Y-111760000D01*
D20*
X88900000Y-86360000D02*
X88900000Y-91440000D01*
X95250000Y-96520000D02*
X88900000Y-96520000D01*
D19*
%TO.N,/P1*%
X113665000Y-107950000D02*
X113665000Y-97155000D01*
X113665000Y-97155000D02*
X109220000Y-92710000D01*
X109220000Y-73660000D02*
X109220000Y-92710000D01*
%TO.N,/P2*%
X118745000Y-107950000D02*
X118745000Y-96520000D01*
X111990000Y-89765000D02*
X111990000Y-73660000D01*
X118745000Y-96520000D02*
X111990000Y-89765000D01*
%TO.N,/P3*%
X123825000Y-95885000D02*
X114760000Y-86820000D01*
X114760000Y-86820000D02*
X114760000Y-73660000D01*
X123825000Y-107950000D02*
X123825000Y-95885000D01*
%TO.N,/P4*%
X128905000Y-107950000D02*
X128905000Y-95885000D01*
X128905000Y-95885000D02*
X117530000Y-84510000D01*
X117530000Y-84510000D02*
X117530000Y-73660000D01*
%TO.N,/P5*%
X120300000Y-82835000D02*
X120300000Y-73660000D01*
X133985000Y-96520000D02*
X120300000Y-82835000D01*
X133985000Y-107950000D02*
X133985000Y-96520000D01*
%TO.N,/P6*%
X139065000Y-107950000D02*
X139065000Y-96520000D01*
X123070000Y-80525000D02*
X123070000Y-73660000D01*
X139065000Y-96520000D02*
X123070000Y-80525000D01*
%TO.N,/P7*%
X125840000Y-73660000D02*
X125840000Y-78850000D01*
X144145000Y-97155000D02*
X144145000Y-107950000D01*
X125840000Y-78850000D02*
X144145000Y-97155000D01*
%TO.N,/P8*%
X128610000Y-76540000D02*
X149225000Y-97155000D01*
X128610000Y-73660000D02*
X128610000Y-76540000D01*
X149225000Y-97155000D02*
X149225000Y-107950000D01*
%TO.N,/P34*%
X149385000Y-70820000D02*
X149385000Y-83091000D01*
X154305000Y-107950000D02*
X154305000Y-88011000D01*
X149385000Y-83091000D02*
X154305000Y-88011000D01*
%TO.N,/24V*%
X173990000Y-90170000D02*
X173990000Y-83820000D01*
X180340000Y-91440000D02*
X175260000Y-91440000D01*
X173355000Y-83185000D02*
X163195000Y-83185000D01*
X175260000Y-91440000D02*
X173990000Y-90170000D01*
X173990000Y-83820000D02*
X173355000Y-83185000D01*
D20*
X180340000Y-96520000D02*
X180340000Y-91440000D01*
D19*
%TO.N,/24V{slash}a*%
X180340000Y-81280000D02*
X178435000Y-79375000D01*
X159385000Y-79375000D02*
X158115000Y-80645000D01*
D20*
X180340000Y-86360000D02*
X180340000Y-81280000D01*
D19*
X158115000Y-80645000D02*
X158115000Y-83185000D01*
X178435000Y-79375000D02*
X159385000Y-79375000D01*
%TO.N,Net-(D1-Pad2)*%
X163195000Y-100330000D02*
X167645000Y-104780000D01*
X167645000Y-108585000D02*
X167645000Y-104780000D01*
X163195000Y-93345000D02*
X163195000Y-100330000D01*
%TO.N,Net-(D2-Pad2)*%
X158115000Y-100330000D02*
X160660000Y-102875000D01*
X158115000Y-93345000D02*
X158115000Y-100330000D01*
X160660000Y-102875000D02*
X160660000Y-108585000D01*
%TD*%
M02*
